<?xml version="1.0" encoding="utf-8" standalone="no"?>
<!DOCTYPE svg PUBLIC "-//W3C//DTD SVG 1.1//EN"
  "http://www.w3.org/Graphics/SVG/1.1/DTD/svg11.dtd">
<svg xmlns:xlink="http://www.w3.org/1999/xlink" width="254.047323pt" height="169.364882pt" viewBox="0 0 254.047323 169.364882" xmlns="http://www.w3.org/2000/svg" version="1.1">
 <metadata>
  <rdf:RDF xmlns:dc="http://purl.org/dc/elements/1.1/" xmlns:cc="http://creativecommons.org/ns#" xmlns:rdf="http://www.w3.org/1999/02/22-rdf-syntax-ns#">
   <cc:Work>
    <dc:type rdf:resource="http://purl.org/dc/dcmitype/StillImage"/>
    <dc:date>2024-10-14T16:18:35.492530</dc:date>
    <dc:format>image/svg+xml</dc:format>
    <dc:creator>
     <cc:Agent>
      <dc:title>Matplotlib v3.9.2, https://matplotlib.org/</dc:title>
     </cc:Agent>
    </dc:creator>
   </cc:Work>
  </rdf:RDF>
 </metadata>
 <defs>
  <style type="text/css">*{stroke-linejoin: round; stroke-linecap: butt}</style>
 </defs>
 <g id="figure_1">
  <g id="patch_1">
   <path d="M 0 169.364882 
L 254.047323 169.364882 
L 254.047323 0 
L 0 0 
z
" style="fill: #ffffff"/>
  </g>
  <g id="axes_1">
   <g id="patch_2">
    <path d="M 53.321448 125.236803 
L 242.167323 125.236803 
L 242.167323 11.88 
L 53.321448 11.88 
z
" style="fill: #ffffff"/>
   </g>
   <g id="matplotlib.axis_1">
    <g id="xtick_1">
     <g id="line2d_1">
      <defs>
       <path id="mccaf19f2b0" d="M 0 0 
L 0 3.5 
" style="stroke: #000000; stroke-width: 0.8"/>
      </defs>
      <g>
       <use xlink:href="#mccaf19f2b0" x="61.905351" y="125.236803" style="stroke: #000000; stroke-width: 0.8"/>
      </g>
     </g>
     <g id="text_1">
      <!-- $\mathdefault{−2}$ -->
      <g transform="translate(54.903813 139.84715) scale(0.11 -0.11)">
       <defs>
        <path id="CMSY10-0" d="M 4218 1472 
C 4326 1472 4442 1472 4442 1600 
C 4442 1728 4326 1728 4218 1728 
L 755 1728 
C 646 1728 531 1728 531 1600 
C 531 1472 646 1472 755 1472 
L 4218 1472 
z
" transform="scale(0.015625)"/>
        <path id="CMR17-32" d="M 2669 989 
L 2554 989 
C 2490 536 2438 459 2413 420 
C 2381 369 1920 369 1830 369 
L 602 369 
C 832 619 1280 1072 1824 1597 
C 2214 1967 2669 2402 2669 3035 
C 2669 3790 2067 4224 1395 4224 
C 691 4224 262 3604 262 3030 
C 262 2780 448 2748 525 2748 
C 589 2748 781 2787 781 3010 
C 781 3207 614 3264 525 3264 
C 486 3264 448 3258 422 3245 
C 544 3790 915 4058 1306 4058 
C 1862 4058 2227 3617 2227 3035 
C 2227 2479 1901 2000 1536 1584 
L 262 146 
L 262 0 
L 2515 0 
L 2669 989 
z
" transform="scale(0.015625)"/>
       </defs>
       <use xlink:href="#CMSY10-0" transform="scale(0.996264)"/>
       <use xlink:href="#CMR17-32" transform="translate(77.487468 0) scale(0.996264)"/>
      </g>
     </g>
    </g>
    <g id="xtick_2">
     <g id="line2d_2">
      <g>
       <use xlink:href="#mccaf19f2b0" x="104.824868" y="125.236803" style="stroke: #000000; stroke-width: 0.8"/>
      </g>
     </g>
     <g id="text_2">
      <!-- $\mathdefault{−1}$ -->
      <g transform="translate(97.82333 139.84715) scale(0.11 -0.11)">
       <defs>
        <path id="CMR17-31" d="M 1702 4058 
C 1702 4192 1696 4192 1606 4192 
C 1357 3916 979 3827 621 3827 
C 602 3827 570 3827 563 3808 
C 557 3795 557 3782 557 3648 
C 755 3648 1088 3686 1344 3839 
L 1344 461 
C 1344 236 1331 160 781 160 
L 589 160 
L 589 0 
C 896 0 1216 0 1523 0 
C 1830 0 2150 0 2458 0 
L 2458 160 
L 2266 160 
C 1715 160 1702 230 1702 458 
L 1702 4058 
z
" transform="scale(0.015625)"/>
       </defs>
       <use xlink:href="#CMSY10-0" transform="scale(0.996264)"/>
       <use xlink:href="#CMR17-31" transform="translate(77.487468 0) scale(0.996264)"/>
      </g>
     </g>
    </g>
    <g id="xtick_3">
     <g id="line2d_3">
      <g>
       <use xlink:href="#mccaf19f2b0" x="147.744385" y="125.236803" style="stroke: #000000; stroke-width: 0.8"/>
      </g>
     </g>
     <g id="text_3">
      <!-- $\mathdefault{0}$ -->
      <g transform="translate(145.004651 139.84715) scale(0.11 -0.11)">
       <defs>
        <path id="CMR17-30" d="M 2688 2025 
C 2688 2416 2682 3080 2413 3591 
C 2176 4039 1798 4198 1466 4198 
C 1158 4198 768 4058 525 3597 
C 269 3118 243 2524 243 2025 
C 243 1661 250 1106 448 619 
C 723 -39 1216 -128 1466 -128 
C 1760 -128 2208 -7 2470 600 
C 2662 1042 2688 1559 2688 2025 
z
M 1466 -26 
C 1056 -26 813 325 723 812 
C 653 1188 653 1738 653 2096 
C 653 2588 653 2997 736 3387 
C 858 3929 1216 4096 1466 4096 
C 1728 4096 2067 3923 2189 3400 
C 2272 3036 2278 2607 2278 2096 
C 2278 1680 2278 1169 2202 792 
C 2067 95 1690 -26 1466 -26 
z
" transform="scale(0.015625)"/>
       </defs>
       <use xlink:href="#CMR17-30" transform="scale(0.996264)"/>
      </g>
     </g>
    </g>
    <g id="xtick_4">
     <g id="line2d_4">
      <g>
       <use xlink:href="#mccaf19f2b0" x="190.663902" y="125.236803" style="stroke: #000000; stroke-width: 0.8"/>
      </g>
     </g>
     <g id="text_4">
      <!-- $\mathdefault{1}$ -->
      <g transform="translate(187.924168 139.84715) scale(0.11 -0.11)">
       <use xlink:href="#CMR17-31" transform="scale(0.996264)"/>
      </g>
     </g>
    </g>
    <g id="xtick_5">
     <g id="line2d_5">
      <g>
       <use xlink:href="#mccaf19f2b0" x="233.583419" y="125.236803" style="stroke: #000000; stroke-width: 0.8"/>
      </g>
     </g>
     <g id="text_5">
      <!-- $\mathdefault{2}$ -->
      <g transform="translate(230.843686 139.84715) scale(0.11 -0.11)">
       <use xlink:href="#CMR17-32" transform="scale(0.996264)"/>
      </g>
     </g>
    </g>
    <g id="text_6">
     <!-- Update Size, $\pi \norm{\bm{\theta}}_{\infty}$ -->
     <g transform="translate(99.055189 154.197223) scale(0.11 -0.11)">
      <defs>
       <path id="CMR17-55" d="M 3456 1433 
C 3456 579 2899 38 2291 38 
C 1965 38 1670 210 1491 477 
C 1286 783 1261 1178 1261 1401 
L 1261 3874 
C 1261 4160 1331 4160 1773 4160 
L 1773 4320 
C 1587 4320 1248 4320 1050 4320 
C 851 4320 512 4320 326 4320 
L 326 4160 
C 768 4160 838 4160 838 3874 
L 838 1433 
C 838 516 1536 -128 2278 -128 
C 3110 -128 3590 719 3590 1344 
L 3590 3766 
C 3590 4122 3917 4160 4102 4160 
L 4102 4326 
C 3955 4320 3686 4320 3526 4320 
C 3366 4320 3091 4320 2944 4326 
L 2944 4160 
C 3456 4160 3456 3861 3456 3702 
L 3456 1433 
z
" transform="scale(0.015625)"/>
       <path id="CMR17-70" d="M 1408 -1063 
C 998 -1063 973 -1037 973 -789 
L 973 402 
C 1158 134 1427 -38 1766 -38 
C 2406 -38 3053 523 3053 1388 
C 3053 2191 2496 2802 1837 2802 
C 1453 2802 1139 2592 960 2338 
L 960 2802 
L 198 2732 
L 198 2567 
C 576 2567 634 2528 634 2223 
L 634 -789 
C 634 -1031 608 -1063 198 -1063 
L 198 -1228 
C 352 -1216 634 -1216 800 -1216 
C 966 -1216 1254 -1216 1408 -1228 
L 1408 -1063 
z
M 973 2012 
C 973 2102 973 2235 1222 2471 
C 1254 2497 1472 2688 1792 2688 
C 2259 2688 2643 2108 2643 1382 
C 2643 656 2234 64 1728 64 
C 1498 64 1248 172 1056 472 
C 973 612 973 650 973 752 
L 973 2012 
z
" transform="scale(0.015625)"/>
       <path id="CMR17-64" d="M 1869 4326 
L 1869 4160 
C 2246 4160 2304 4122 2304 3820 
L 2304 2345 
C 2278 2377 2016 2790 1498 2790 
C 845 2790 211 2208 211 1364 
C 211 525 806 -64 1434 -64 
C 1978 -64 2259 337 2291 380 
L 2291 -63 
L 3066 -63 
L 3066 128 
C 2688 128 2630 166 2630 473 
L 2630 4396 
L 1869 4326 
z
M 2291 755 
C 2291 563 2176 390 2029 262 
C 1811 70 1594 38 1472 38 
C 1286 38 621 134 621 1356 
C 621 2612 1363 2688 1530 2688 
C 1824 2688 2061 2522 2208 2291 
C 2291 2157 2291 2138 2291 2023 
L 2291 755 
z
" transform="scale(0.015625)"/>
       <path id="CMR17-61" d="M 2304 1653 
C 2304 2072 2304 2294 2035 2543 
C 1798 2752 1523 2816 1306 2816 
C 800 2816 435 2407 435 1971 
C 435 1728 627 1728 666 1728 
C 749 1728 896 1778 896 1954 
C 896 2112 774 2181 666 2181 
C 640 2181 608 2174 589 2168 
C 723 2592 1069 2714 1293 2714 
C 1613 2714 1965 2429 1965 1885 
L 1965 1600 
C 1587 1600 1133 1549 774 1357 
C 371 1133 256 813 256 570 
C 256 77 832 -64 1171 -64 
C 1523 -64 1850 139 1990 511 
C 2003 233 2182 -18 2464 -18 
C 2598 -18 2938 70 2938 567 
L 2938 920 
L 2822 920 
L 2822 562 
C 2822 178 2650 128 2566 128 
C 2304 128 2304 458 2304 738 
L 2304 1653 
z
M 1965 870 
C 1965 317 1568 38 1216 38 
C 896 38 646 275 646 570 
C 646 761 730 1100 1101 1305 
C 1408 1478 1760 1504 1965 1504 
L 1965 870 
z
" transform="scale(0.015625)"/>
       <path id="CMR17-74" d="M 966 2560 
L 1862 2560 
L 1862 2725 
L 966 2725 
L 966 3904 
L 851 3904 
C 838 3245 614 2668 70 2668 
L 70 2560 
L 627 2560 
L 627 771 
C 627 650 627 -64 1370 -64 
C 1747 -64 1965 306 1965 777 
L 1965 1140 
L 1850 1140 
L 1850 783 
C 1850 344 1677 51 1408 51 
C 1222 51 966 178 966 758 
L 966 2560 
z
" transform="scale(0.015625)"/>
       <path id="CMR17-65" d="M 2438 1472 
C 2464 1498 2464 1511 2464 1576 
C 2464 2238 2118 2816 1389 2816 
C 710 2816 173 2169 173 1383 
C 173 551 781 -64 1459 -64 
C 2176 -64 2458 607 2458 740 
C 2458 784 2419 784 2406 784 
C 2362 784 2355 771 2330 696 
C 2189 265 1837 51 1504 51 
C 1229 51 954 203 781 480 
C 582 803 582 1176 582 1472 
L 2438 1472 
z
M 589 1568 
C 634 2505 1126 2714 1382 2714 
C 1818 2714 2112 2297 2118 1568 
L 589 1568 
z
" transform="scale(0.015625)"/>
       <path id="CMR17-53" d="M 2803 4290 
C 2803 4404 2797 4411 2758 4411 
C 2720 4411 2707 4385 2682 4328 
L 2490 3907 
C 2246 4257 1875 4416 1472 4416 
C 819 4416 294 3901 294 3253 
C 294 3056 339 2776 557 2510 
C 794 2218 1018 2167 1530 2033 
C 1722 1982 2042 1899 2106 1874 
C 2470 1722 2662 1341 2662 985 
C 2662 527 2336 38 1779 38 
C 1094 38 454 419 410 1311 
C 403 1413 397 1419 352 1419 
C 301 1419 294 1413 294 1285 
L 294 -1 
C 294 -115 301 -122 339 -122 
C 384 -122 397 -90 486 108 
C 493 127 493 140 614 381 
C 934 -39 1472 -128 1779 -128 
C 2477 -128 2970 451 2970 1124 
C 2970 1454 2848 1708 2778 1823 
C 2509 2230 2221 2306 1914 2382 
C 1869 2402 1856 2402 1498 2490 
C 1152 2579 1005 2624 845 2796 
C 666 2992 602 3196 602 3399 
C 602 3812 934 4263 1478 4263 
C 2157 4263 2579 3786 2675 2993 
C 2694 2878 2701 2872 2746 2872 
C 2803 2872 2803 2891 2803 2999 
L 2803 4290 
z
" transform="scale(0.015625)"/>
       <path id="CMR17-69" d="M 992 3909 
C 992 4049 877 4170 730 4170 
C 589 4170 467 4056 467 3909 
C 467 3769 582 3648 730 3648 
C 870 3648 992 3763 992 3909 
z
M 243 2706 
L 243 2541 
C 602 2541 653 2502 653 2197 
L 653 427 
C 653 184 627 153 218 153 
L 218 -13 
C 371 0 646 0 806 0 
C 960 0 1222 0 1370 -13 
L 1370 153 
C 992 153 979 191 979 420 
L 979 2776 
L 243 2706 
z
" transform="scale(0.015625)"/>
       <path id="CMR17-7a" d="M 2310 2605 
C 2362 2670 2362 2682 2362 2695 
C 2362 2752 2336 2752 2221 2752 
L 275 2752 
L 211 1760 
L 326 1760 
C 371 2381 442 2650 1178 2650 
L 1958 2650 
L 128 96 
C 128 0 134 0 269 0 
L 2291 0 
L 2381 1152 
L 2266 1152 
C 2214 442 2131 115 1350 115 
L 531 115 
L 2310 2605 
z
" transform="scale(0.015625)"/>
       <path id="CMR17-2c" d="M 1011 102 
C 1024 45 1024 25 1024 -77 
C 1024 -463 896 -817 627 -1139 
C 595 -1170 595 -1183 595 -1197 
C 595 -1222 621 -1248 646 -1248 
C 685 -1248 1126 -799 1126 -87 
C 1126 124 1101 522 800 522 
C 659 522 538 427 538 261 
C 538 96 659 0 800 0 
C 877 0 960 32 1011 102 
z
" transform="scale(0.015625)"/>
       <path id="CMMI12-19" d="M 1658 2408 
L 2381 2408 
C 2208 1692 2099 1226 2099 716 
C 2099 626 2099 -64 2362 -64 
C 2496 -64 2611 57 2611 166 
C 2611 197 2611 210 2566 306 
C 2394 747 2394 1296 2394 1341 
C 2394 1379 2394 1832 2528 2408 
L 3245 2408 
C 3328 2408 3539 2408 3539 2612 
C 3539 2752 3418 2752 3302 2752 
L 1197 2752 
C 1050 2752 832 2752 538 2440 
C 371 2254 166 1916 166 1878 
C 166 1840 198 1827 237 1827 
C 282 1827 288 1846 320 1884 
C 653 2408 986 2408 1146 2408 
L 1510 2408 
C 1370 1929 1210 1373 685 256 
C 634 154 634 140 634 102 
C 634 -32 749 -64 806 -64 
C 992 -64 1043 102 1120 370 
C 1222 696 1222 709 1286 964 
L 1658 2408 
z
" transform="scale(0.015625)"/>
       <path id="CMSY10-6b" d="M 1103 4582 
C 1103 4685 1103 4800 975 4800 
C 847 4800 847 4659 847 4563 
L 847 -1363 
C 847 -1466 847 -1600 975 -1600 
C 1103 -1600 1103 -1485 1103 -1382 
L 1103 4582 
z
M 2351 4563 
C 2351 4666 2351 4800 2223 4800 
C 2095 4800 2095 4685 2095 4582 
L 2095 -1382 
C 2095 -1485 2095 -1600 2223 -1600 
C 2351 -1600 2351 -1459 2351 -1363 
L 2351 4563 
z
" transform="scale(0.015625)"/>
       <path id="CMMIB10-12" d="M 3501 3123 
C 3501 4250 2835 4480 2445 4480 
C 1939 4480 1299 4148 819 3277 
C 493 2675 294 1805 294 1287 
C 294 359 781 -64 1357 -64 
C 1786 -64 2349 186 2790 839 
C 3328 1626 3501 2644 3501 3123 
z
M 1267 2353 
C 1357 2727 1523 3312 1715 3647 
C 1862 3910 2125 4251 2432 4251 
C 2701 4251 2816 3969 2816 3589 
C 2816 3183 2675 2623 2605 2353 
L 1267 2353 
z
M 2528 2048 
C 2131 338 1594 165 1370 165 
C 1280 165 1146 190 1056 389 
C 979 560 979 809 979 816 
C 979 1180 1120 1773 1190 2048 
L 2528 2048 
z
" transform="scale(0.015625)"/>
       <path id="CMSY10-31" d="M 3251 1730 
C 2906 2166 2829 2262 2630 2422 
C 2272 2710 1914 2825 1587 2825 
C 838 2825 352 2122 352 1374 
C 352 639 826 -70 1562 -70 
C 2298 -70 2829 511 3142 1022 
C 3488 588 3565 492 3763 332 
C 4122 45 4480 -70 4806 -70 
C 5555 -70 6042 633 6042 1380 
C 6042 2115 5568 2825 4832 2825 
C 4096 2825 3565 2242 3251 1730 
z
M 3418 1514 
C 3680 1975 4154 2620 4877 2620 
C 5555 2620 5901 1955 5901 1380 
C 5901 753 5472 236 4909 236 
C 4538 236 4250 505 4115 638 
C 3955 811 3808 1009 3418 1514 
z
M 2976 1240 
C 2714 780 2240 134 1517 134 
C 838 134 493 799 493 1374 
C 493 2000 922 2518 1485 2518 
C 1856 2518 2144 2249 2278 2115 
C 2438 1943 2586 1744 2976 1240 
z
" transform="scale(0.015625)"/>
      </defs>
      <use xlink:href="#CMR17-55" transform="scale(0.996264)"/>
      <use xlink:href="#CMR17-70" transform="translate(69.07243 0) scale(0.996264)"/>
      <use xlink:href="#CMR17-64" transform="translate(122.570238 0) scale(0.996264)"/>
      <use xlink:href="#CMR17-61" transform="translate(173.465608 0) scale(0.996264)"/>
      <use xlink:href="#CMR17-74" transform="translate(219.156085 0) scale(0.996264)"/>
      <use xlink:href="#CMR17-65" transform="translate(254.436853 0) scale(0.996264)"/>
      <use xlink:href="#CMR17-53" transform="translate(324.99848 0) scale(0.996264)"/>
      <use xlink:href="#CMR17-69" transform="translate(375.89385 0) scale(0.996264)"/>
      <use xlink:href="#CMR17-7a" transform="translate(400.764908 0) scale(0.996264)"/>
      <use xlink:href="#CMR17-65" transform="translate(441.250569 0) scale(0.996264)"/>
      <use xlink:href="#CMR17-2c" transform="translate(481.736229 0) scale(0.996264)"/>
      <use xlink:href="#CMMI12-19" transform="translate(536.683254 0) scale(0.996264)"/>
      <use xlink:href="#CMSY10-6b" transform="translate(595.593855 0) scale(0.996264)"/>
      <use xlink:href="#CMMIB10-12" transform="translate(645.407238 0) scale(0.996264)"/>
      <use xlink:href="#CMSY10-6b" transform="translate(704.560124 0) scale(0.996264)"/>
      <use xlink:href="#CMSY10-31" transform="translate(754.373507 -28.393509) scale(0.697382)"/>
     </g>
    </g>
   </g>
   <g id="matplotlib.axis_2">
    <g id="ytick_1">
     <g id="line2d_6">
      <defs>
       <path id="m1529d73a6d" d="M 0 0 
L -3.5 0 
" style="stroke: #000000; stroke-width: 0.8"/>
      </defs>
      <g>
       <use xlink:href="#m1529d73a6d" x="53.321448" y="120.084221" style="stroke: #000000; stroke-width: 0.8"/>
      </g>
     </g>
     <g id="text_7">
      <!-- $\mathdefault{0.00}$ -->
      <g transform="translate(26.838904 123.889395) scale(0.11 -0.11)">
       <defs>
        <path id="CMMI12-3a" d="M 1178 307 
C 1178 492 1024 619 870 619 
C 685 619 557 466 557 313 
C 557 128 710 0 864 0 
C 1050 0 1178 153 1178 307 
z
" transform="scale(0.015625)"/>
       </defs>
       <use xlink:href="#CMR17-30" transform="scale(0.996264)"/>
       <use xlink:href="#CMMI12-3a" transform="translate(45.690477 0) scale(0.996264)"/>
       <use xlink:href="#CMR17-30" transform="translate(72.787654 0) scale(0.996264)"/>
       <use xlink:href="#CMR17-30" transform="translate(118.478131 0) scale(0.996264)"/>
      </g>
     </g>
    </g>
    <g id="ytick_2">
     <g id="line2d_7">
      <g>
       <use xlink:href="#m1529d73a6d" x="53.321448" y="94.321308" style="stroke: #000000; stroke-width: 0.8"/>
      </g>
     </g>
     <g id="text_8">
      <!-- $\mathdefault{0.25}$ -->
      <g transform="translate(26.838904 98.126482) scale(0.11 -0.11)">
       <defs>
        <path id="CMR17-35" d="M 730 3692 
C 794 3666 1056 3584 1325 3584 
C 1920 3584 2246 3911 2432 4100 
C 2432 4157 2432 4192 2394 4192 
C 2387 4192 2374 4192 2323 4163 
C 2099 4058 1837 3973 1517 3973 
C 1325 3973 1037 3999 723 4139 
C 653 4171 640 4171 634 4171 
C 602 4171 595 4164 595 4037 
L 595 2203 
C 595 2089 595 2057 659 2057 
C 691 2057 704 2070 736 2114 
C 941 2401 1222 2522 1542 2522 
C 1766 2522 2246 2382 2246 1289 
C 2246 1085 2246 715 2054 421 
C 1894 159 1645 25 1370 25 
C 947 25 518 320 403 814 
C 429 807 480 795 506 795 
C 589 795 749 840 749 1038 
C 749 1210 627 1280 506 1280 
C 358 1280 262 1190 262 1011 
C 262 454 704 -128 1382 -128 
C 2042 -128 2669 440 2669 1264 
C 2669 2030 2170 2624 1549 2624 
C 1222 2624 947 2503 730 2274 
L 730 3692 
z
" transform="scale(0.015625)"/>
       </defs>
       <use xlink:href="#CMR17-30" transform="scale(0.996264)"/>
       <use xlink:href="#CMMI12-3a" transform="translate(45.690477 0) scale(0.996264)"/>
       <use xlink:href="#CMR17-32" transform="translate(72.787654 0) scale(0.996264)"/>
       <use xlink:href="#CMR17-35" transform="translate(118.478131 0) scale(0.996264)"/>
      </g>
     </g>
    </g>
    <g id="ytick_3">
     <g id="line2d_8">
      <g>
       <use xlink:href="#m1529d73a6d" x="53.321448" y="68.558395" style="stroke: #000000; stroke-width: 0.8"/>
      </g>
     </g>
     <g id="text_9">
      <!-- $\mathdefault{0.50}$ -->
      <g transform="translate(26.838904 72.363569) scale(0.11 -0.11)">
       <use xlink:href="#CMR17-30" transform="scale(0.996264)"/>
       <use xlink:href="#CMMI12-3a" transform="translate(45.690477 0) scale(0.996264)"/>
       <use xlink:href="#CMR17-35" transform="translate(72.787654 0) scale(0.996264)"/>
       <use xlink:href="#CMR17-30" transform="translate(118.478131 0) scale(0.996264)"/>
      </g>
     </g>
    </g>
    <g id="ytick_4">
     <g id="line2d_9">
      <g>
       <use xlink:href="#m1529d73a6d" x="53.321448" y="42.795482" style="stroke: #000000; stroke-width: 0.8"/>
      </g>
     </g>
     <g id="text_10">
      <!-- $\mathdefault{0.75}$ -->
      <g transform="translate(26.838904 46.600656) scale(0.11 -0.11)">
       <defs>
        <path id="CMR17-37" d="M 2886 3941 
L 2886 4081 
L 1382 4081 
C 634 4081 621 4165 595 4288 
L 480 4288 
L 294 3094 
L 410 3094 
C 429 3215 474 3540 550 3661 
C 589 3712 1062 3712 1171 3712 
L 2579 3712 
L 1869 2661 
C 1395 1954 1069 999 1069 165 
C 1069 89 1069 -128 1299 -128 
C 1530 -128 1530 89 1530 171 
L 1530 465 
C 1530 1508 1709 2196 2003 2636 
L 2886 3941 
z
" transform="scale(0.015625)"/>
       </defs>
       <use xlink:href="#CMR17-30" transform="scale(0.996264)"/>
       <use xlink:href="#CMMI12-3a" transform="translate(45.690477 0) scale(0.996264)"/>
       <use xlink:href="#CMR17-37" transform="translate(72.787654 0) scale(0.996264)"/>
       <use xlink:href="#CMR17-35" transform="translate(118.478131 0) scale(0.996264)"/>
      </g>
     </g>
    </g>
    <g id="ytick_5">
     <g id="line2d_10">
      <g>
       <use xlink:href="#m1529d73a6d" x="53.321448" y="17.032569" style="stroke: #000000; stroke-width: 0.8"/>
      </g>
     </g>
     <g id="text_11">
      <!-- $\mathdefault{1.00}$ -->
      <g transform="translate(26.838904 20.837743) scale(0.11 -0.11)">
       <use xlink:href="#CMR17-31" transform="scale(0.996264)"/>
       <use xlink:href="#CMMI12-3a" transform="translate(45.690477 0) scale(0.996264)"/>
       <use xlink:href="#CMR17-30" transform="translate(72.787654 0) scale(0.996264)"/>
       <use xlink:href="#CMR17-30" transform="translate(118.478131 0) scale(0.996264)"/>
      </g>
     </g>
    </g>
    <g id="text_12">
     <!-- Infidelity, $\mathcal{L}(\bm{\theta})$ -->
     <g transform="translate(20.099178 104.206064) rotate(-90) scale(0.11 -0.11)">
      <defs>
       <path id="CMR17-49" d="M 1261 3905 
C 1261 4192 1338 4192 1798 4192 
L 1798 4352 
C 1594 4352 1267 4352 1050 4352 
C 832 4352 506 4352 301 4352 
L 301 4192 
C 762 4192 838 4192 838 3905 
L 838 447 
C 838 160 762 160 301 160 
L 301 0 
C 506 0 832 0 1050 0 
C 1267 0 1594 0 1798 0 
L 1798 160 
C 1338 160 1261 160 1261 447 
L 1261 3905 
z
" transform="scale(0.015625)"/>
       <path id="CMR17-6e" d="M 2656 1933 
C 2656 2259 2592 2790 1837 2790 
C 1331 2790 1069 2400 973 2144 
L 966 2144 
L 966 2790 
L 211 2720 
L 211 2554 
C 589 2554 646 2515 646 2208 
L 646 428 
C 646 184 621 153 211 153 
L 211 -13 
C 365 0 646 0 813 0 
C 979 0 1267 0 1421 -13 
L 1421 153 
C 1011 153 986 178 986 428 
L 986 1658 
C 986 2247 1344 2688 1792 2688 
C 2266 2688 2317 2266 2317 1958 
L 2317 428 
C 2317 184 2291 153 1882 153 
L 1882 -13 
C 2035 0 2317 0 2483 0 
C 2650 0 2938 0 3091 -13 
L 3091 153 
C 2682 153 2656 178 2656 428 
L 2656 1933 
z
" transform="scale(0.015625)"/>
       <path id="CMR17-c" d="M 2554 2764 
C 2400 2764 1926 2764 1805 2739 
C 1766 2725 1754 2725 1677 2725 
L 947 2725 
L 947 3469 
C 947 4073 1434 4352 1818 4352 
C 1939 4352 2214 4320 2355 4101 
C 2291 4101 2086 4101 2086 3878 
C 2086 3725 2189 3648 2317 3648 
C 2432 3648 2547 3712 2547 3885 
C 2547 4205 2240 4454 1843 4454 
C 1338 4454 634 4168 634 3469 
L 634 2725 
L 122 2725 
L 122 2560 
L 634 2560 
L 634 427 
C 634 184 608 153 198 153 
L 198 -13 
C 352 0 634 0 794 0 
C 960 0 1242 0 1395 -13 
L 1395 153 
C 986 153 960 178 960 427 
L 960 2560 
L 1901 2560 
C 2176 2560 2227 2502 2227 2222 
L 2227 427 
C 2227 184 2202 153 1792 153 
L 1792 -13 
C 1946 0 2227 0 2387 0 
C 2554 0 2835 0 2989 -13 
L 2989 153 
C 2579 153 2554 178 2554 427 
L 2554 2764 
z
" transform="scale(0.015625)"/>
       <path id="CMR17-6c" d="M 979 4396 
L 218 4326 
L 218 4160 
C 595 4160 653 4122 653 3817 
L 653 426 
C 653 184 627 153 218 153 
L 218 -13 
C 371 0 653 0 813 0 
C 979 0 1261 0 1414 -13 
L 1414 153 
C 1005 153 979 178 979 426 
L 979 4396 
z
" transform="scale(0.015625)"/>
       <path id="CMR17-79" d="M 2496 2197 
C 2656 2586 2944 2586 3034 2586 
L 3034 2752 
C 2912 2752 2752 2752 2630 2752 
C 2496 2752 2285 2752 2157 2758 
L 2157 2592 
C 2400 2573 2406 2394 2406 2343 
C 2406 2280 2394 2248 2362 2171 
L 1664 449 
L 902 2306 
C 870 2382 870 2426 870 2433 
C 870 2573 1018 2586 1171 2586 
L 1171 2758 
C 1018 2752 742 2752 582 2752 
C 410 2752 205 2752 64 2758 
L 64 2586 
C 410 2586 448 2554 531 2350 
L 1485 15 
C 1197 -738 1030 -1178 627 -1178 
C 557 -1178 397 -1159 282 -1044 
C 429 -1031 493 -942 493 -833 
C 493 -725 416 -629 288 -629 
C 147 -629 77 -725 77 -840 
C 77 -1095 339 -1280 627 -1280 
C 998 -1280 1229 -922 1357 -604 
L 2496 2197 
z
" transform="scale(0.015625)"/>
       <path id="CMSY10-4c" d="M 1152 610 
C 1498 1151 1606 1562 1690 1903 
C 1914 2790 2157 3562 2554 4005 
C 2630 4090 2682 4147 2886 4147 
C 3328 4147 3341 3704 3341 3613 
C 3341 3498 3309 3407 3309 3375 
C 3309 3330 3347 3330 3354 3330 
C 3456 3330 3629 3401 3789 3517 
C 3904 3607 3962 3671 3962 3934 
C 3962 4281 3782 4544 3424 4544 
C 3219 4544 2656 4493 2029 3856 
C 1517 3329 1216 2172 1094 1690 
C 979 1248 928 1048 736 662 
C 691 586 525 303 435 219 
C 262 59 198 -57 198 -89 
C 198 -102 211 -128 256 -128 
C 282 -128 416 -102 582 5 
C 691 68 704 80 851 231 
C 1171 231 1395 173 1798 58 
C 2125 -32 2451 -128 2778 -128 
C 3296 -128 3821 264 4026 546 
C 4154 719 4192 880 4192 899 
C 4192 944 4154 944 4147 944 
C 4045 944 3891 874 3782 796 
C 3610 687 3597 649 3558 539 
C 3526 436 3488 385 3462 346 
C 3411 269 3405 269 3309 269 
C 3002 269 2682 366 2259 481 
C 2080 532 1728 636 1408 636 
C 1325 636 1235 629 1152 610 
z
" transform="scale(0.015625)"/>
       <path id="CMR17-28" d="M 1958 -1561 
C 1958 -1555 1958 -1542 1939 -1523 
C 1645 -1224 858 -407 858 1581 
C 858 3569 1632 4379 1946 4697 
C 1946 4704 1958 4717 1958 4736 
C 1958 4755 1939 4768 1914 4768 
C 1843 4768 1299 4296 986 3594 
C 666 2887 576 2199 576 1588 
C 576 1128 621 351 1005 -471 
C 1312 -1135 1837 -1600 1914 -1600 
C 1946 -1600 1958 -1587 1958 -1561 
z
" transform="scale(0.015625)"/>
       <path id="CMR17-29" d="M 1683 1581 
C 1683 2040 1638 2817 1254 3639 
C 947 4303 422 4768 346 4768 
C 326 4768 301 4761 301 4729 
C 301 4717 307 4710 314 4697 
C 621 4378 1402 3568 1402 1584 
C 1402 -407 627 -1217 314 -1537 
C 307 -1549 301 -1556 301 -1568 
C 301 -1600 326 -1600 346 -1600 
C 416 -1600 960 -1128 1274 -426 
C 1594 281 1683 969 1683 1581 
z
" transform="scale(0.015625)"/>
      </defs>
      <use xlink:href="#CMR17-49" transform="scale(0.996264)"/>
      <use xlink:href="#CMR17-6e" transform="translate(32.638409 0) scale(0.996264)"/>
      <use xlink:href="#CMR17-c" transform="translate(83.533779 0) scale(0.996264)"/>
      <use xlink:href="#CMR17-64" transform="translate(133.276002 0) scale(0.996264)"/>
      <use xlink:href="#CMR17-65" transform="translate(184.171372 0) scale(0.996264)"/>
      <use xlink:href="#CMR17-6c" transform="translate(224.657033 0) scale(0.996264)"/>
      <use xlink:href="#CMR17-69" transform="translate(249.528091 0) scale(0.996264)"/>
      <use xlink:href="#CMR17-74" transform="translate(274.39915 0) scale(0.996264)"/>
      <use xlink:href="#CMR17-79" transform="translate(307.077463 0) scale(0.996264)"/>
      <use xlink:href="#CMR17-2c" transform="translate(347.563124 0) scale(0.996264)"/>
      <use xlink:href="#CMSY10-4c" transform="translate(402.510149 0) scale(0.996264)"/>
      <use xlink:href="#CMR17-28" transform="translate(471.224957 0) scale(0.996264)"/>
      <use xlink:href="#CMMIB10-12" transform="translate(506.505724 0) scale(0.996264)"/>
      <use xlink:href="#CMR17-29" transform="translate(565.658611 0) scale(0.996264)"/>
     </g>
    </g>
   </g>
   <g id="line2d_11">
    <path d="M 61.905351 17.084177 
L 71.175967 17.03314 
L 86.626993 17.14975 
L 93.150759 17.412516 
L 106.198293 18.078566 
L 110.318566 17.872799 
L 117.872401 17.455629 
L 121.992675 17.395966 
L 123.709456 17.579159 
L 124.739524 17.859799 
L 125.769592 18.348965 
L 126.799661 19.12944 
L 127.829729 20.295412 
L 128.859798 21.947628 
L 129.889866 24.186796 
L 130.919934 27.105556 
L 131.950003 30.779584 
L 132.980071 35.25852 
L 134.353496 42.502889 
L 135.72692 51.119658 
L 137.443701 63.458972 
L 142.594043 102.177139 
L 143.967468 110.112032 
L 144.997536 114.713235 
L 145.684248 117.038141 
L 146.370961 118.723479 
L 147.057673 119.743353 
L 147.401029 119.999018 
L 147.744385 120.084221 
L 148.087741 119.999241 
L 148.431097 119.745139 
L 149.11781 118.73765 
L 149.804522 117.085317 
L 150.491234 114.82294 
L 151.521303 110.386303 
L 152.551371 104.867503 
L 153.924796 96.208721 
L 156.328288 79.087595 
L 159.075138 59.682839 
L 160.791918 49.099052 
L 162.165343 41.914665 
L 163.538767 36.000659 
L 164.568836 32.412704 
L 165.598904 29.530948 
L 166.628973 27.318866 
L 167.659041 25.729875 
L 168.345753 24.9917 
L 169.032466 24.493014 
L 169.719178 24.219749 
L 170.40589 24.159161 
L 171.092602 24.300212 
L 171.779315 24.633845 
L 172.466027 25.153151 
L 173.496095 26.270562 
L 174.526164 27.788829 
L 175.556232 29.710819 
L 176.586301 32.04698 
L 177.959725 35.83246 
L 179.33315 40.418279 
L 180.706574 45.82815 
L 182.079999 52.055181 
L 183.796779 60.901156 
L 185.856916 72.740712 
L 190.663902 101.046635 
L 192.037327 107.779349 
L 193.067395 112.005182 
L 194.097463 115.365021 
L 194.784176 117.06219 
L 195.470888 118.289394 
L 196.1576 119.022684 
L 196.500956 119.198442 
L 196.844313 119.244804 
L 197.187669 119.16074 
L 197.874381 118.599596 
L 198.561093 117.516354 
L 199.247806 115.920114 
L 199.934518 113.827648 
L 200.964586 109.813347 
L 201.994655 104.848992 
L 203.368079 96.998797 
L 205.08486 85.774829 
L 210.235202 50.840283 
L 211.951983 41.202173 
L 213.325407 34.749537 
L 214.698832 29.496614 
L 215.7289 26.336588 
L 216.758968 23.808504 
L 217.789037 21.859899 
L 218.819105 20.425504 
L 219.849174 19.432334 
L 220.879242 18.804451 
L 221.909311 18.467095 
L 222.939379 18.350044 
L 224.312803 18.428599 
L 226.37294 18.804714 
L 230.149858 19.508715 
L 232.553351 19.688857 
L 233.583419 19.691112 
L 233.583419 19.691112 
" clip-path="url(#pa9f73e8848)" style="fill: none; stroke-dasharray: 9.6,2.4,1.5,2.4; stroke-dashoffset: 0; stroke: #4b2362; stroke-width: 1.5"/>
   </g>
   <g id="line2d_12">
    <path d="M 61.905351 17.071575 
L 72.892747 17.035279 
L 86.626993 17.162964 
L 93.837472 17.451654 
L 104.138156 17.928703 
L 107.915073 17.804014 
L 118.90247 17.240964 
L 121.992675 17.30373 
L 123.366099 17.498793 
L 124.739524 17.936549 
L 125.769592 18.517089 
L 126.799661 19.403518 
L 127.829729 20.687472 
L 128.859798 22.465523 
L 129.889866 24.832672 
L 130.919934 27.874584 
L 131.950003 31.659123 
L 132.980071 36.227838 
L 134.353496 43.546442 
L 135.72692 52.171816 
L 137.443701 64.416109 
L 142.250687 100.066524 
L 143.624111 108.140916 
L 144.65418 112.934903 
L 145.340892 115.427868 
L 146.027604 117.310016 
L 146.714317 118.552116 
L 147.057673 118.927199 
L 147.401029 119.136634 
L 147.744385 119.180116 
L 148.087741 119.0581 
L 148.431097 118.77179 
L 149.11781 117.714787 
L 149.804522 116.033174 
L 150.491234 113.761733 
L 151.521303 109.348177 
L 152.551371 103.893127 
L 153.924796 95.372974 
L 156.328288 78.594083 
L 159.075138 59.62859 
L 160.791918 49.293979 
L 162.165343 42.279393 
L 163.538767 36.504432 
L 164.568836 33.000426 
L 165.598904 30.186395 
L 166.628973 28.027755 
L 167.659041 26.48042 
L 168.345753 25.764866 
L 169.032466 25.285719 
L 169.719178 25.029819 
L 170.40589 24.985326 
L 171.092602 25.142083 
L 171.779315 25.491885 
L 172.466027 26.028629 
L 173.496095 27.176208 
L 174.526164 28.731445 
L 175.556232 30.699091 
L 176.586301 33.091018 
L 177.959725 36.968017 
L 179.33315 41.66512 
L 180.706574 47.203913 
L 182.079999 53.57256 
L 183.796779 62.60092 
L 186.200272 76.724311 
L 189.97719 99.336161 
L 191.350614 106.482064 
L 192.724039 112.442781 
L 193.754107 115.919379 
L 194.44082 117.690543 
L 195.127532 118.986917 
L 195.814244 119.783198 
L 196.1576 119.987759 
L 196.500956 120.060953 
L 196.844313 120.00164 
L 197.187669 119.809166 
L 197.874381 119.024611 
L 198.561093 117.712053 
L 199.247806 115.884267 
L 200.277874 112.223677 
L 201.307942 107.552459 
L 202.681367 99.987295 
L 204.398148 88.940351 
L 210.578558 47.2995 
L 211.951983 39.942609 
L 213.325407 33.753114 
L 214.698832 28.774112 
L 215.7289 25.812093 
L 216.758968 23.466159 
L 217.789037 21.677301 
L 218.819105 20.375747 
L 219.849174 19.486076 
L 220.879242 18.931849 
L 221.909311 18.639509 
L 223.282735 18.54131 
L 224.999516 18.698611 
L 230.83657 19.494118 
L 233.240063 19.524308 
L 233.583419 19.51275 
L 233.583419 19.51275 
" clip-path="url(#pa9f73e8848)" style="fill: none; stroke: #562666; stroke-opacity: 0.5; stroke-linecap: square"/>
   </g>
   <g id="line2d_13">
    <path d="M 61.905351 17.04588 
L 70.145898 17.091097 
L 90.060554 17.543651 
L 101.734663 17.881023 
L 106.198293 17.720179 
L 118.90247 17.055967 
L 120.962606 17.223655 
L 122.336031 17.53969 
L 123.366099 17.952904 
L 124.396168 18.577058 
L 125.426236 19.47561 
L 126.456305 20.718652 
L 127.486373 22.379705 
L 128.516441 24.53147 
L 129.54651 27.240713 
L 130.576578 30.562569 
L 131.606647 34.534665 
L 132.980071 40.8634 
L 134.353496 48.326013 
L 136.070276 59.015639 
L 138.817126 77.936705 
L 141.220618 94.072593 
L 142.594043 102.082966 
L 143.624111 107.16035 
L 144.65418 111.255056 
L 145.340892 113.371856 
L 146.027604 114.962129 
L 146.714317 116.004219 
L 147.401029 116.48527 
L 147.744385 116.513857 
L 148.087741 116.401461 
L 148.431097 116.149017 
L 149.11781 115.230488 
L 149.804522 113.776603 
L 150.491234 111.813831 
L 151.521303 107.991474 
L 152.551371 103.242965 
L 153.924796 95.761217 
L 155.984932 82.97072 
L 159.76185 59.077636 
L 161.478631 49.666446 
L 162.852055 43.233194 
L 164.22548 37.896353 
L 165.255548 34.636863 
L 166.285616 32.008013 
L 167.315685 29.988494 
L 168.345753 28.547283 
L 169.032466 27.88987 
L 169.719178 27.462021 
L 170.40589 27.252617 
L 171.092602 27.251124 
L 171.779315 27.44792 
L 172.466027 27.834556 
L 173.496095 28.755337 
L 174.526164 30.069875 
L 175.556232 31.76778 
L 176.586301 33.845287 
L 177.959725 37.208657 
L 179.33315 41.260215 
L 180.706574 46.009027 
L 182.423355 52.916137 
L 184.140136 60.834303 
L 186.200272 71.431906 
L 192.380683 104.338728 
L 193.754107 110.188894 
L 194.784176 113.828781 
L 195.814244 116.704813 
L 196.500956 118.150628 
L 197.187669 119.191767 
L 197.874381 119.809724 
L 198.561093 119.990937 
L 199.247806 119.72714 
L 199.934518 119.015608 
L 200.62123 117.859305 
L 201.307942 116.266908 
L 202.338011 113.093443 
L 203.368079 109.043164 
L 204.741504 102.447551 
L 206.458284 92.690654 
L 208.861777 77.390213 
L 212.295339 55.584375 
L 214.012119 45.977197 
L 215.385544 39.278582 
L 216.758968 33.571519 
L 218.132393 28.887964 
L 219.162461 26.031427 
L 220.19253 23.704135 
L 221.222598 21.862716 
L 222.252667 20.455068 
L 223.282735 19.423831 
L 224.312803 18.709618 
L 225.342872 18.253827 
L 226.716296 17.952832 
L 228.089721 17.895507 
L 230.149858 18.057937 
L 233.583419 18.459946 
L 233.583419 18.459946 
" clip-path="url(#pa9f73e8848)" style="fill: none; stroke: #62296a; stroke-opacity: 0.5; stroke-linecap: square"/>
   </g>
   <g id="line2d_14">
    <path d="M 61.905351 17.045994 
L 70.832611 17.131741 
L 106.198293 17.58136 
L 117.872401 17.313834 
L 119.932538 17.534525 
L 121.305963 17.861499 
L 122.679387 18.422442 
L 123.709456 19.058453 
L 124.739524 19.936378 
L 125.769592 21.113972 
L 126.799661 22.652253 
L 127.829729 24.612372 
L 128.859798 27.051733 
L 129.889866 30.019557 
L 130.919934 33.552153 
L 132.293359 39.17007 
L 133.666783 45.804978 
L 135.383564 55.367617 
L 137.787057 70.367214 
L 140.877262 89.772386 
L 142.594043 99.049691 
L 143.624111 103.667214 
L 144.65418 107.392757 
L 145.340892 109.321941 
L 146.027604 110.775519 
L 146.714317 111.734055 
L 147.401029 112.185688 
L 147.744385 112.219841 
L 148.087741 112.12636 
L 148.774453 111.559859 
L 149.461166 110.497682 
L 150.147878 108.958716 
L 151.177946 105.814446 
L 152.208015 101.769625 
L 153.581439 95.217735 
L 155.29822 85.701974 
L 160.791918 53.883274 
L 162.508699 45.785716 
L 163.882123 40.40751 
L 164.912192 37.064577 
L 165.94226 34.321874 
L 166.972329 32.169915 
L 168.002397 30.587606 
L 168.689109 29.835159 
L 169.375822 29.313445 
L 170.062534 29.012422 
L 170.749246 28.922108 
L 171.435958 29.032947 
L 172.122671 29.336101 
L 172.809383 29.823691 
L 173.839451 30.886436 
L 174.86952 32.331593 
L 175.899588 34.147709 
L 177.273013 37.136665 
L 178.646437 40.771931 
L 180.019862 45.055456 
L 181.393286 49.984206 
L 183.110067 57.021325 
L 185.170204 66.612253 
L 187.917053 80.744716 
L 191.693971 100.16542 
L 193.410751 107.762651 
L 194.784176 112.787168 
L 195.814244 115.778429 
L 196.844313 118.003146 
L 197.531025 119.023632 
L 198.217737 119.653741 
L 198.904449 119.880887 
L 199.591162 119.69705 
L 200.277874 119.098994 
L 200.964586 118.088393 
L 201.651298 116.67187 
L 202.681367 113.812468 
L 203.711435 110.125367 
L 205.08486 104.063742 
L 206.458284 96.917967 
L 208.518421 84.799093 
L 214.012119 51.559838 
L 215.7289 42.821886 
L 217.102325 36.793017 
L 218.475749 31.687101 
L 219.849174 27.507998 
L 220.879242 24.957289 
L 221.909311 22.871971 
L 222.939379 21.211001 
L 223.969447 19.927452 
L 224.999516 18.971217 
L 226.029584 18.291456 
L 227.059653 17.838669 
L 228.433077 17.508239 
L 230.149858 17.399005 
L 232.553351 17.545218 
L 233.583419 17.648744 
L 233.583419 17.648744 
" clip-path="url(#pa9f73e8848)" style="fill: none; stroke: #6e2c6d; stroke-opacity: 0.5; stroke-linecap: square"/>
   </g>
   <g id="line2d_15">
    <path d="M 61.905351 17.05529 
L 75.29624 17.139899 
L 117.185689 17.574168 
L 119.245826 17.846388 
L 120.962606 18.289061 
L 122.336031 18.871917 
L 123.709456 19.750516 
L 124.739524 20.666348 
L 125.769592 21.857652 
L 126.799661 23.377336 
L 127.829729 25.278477 
L 128.859798 27.611024 
L 129.889866 30.417983 
L 131.263291 34.951615 
L 132.636715 40.415286 
L 134.01014 46.776803 
L 135.72692 55.819825 
L 138.473769 71.814082 
L 141.220618 87.448967 
L 142.594043 94.190664 
L 143.624111 98.4718 
L 144.65418 101.938203 
L 145.684248 104.480578 
L 146.370961 105.621608 
L 147.057673 106.30077 
L 147.744385 106.509897 
L 148.087741 106.437621 
L 148.774453 105.94219 
L 149.461166 104.987846 
L 150.147878 103.591285 
L 150.83459 101.775661 
L 151.864659 98.331473 
L 152.894727 94.130176 
L 154.268152 87.593723 
L 156.328288 76.533909 
L 160.105206 56.055479 
L 161.821987 48.042427 
L 163.195411 42.596575 
L 164.568836 38.118906 
L 165.598904 35.420495 
L 166.628973 33.285742 
L 167.659041 31.69941 
L 168.689109 30.637599 
L 169.375822 30.206905 
L 170.062534 29.987301 
L 170.749246 29.969653 
L 171.435958 30.145207 
L 172.122671 30.505871 
L 173.152739 31.37848 
L 174.182808 32.631847 
L 175.212876 34.252016 
L 176.242944 36.230691 
L 177.616369 39.421091 
L 178.989793 43.243077 
L 180.363218 47.698524 
L 182.079999 54.147016 
L 183.796779 61.516161 
L 185.856916 71.38018 
L 192.724039 105.59444 
L 194.097463 110.947001 
L 195.127532 114.255205 
L 196.1576 116.851057 
L 196.844313 118.14508 
L 197.531025 119.066269 
L 198.217737 119.5988 
L 198.904449 119.731151 
L 199.591162 119.456381 
L 200.277874 118.772316 
L 200.964586 117.681656 
L 201.651298 116.191991 
L 202.681367 113.237748 
L 203.711435 109.475842 
L 205.08486 103.348678 
L 206.458284 96.178167 
L 208.518421 84.096092 
L 213.668763 53.104382 
L 215.385544 44.264407 
L 216.758968 38.111975 
L 218.132393 32.853131 
L 219.505818 28.499916 
L 220.879242 25.017399 
L 221.909311 22.934854 
L 222.939379 21.262172 
L 223.969447 19.953986 
L 224.999516 18.962241 
L 226.029584 18.23849 
L 227.059653 17.735814 
L 228.433077 17.334217 
L 229.806502 17.155856 
L 231.866638 17.143457 
L 233.583419 17.247507 
L 233.583419 17.247507 
" clip-path="url(#pa9f73e8848)" style="fill: none; stroke: #7a2e70; stroke-opacity: 0.5; stroke-linecap: square"/>
   </g>
   <g id="line2d_16">
    <path d="M 61.905351 17.048805 
L 91.090623 17.139242 
L 114.43884 17.502857 
L 117.529045 17.792507 
L 119.589182 18.192691 
L 121.305963 18.759038 
L 122.679387 19.445772 
L 124.052812 20.423572 
L 125.08288 21.403639 
L 126.112948 22.643704 
L 127.143017 24.189836 
L 128.173085 26.087906 
L 129.203154 28.380664 
L 130.576578 32.112812 
L 131.950003 36.665444 
L 133.323427 42.045919 
L 135.040208 49.845731 
L 137.100345 60.408953 
L 141.563975 83.762129 
L 142.937399 89.707466 
L 143.967468 93.40916 
L 144.997536 96.32773 
L 145.684248 97.790462 
L 146.370961 98.841489 
L 147.057673 99.466155 
L 147.744385 99.656453 
L 148.431097 99.411189 
L 149.11781 98.735982 
L 149.804522 97.643108 
L 150.491234 96.151167 
L 151.521303 93.219971 
L 152.551371 89.551155 
L 153.924796 83.730324 
L 155.984932 73.696243 
L 160.105206 53.146178 
L 161.821987 45.837484 
L 163.195411 40.8928 
L 164.568836 36.846858 
L 165.598904 34.421437 
L 166.628973 32.513749 
L 167.659041 31.107738 
L 168.689109 30.179772 
L 169.375822 29.813063 
L 170.062534 29.637896 
L 170.749246 29.645865 
L 171.435958 29.829079 
L 172.122671 30.180434 
L 173.152739 31.009709 
L 174.182808 32.188255 
L 175.212876 33.706809 
L 176.242944 35.562256 
L 177.616369 38.564531 
L 178.989793 42.184492 
L 180.363218 46.439417 
L 181.736643 51.338555 
L 183.453423 58.349907 
L 185.51356 67.934544 
L 188.260409 82.080267 
L 191.693971 99.77064 
L 193.410751 107.455745 
L 194.784176 112.54285 
L 195.814244 115.565048 
L 196.844313 117.799506 
L 197.531025 118.811938 
L 198.217737 119.420865 
L 198.904449 119.612833 
L 199.591162 119.379369 
L 200.277874 118.71722 
L 200.964586 117.628491 
L 201.651298 116.120682 
L 202.681367 113.102645 
L 203.711435 109.23637 
L 205.08486 102.917313 
L 206.458284 95.512395 
L 208.518421 83.049713 
L 213.325407 53.330271 
L 215.042188 44.215185 
L 216.415612 37.88918 
L 217.789037 32.506413 
L 219.162461 28.08016 
L 220.19253 25.366462 
L 221.222598 23.137833 
L 222.252667 21.35253 
L 223.282735 19.962156 
L 224.312803 18.914662 
L 225.342872 18.157046 
L 226.37294 17.637666 
L 227.746365 17.232654 
L 229.119789 17.063736 
L 231.179926 17.073699 
L 233.583419 17.250945 
L 233.583419 17.250945 
" clip-path="url(#pa9f73e8848)" style="fill: none; stroke: #863071; stroke-opacity: 0.5; stroke-linecap: square"/>
   </g>
   <g id="line2d_17">
    <path d="M 61.905351 17.08313 
L 95.897608 17.097308 
L 109.97521 17.29711 
L 114.782196 17.552594 
L 117.529045 17.891049 
L 119.589182 18.346924 
L 121.305963 18.949726 
L 122.679387 19.646818 
L 124.052812 20.604494 
L 125.426236 21.900414 
L 126.456305 23.14678 
L 127.486373 24.671512 
L 128.516441 26.513047 
L 129.889866 29.521649 
L 131.263291 33.221635 
L 132.636715 37.646105 
L 134.01014 42.781717 
L 135.72692 50.08673 
L 138.130413 61.419952 
L 141.220618 75.933803 
L 142.594043 81.532381 
L 143.967468 86.163242 
L 144.997536 88.837924 
L 145.684248 90.189059 
L 146.370961 91.170336 
L 147.057673 91.767304 
L 147.744385 91.97156 
L 148.431097 91.780951 
L 149.11781 91.199615 
L 149.804522 90.237869 
L 150.491234 88.911942 
L 151.521303 86.289135 
L 152.551371 82.990651 
L 153.924796 77.740307 
L 155.984932 68.669357 
L 160.105206 50.106696 
L 161.821987 43.540055 
L 163.195411 39.122321 
L 164.568836 35.534127 
L 165.598904 33.403383 
L 166.628973 31.747628 
L 167.659041 30.550973 
L 168.689109 29.790899 
L 169.375822 29.514026 
L 170.062534 29.411915 
L 170.749246 29.47709 
L 171.435958 29.702723 
L 172.466027 30.329407 
L 173.496095 31.289013 
L 174.526164 32.573015 
L 175.556232 34.179636 
L 176.929657 36.832035 
L 178.303081 40.089731 
L 179.676506 43.983189 
L 181.04993 48.539168 
L 182.423355 53.768358 
L 184.140136 61.220592 
L 186.200272 71.326481 
L 189.633834 89.684255 
L 192.037327 101.980935 
L 193.410751 108.093372 
L 194.784176 113.154172 
L 195.814244 116.087689 
L 196.500956 117.574258 
L 197.187669 118.655157 
L 197.874381 119.309506 
L 198.561093 119.521582 
L 198.904449 119.45837 
L 199.591162 118.989844 
L 200.277874 118.064784 
L 200.964586 116.688081 
L 201.651298 114.870749 
L 202.681367 111.357359 
L 203.711435 106.973355 
L 205.08486 99.961735 
L 206.801641 89.768475 
L 209.891846 69.552082 
L 212.295339 54.345898 
L 214.012119 44.721064 
L 215.385544 38.051299 
L 216.758968 32.403821 
L 218.132393 27.800457 
L 219.162461 25.010726 
L 220.19253 22.750666 
L 221.222598 20.972633 
L 222.252667 19.620993 
L 223.282735 18.635788 
L 224.312803 17.956061 
L 225.342872 17.522691 
L 226.716296 17.233762 
L 228.433077 17.179927 
L 230.83657 17.379226 
L 233.583419 17.66709 
L 233.583419 17.66709 
" clip-path="url(#pa9f73e8848)" style="fill: none; stroke: #923371; stroke-opacity: 0.5; stroke-linecap: square"/>
   </g>
   <g id="line2d_18">
    <path d="M 61.905351 17.18583 
L 96.584321 17.057509 
L 108.945142 17.209476 
L 114.095484 17.472573 
L 117.185689 17.842968 
L 119.245826 18.283462 
L 120.962606 18.846 
L 122.679387 19.668295 
L 124.052812 20.580535 
L 125.426236 21.786436 
L 126.799661 23.356989 
L 128.173085 25.367374 
L 129.54651 27.890493 
L 130.919934 30.987896 
L 132.293359 34.69865 
L 133.666783 39.027315 
L 135.383564 45.239332 
L 137.443701 53.586266 
L 141.563975 70.60646 
L 142.937399 75.408352 
L 143.967468 78.435101 
L 144.997536 80.855327 
L 145.684248 82.08979 
L 146.370961 82.997943 
L 147.057673 83.565599 
L 147.744385 83.783979 
L 148.431097 83.649944 
L 149.11781 83.166085 
L 149.804522 82.340666 
L 150.491234 81.187423 
L 151.521303 78.885445 
L 152.551371 75.972168 
L 153.924796 71.314949 
L 155.641576 64.645325 
L 160.105206 46.742433 
L 161.821987 40.943217 
L 163.195411 37.068998 
L 164.568836 33.951067 
L 165.598904 32.121426 
L 166.628973 30.721371 
L 167.659041 29.735202 
L 168.689109 29.141693 
L 169.375822 28.952573 
L 170.062534 28.920644 
L 171.092602 29.15379 
L 172.122671 29.708776 
L 173.152739 30.573768 
L 174.182808 31.743906 
L 175.212876 33.22161 
L 176.242944 35.016114 
L 177.616369 37.927788 
L 178.989793 41.473637 
L 180.363218 45.69844 
L 181.736643 50.634492 
L 183.453423 57.80992 
L 185.170204 66.022906 
L 187.573697 78.836454 
L 191.693971 101.210116 
L 193.067395 107.609767 
L 194.44082 112.909463 
L 195.470888 115.968521 
L 196.1576 117.505493 
L 196.844313 118.606107 
L 197.531025 119.246749 
L 197.874381 119.388814 
L 198.217737 119.40976 
L 198.561093 119.308393 
L 199.247806 118.736117 
L 199.934518 117.671186 
L 200.62123 116.119961 
L 201.307942 114.095949 
L 202.338011 110.220114 
L 203.368079 105.424858 
L 204.741504 97.822609 
L 206.458284 86.897037 
L 212.295339 48.210606 
L 214.012119 39.053208 
L 215.385544 32.965412 
L 216.758968 28.030088 
L 217.789037 25.066293 
L 218.819105 22.693828 
L 219.849174 20.859111 
L 220.879242 19.498188 
L 221.909311 18.54136 
L 222.939379 17.917418 
L 223.969447 17.557268 
L 225.342872 17.377615 
L 227.059653 17.455206 
L 233.583419 18.249935 
L 233.583419 18.249935 
" clip-path="url(#pa9f73e8848)" style="fill: none; stroke: #9e3770; stroke-opacity: 0.5; stroke-linecap: square"/>
   </g>
   <g id="line2d_19">
    <path d="M 61.905351 17.395707 
L 71.519323 17.184242 
L 82.163363 17.047066 
L 104.138156 17.073256 
L 111.348635 17.250748 
L 115.468908 17.556491 
L 118.215757 17.98541 
L 120.275894 18.530003 
L 121.992675 19.207017 
L 123.366099 19.94742 
L 124.739524 20.914069 
L 126.112948 22.159749 
L 127.486373 23.742234 
L 128.859798 25.720867 
L 130.233222 28.151004 
L 131.606647 31.076263 
L 132.980071 34.51907 
L 134.696852 39.533077 
L 136.756989 46.434246 
L 142.594043 66.839452 
L 143.967468 70.513038 
L 144.997536 72.679377 
L 146.027604 74.253962 
L 146.714317 74.945494 
L 147.401029 75.33628 
L 148.087741 75.419593 
L 148.774453 75.193777 
L 149.461166 74.662317 
L 150.147878 73.83378 
L 150.83459 72.721616 
L 151.864659 70.562103 
L 152.894727 67.883518 
L 154.268152 63.669146 
L 156.328288 56.490712 
L 159.76185 44.395928 
L 161.478631 39.181826 
L 162.852055 35.674047 
L 164.22548 32.835614 
L 165.255548 31.161651 
L 166.285616 29.873871 
L 167.315685 28.959269 
L 168.345753 28.399362 
L 169.375822 28.173464 
L 170.40589 28.261764 
L 171.435958 28.647996 
L 172.466027 29.321572 
L 173.496095 30.279024 
L 174.526164 31.524687 
L 175.556232 33.070588 
L 176.586301 34.935522 
L 177.959725 37.960074 
L 179.33315 41.657202 
L 180.706574 46.085005 
L 182.079999 51.282053 
L 183.453423 57.251662 
L 185.170204 65.723161 
L 187.230341 77.044824 
L 191.693971 102.116551 
L 193.067395 108.58874 
L 194.097463 112.640961 
L 195.127532 115.837313 
L 195.814244 117.426753 
L 196.500956 118.544102 
L 197.187669 119.162843 
L 197.531025 119.278832 
L 197.874381 119.263415 
L 198.217737 119.115336 
L 198.904449 118.418716 
L 199.591162 117.189211 
L 200.277874 115.435466 
L 200.964586 113.174506 
L 201.994655 108.889206 
L 203.024723 103.637798 
L 204.398148 95.396624 
L 206.458284 81.26368 
L 210.578558 52.389007 
L 212.295339 42.170948 
L 213.668763 35.285389 
L 215.042188 29.656635 
L 216.072256 26.26114 
L 217.102325 23.53946 
L 218.132393 21.437531 
L 219.162461 19.885978 
L 220.19253 18.805994 
L 221.222598 18.11489 
L 222.252667 17.730987 
L 223.282735 17.57761 
L 224.65616 17.614362 
L 227.059653 17.986807 
L 230.149858 18.451656 
L 232.553351 18.586748 
L 233.583419 18.581258 
L 233.583419 18.581258 
" clip-path="url(#pa9f73e8848)" style="fill: none; stroke: #aa3a6e; stroke-opacity: 0.5; stroke-linecap: square"/>
   </g>
   <g id="line2d_20">
    <path d="M 61.905351 17.444243 
L 70.145898 17.262082 
L 81.820007 17.058484 
L 101.391307 17.039393 
L 110.661922 17.180048 
L 115.125552 17.45614 
L 117.872401 17.829091 
L 119.932538 18.302532 
L 121.649319 18.887294 
L 123.366099 19.706541 
L 124.739524 20.576697 
L 126.112948 21.680845 
L 127.486373 23.062418 
L 128.859798 24.766254 
L 130.233222 26.835013 
L 131.606647 29.303734 
L 132.980071 32.19268 
L 134.696852 36.387752 
L 136.756989 42.166609 
L 142.937399 60.364272 
L 144.310824 63.393821 
L 145.340892 65.15114 
L 146.370961 66.393109 
L 147.057673 66.909978 
L 147.744385 67.166252 
L 148.431097 67.156708 
L 149.11781 66.880617 
L 149.804522 66.341811 
L 150.491234 65.548625 
L 151.521303 63.910689 
L 152.551371 61.789111 
L 153.924796 58.341881 
L 155.641576 53.34536 
L 160.448562 38.9391 
L 161.821987 35.545159 
L 163.195411 32.702067 
L 164.22548 30.962504 
L 165.255548 29.566775 
L 166.285616 28.509877 
L 167.315685 27.779332 
L 168.345753 27.358392 
L 169.375822 27.229251 
L 170.40589 27.37604 
L 171.435958 27.787411 
L 172.466027 28.458546 
L 173.496095 29.392479 
L 174.526164 30.600631 
L 175.556232 32.102527 
L 176.586301 33.924687 
L 177.959725 36.90745 
L 179.33315 40.596164 
L 180.706574 45.064245 
L 182.079999 50.361804 
L 183.453423 56.498072 
L 185.170204 65.267533 
L 187.230341 77.043391 
L 191.350614 101.176587 
L 192.724039 107.99898 
L 193.754107 112.270394 
L 194.784176 115.627503 
L 195.470888 117.283325 
L 196.1576 118.429669 
L 196.844313 119.037037 
L 197.187669 119.131579 
L 197.531025 119.084032 
L 197.874381 118.893115 
L 198.561093 118.079005 
L 199.247806 116.690996 
L 199.934518 114.740636 
L 200.964586 110.80979 
L 201.994655 105.774421 
L 203.368079 97.611828 
L 205.08486 85.732468 
L 210.235202 48.637663 
L 211.608626 40.515149 
L 212.982051 33.682008 
L 214.012119 29.456216 
L 215.042188 25.995024 
L 216.072256 23.259385 
L 217.102325 21.185953 
L 218.132393 19.694133 
L 219.162461 18.693206 
L 220.19253 18.088994 
L 221.222598 17.789636 
L 222.252667 17.710205 
L 223.626091 17.819085 
L 229.806502 18.613939 
L 232.209995 18.539465 
L 233.583419 18.414007 
L 233.583419 18.414007 
" clip-path="url(#pa9f73e8848)" style="fill: none; stroke: #b63d6b; stroke-opacity: 0.5; stroke-linecap: square"/>
   </g>
   <g id="line2d_21">
    <path d="M 61.905351 17.181433 
L 89.373842 17.040084 
L 109.631854 17.125442 
L 114.782196 17.372304 
L 117.872401 17.738809 
L 120.275894 18.259831 
L 122.336031 18.961705 
L 124.052812 19.790147 
L 125.769592 20.898182 
L 127.143017 22.025991 
L 128.516441 23.403154 
L 129.889866 25.061452 
L 131.263291 27.029177 
L 132.636715 29.32644 
L 134.353496 32.668382 
L 136.070276 36.495757 
L 138.473769 42.448808 
L 141.907331 51.036082 
L 143.624111 54.68078 
L 144.65418 56.462761 
L 145.684248 57.858867 
L 146.714317 58.813983 
L 147.401029 59.185063 
L 148.087741 59.33408 
L 148.774453 59.257074 
L 149.461166 58.95403 
L 150.147878 58.428941 
L 151.177946 57.243393 
L 152.208015 55.619513 
L 153.581439 52.877013 
L 155.29822 48.774348 
L 160.791918 34.962863 
L 162.165343 32.226138 
L 163.538767 29.982986 
L 164.568836 28.644494 
L 165.598904 27.601975 
L 166.628973 26.847608 
L 167.659041 26.368501 
L 168.689109 26.149809 
L 169.719178 26.177772 
L 170.749246 26.442454 
L 171.779315 26.940008 
L 172.809383 27.674321 
L 173.839451 28.657938 
L 174.86952 29.912197 
L 175.899588 31.466541 
L 176.929657 33.356986 
L 177.959725 35.623784 
L 179.33315 39.30286 
L 180.706574 43.813177 
L 182.079999 49.216866 
L 183.453423 55.529623 
L 185.170204 64.615526 
L 187.230341 76.874499 
L 191.350614 101.880513 
L 192.724039 108.794719 
L 193.754107 113.020617 
L 194.784176 116.218478 
L 195.470888 117.701001 
L 196.1576 118.619756 
L 196.500956 118.858556 
L 196.844313 118.946618 
L 197.187669 118.881973 
L 197.531025 118.663323 
L 198.217737 117.762238 
L 198.904449 116.246845 
L 199.591162 114.131913 
L 200.62123 109.894972 
L 201.651298 104.501329 
L 203.024723 95.824367 
L 204.741504 83.337131 
L 208.861777 52.388446 
L 210.578558 41.532 
L 211.951983 34.349612 
L 212.982051 29.916601 
L 214.012119 26.297773 
L 215.042188 23.451511 
L 216.072256 21.308444 
L 217.102325 19.779737 
L 218.132393 18.765425 
L 219.162461 18.162165 
L 220.19253 17.869874 
L 221.222598 17.796933 
L 222.939379 17.953217 
L 227.059653 18.492795 
L 229.119789 18.511909 
L 231.523282 18.316695 
L 233.583419 18.047026 
L 233.583419 18.047026 
" clip-path="url(#pa9f73e8848)" style="fill: none; stroke-dasharray: 9.6,2.4,1.5,2.4; stroke-dashoffset: 0; stroke: #c14168; stroke-width: 1.5"/>
   </g>
   <g id="line2d_22">
    <path d="M 61.905351 17.17692 
L 79.416514 17.108279 
L 108.945142 17.091159 
L 114.782196 17.305432 
L 117.872401 17.613707 
L 120.275894 18.059134 
L 122.336031 18.661884 
L 124.052812 19.371348 
L 125.769592 20.313344 
L 127.486373 21.531114 
L 129.203154 23.069011 
L 130.919934 24.969828 
L 132.636715 27.268015 
L 134.353496 29.977709 
L 136.413633 33.737347 
L 139.160482 39.350076 
L 142.250687 45.615927 
L 143.624111 48.006705 
L 144.997536 49.94761 
L 146.027604 51.027763 
L 147.057673 51.734912 
L 147.744385 51.982508 
L 148.431097 52.043704 
L 149.11781 51.915875 
L 149.804522 51.599816 
L 150.491234 51.099785 
L 151.521303 50.022433 
L 152.551371 48.588355 
L 153.924796 46.215238 
L 155.641576 42.731026 
L 160.448562 32.646202 
L 161.821987 30.303978 
L 163.195411 28.370377 
L 164.568836 26.877814 
L 165.598904 26.049933 
L 166.628973 25.464482 
L 167.659041 25.110522 
L 168.689109 24.976336 
L 169.719178 25.052262 
L 170.749246 25.333229 
L 171.779315 25.820843 
L 172.809383 26.524883 
L 173.839451 27.464117 
L 174.86952 28.666358 
L 175.899588 30.167713 
L 176.929657 32.011004 
L 177.959725 34.243338 
L 178.989793 36.912867 
L 180.363218 41.229436 
L 181.736643 46.48646 
L 183.110067 52.721889 
L 184.483492 59.905838 
L 186.200272 70.031318 
L 192.037327 106.082462 
L 193.067395 110.910334 
L 194.097463 114.725581 
L 194.784176 116.613414 
L 195.470888 117.922146 
L 196.1576 118.61532 
L 196.500956 118.72256 
L 196.844313 118.667128 
L 197.187669 118.447633 
L 197.874381 117.514818 
L 198.561093 115.928816 
L 199.247806 113.707144 
L 200.277874 109.25188 
L 201.307942 103.587724 
L 202.681367 94.5109 
L 204.741504 78.841899 
L 207.831709 54.956137 
L 209.54849 43.48036 
L 210.921914 35.827316 
L 211.951983 31.079717 
L 212.982051 27.188486 
L 214.012119 24.114809 
L 215.042188 21.787995 
L 216.072256 20.114908 
L 217.102325 18.989508 
L 218.132393 18.301675 
L 219.162461 17.944747 
L 220.19253 17.821354 
L 221.565954 17.876995 
L 227.059653 18.365417 
L 229.463145 18.23746 
L 233.583419 17.734961 
L 233.583419 17.734961 
" clip-path="url(#pa9f73e8848)" style="fill: none; stroke: #cc4663; stroke-opacity: 0.5; stroke-linecap: square"/>
   </g>
   <g id="line2d_23">
    <path d="M 61.905351 17.059843 
L 115.125552 17.239422 
L 118.559113 17.542353 
L 120.962606 17.959026 
L 123.022743 18.52224 
L 125.08288 19.334419 
L 126.799661 20.240966 
L 128.516441 21.389342 
L 130.233222 22.809491 
L 131.950003 24.528296 
L 133.666783 26.563675 
L 135.383564 28.914107 
L 137.443701 32.098349 
L 143.624111 41.996844 
L 144.997536 43.617537 
L 146.027604 44.537491 
L 147.057673 45.159661 
L 148.087741 45.454695 
L 148.774453 45.460703 
L 149.461166 45.311887 
L 150.491234 44.802005 
L 151.521303 43.964022 
L 152.551371 42.82862 
L 153.924796 40.927997 
L 155.641576 38.114547 
L 160.448562 29.936289 
L 161.821987 28.046616 
L 163.195411 26.496992 
L 164.568836 25.3138 
L 165.598904 24.6683 
L 166.628973 24.224005 
L 167.659041 23.97246 
L 168.689109 23.905362 
L 169.719178 24.017163 
L 170.749246 24.307399 
L 171.779315 24.782611 
L 172.809383 25.457725 
L 173.839451 26.356799 
L 174.86952 27.513053 
L 175.899588 28.96812 
L 176.929657 30.770463 
L 177.959725 32.972919 
L 178.989793 35.629352 
L 180.019862 38.79046 
L 181.393286 43.862029 
L 182.766711 49.965244 
L 184.140136 57.092565 
L 185.856916 67.281538 
L 188.603765 85.385961 
L 191.007258 100.76779 
L 192.380683 108.194939 
L 193.410751 112.679473 
L 194.097463 115.029748 
L 194.784176 116.802864 
L 195.470888 117.95274 
L 195.814244 118.282506 
L 196.1576 118.444205 
L 196.500956 118.435374 
L 196.844313 118.254385 
L 197.187669 117.900473 
L 197.874381 116.675208 
L 198.561093 114.771105 
L 199.247806 112.213772 
L 200.277874 107.242117 
L 201.307942 101.075556 
L 202.681367 91.407781 
L 205.08486 72.383746 
L 207.488353 53.759664 
L 209.205133 42.326086 
L 210.578558 34.800725 
L 211.608626 30.187884 
L 212.638695 26.450267 
L 213.668763 23.535483 
L 214.698832 21.360404 
L 215.7289 19.821747 
L 216.758968 18.806347 
L 217.789037 18.200271 
L 218.819105 17.896229 
L 220.19253 17.798194 
L 222.252667 17.958564 
L 225.342872 18.203749 
L 227.746365 18.162105 
L 231.179926 17.838713 
L 233.583419 17.572582 
L 233.583419 17.572582 
" clip-path="url(#pa9f73e8848)" style="fill: none; stroke: #d64f5f; stroke-opacity: 0.5; stroke-linecap: square"/>
   </g>
   <g id="line2d_24">
    <path d="M 61.905351 17.070525 
L 76.669665 17.109527 
L 98.301101 17.036219 
L 114.095484 17.129795 
L 118.215757 17.356436 
L 120.962606 17.713909 
L 123.366099 18.255943 
L 125.426236 18.947367 
L 127.486373 19.890598 
L 129.54651 21.12087 
L 131.263291 22.388 
L 132.980071 23.89051 
L 135.040208 26.011057 
L 137.100345 28.451846 
L 140.533906 32.946959 
L 142.937399 35.969042 
L 144.65418 37.764962 
L 146.027604 38.842197 
L 147.057673 39.385764 
L 148.087741 39.673094 
L 149.11781 39.687752 
L 150.147878 39.424493 
L 151.177946 38.890103 
L 152.208015 38.10338 
L 153.581439 36.71499 
L 155.29822 34.572882 
L 161.135274 26.838098 
L 162.508699 25.473816 
L 163.882123 24.400136 
L 165.255548 23.62845 
L 166.628973 23.153458 
L 168.002397 22.962347 
L 169.375822 23.044926 
L 170.749246 23.403405 
L 172.122671 24.060652 
L 173.152739 24.778226 
L 174.182808 25.722492 
L 175.212876 26.934 
L 176.242944 28.461364 
L 177.273013 30.359398 
L 178.303081 32.686335 
L 179.33315 35.500091 
L 180.363218 38.853583 
L 181.736643 44.235552 
L 183.110067 50.702241 
L 184.483492 58.226143 
L 186.200272 68.906854 
L 191.693971 104.83463 
L 192.724039 109.994548 
L 193.754107 114.053136 
L 194.44082 116.041484 
L 195.127532 117.394966 
L 195.814244 118.0739 
L 196.1576 118.151515 
L 196.500956 118.051549 
L 196.844313 117.77288 
L 197.531025 116.679634 
L 198.217737 114.881671 
L 198.904449 112.403982 
L 199.934518 107.503265 
L 200.964586 101.354484 
L 202.338011 91.64421 
L 204.741504 72.447015 
L 207.144997 53.65536 
L 208.518421 44.285318 
L 209.891846 36.360048 
L 210.921914 31.458191 
L 211.951983 27.453302 
L 212.982051 24.300023 
L 214.012119 21.918878 
L 215.042188 20.207466 
L 216.072256 19.051436 
L 217.102325 18.334299 
L 218.132393 17.945439 
L 219.162461 17.785977 
L 220.879242 17.810928 
L 226.029584 18.125397 
L 228.776433 17.989592 
L 233.583419 17.547347 
L 233.583419 17.547347 
" clip-path="url(#pa9f73e8848)" style="fill: none; stroke: #dd595c; stroke-opacity: 0.5; stroke-linecap: square"/>
   </g>
   <g id="line2d_25">
    <path d="M 61.905351 17.083193 
L 77.356377 17.242564 
L 94.524184 17.044112 
L 114.782196 17.102507 
L 118.90247 17.297629 
L 121.649319 17.616474 
L 124.052812 18.09903 
L 126.456305 18.828373 
L 128.516441 19.682017 
L 130.576578 20.767649 
L 132.636715 22.100447 
L 134.696852 23.688084 
L 137.100345 25.845094 
L 140.533906 29.299098 
L 143.280755 31.969061 
L 144.997536 33.340365 
L 146.370961 34.156035 
L 147.401029 34.561101 
L 148.431097 34.765936 
L 149.461166 34.757884 
L 150.491234 34.533215 
L 151.521303 34.097834 
L 152.894727 33.217721 
L 154.268152 32.052482 
L 156.328288 29.953737 
L 160.448562 25.657156 
L 162.165343 24.233874 
L 163.538767 23.346653 
L 164.912192 22.700952 
L 166.285616 22.297463 
L 167.659041 22.129798 
L 169.032466 22.193443 
L 170.40589 22.494831 
L 171.779315 23.059436 
L 172.809383 23.685039 
L 173.839451 24.518473 
L 174.86952 25.600797 
L 175.899588 26.981587 
L 176.929657 28.717416 
L 177.959725 30.869385 
L 178.989793 33.499644 
L 180.019862 36.666878 
L 181.04993 40.420838 
L 182.423355 46.395513 
L 183.796779 53.490398 
L 185.51356 63.803369 
L 187.917053 80.100064 
L 190.663902 98.689886 
L 192.037327 106.600346 
L 193.067395 111.41516 
L 194.097463 115.00457 
L 194.784176 116.617229 
L 195.470888 117.551662 
L 195.814244 117.754076 
L 196.1576 117.776142 
L 196.500956 117.616171 
L 196.844313 117.273441 
L 197.531025 116.041748 
L 198.217737 114.095064 
L 198.904449 111.463046 
L 199.934518 106.331383 
L 200.964586 99.967788 
L 202.338011 90.024208 
L 205.08486 67.852252 
L 207.144997 51.991419 
L 208.518421 42.821021 
L 209.891846 35.147254 
L 210.921914 30.448179 
L 211.951983 26.643493 
L 212.982051 23.676694 
L 214.012119 21.459941 
L 215.042188 19.885621 
L 216.072256 18.837293 
L 217.102325 18.199143 
L 218.132393 17.863412 
L 219.505818 17.725078 
L 221.565954 17.837102 
L 225.342872 18.077951 
L 228.089721 18.004179 
L 233.583419 17.573019 
L 233.583419 17.573019 
" clip-path="url(#pa9f73e8848)" style="fill: none; stroke: #e2655c; stroke-opacity: 0.5; stroke-linecap: square"/>
   </g>
   <g id="line2d_26">
    <path d="M 61.905351 17.089277 
L 78.386446 17.30719 
L 93.150759 17.052982 
L 114.782196 17.06988 
L 119.589182 17.247585 
L 122.679387 17.57557 
L 125.426236 18.102603 
L 127.829729 18.790735 
L 130.233222 19.713596 
L 132.636715 20.882411 
L 135.040208 22.300222 
L 137.787057 24.201995 
L 144.65418 29.2215 
L 146.370961 30.08218 
L 147.744385 30.515245 
L 149.11781 30.678566 
L 150.491234 30.551802 
L 151.864659 30.137036 
L 153.238083 29.460153 
L 154.954864 28.319917 
L 157.701713 26.129443 
L 160.448562 24.001792 
L 162.165343 22.9188 
L 163.882123 22.109402 
L 165.255548 21.677312 
L 166.628973 21.438955 
L 168.002397 21.39304 
L 169.375822 21.543593 
L 170.749246 21.908121 
L 172.122671 22.524822 
L 173.152739 23.190414 
L 174.182808 24.071079 
L 175.212876 25.213538 
L 176.242944 26.67266 
L 177.273013 28.509671 
L 178.303081 30.789344 
L 179.33315 33.576106 
L 180.363218 36.929061 
L 181.393286 40.896022 
L 182.766711 47.188462 
L 184.140136 54.620659 
L 185.856916 65.335349 
L 188.603765 84.439203 
L 190.663902 98.374637 
L 192.037327 106.336831 
L 193.067395 111.15634 
L 193.754107 113.68355 
L 194.44082 115.589239 
L 195.127532 116.823018 
L 195.470888 117.175679 
L 195.814244 117.347408 
L 196.1576 117.335796 
L 196.500956 117.139412 
L 196.844313 116.757826 
L 197.531025 115.442417 
L 198.217737 113.406468 
L 198.904449 110.682861 
L 199.934518 105.416901 
L 200.964586 98.93284 
L 202.338011 88.867709 
L 207.831709 46.228442 
L 209.205133 37.945141 
L 210.235202 32.772022 
L 211.26527 28.506805 
L 212.295339 25.112652 
L 213.325407 22.515724 
L 214.355476 20.616828 
L 215.385544 19.302879 
L 216.415612 18.457187 
L 217.445681 17.967878 
L 218.475749 17.734069 
L 219.849174 17.673537 
L 222.596023 17.883114 
L 225.686228 18.040588 
L 228.776433 17.943909 
L 233.583419 17.596074 
L 233.583419 17.596074 
" clip-path="url(#pa9f73e8848)" style="fill: none; stroke: #e5715e; stroke-opacity: 0.5; stroke-linecap: square"/>
   </g>
   <g id="line2d_27">
    <path d="M 61.905351 17.097147 
L 78.386446 17.317979 
L 93.150759 17.054829 
L 116.155621 17.065075 
L 120.962606 17.252154 
L 124.052812 17.580169 
L 126.799661 18.079001 
L 129.54651 18.803914 
L 132.293359 19.762972 
L 135.040208 20.951878 
L 138.130413 22.538108 
L 145.340892 26.392352 
L 147.057673 26.982847 
L 148.431097 27.258108 
L 149.804522 27.328879 
L 151.177946 27.183261 
L 152.551371 26.826813 
L 154.268152 26.122467 
L 156.328288 25.00848 
L 161.135274 22.270916 
L 163.195411 21.425662 
L 164.912192 20.968103 
L 166.628973 20.750382 
L 168.345753 20.779653 
L 169.719178 20.994827 
L 171.092602 21.409467 
L 172.466027 22.073391 
L 173.496095 22.779881 
L 174.526164 23.71192 
L 175.556232 24.92123 
L 176.586301 26.467241 
L 177.616369 28.414992 
L 178.646437 30.831952 
L 179.676506 33.78368 
L 180.706574 37.328374 
L 182.079999 43.050896 
L 183.453423 49.948165 
L 184.826848 57.967852 
L 186.543628 69.291235 
L 191.350614 102.118654 
L 192.380683 107.665635 
L 193.410751 112.090534 
L 194.097463 114.301611 
L 194.784176 115.854759 
L 195.470888 116.706423 
L 195.814244 116.859428 
L 196.1576 116.827236 
L 196.500956 116.60861 
L 196.844313 116.203337 
L 197.531025 114.837171 
L 198.217737 112.747716 
L 198.904449 109.970116 
L 199.934518 104.627364 
L 200.964586 98.078306 
L 202.338011 87.956097 
L 207.831709 45.5198 
L 209.205133 37.362416 
L 210.235202 32.286322 
L 211.26527 28.113835 
L 212.295339 24.803462 
L 213.325407 22.278171 
L 214.355476 20.43714 
L 215.385544 19.167127 
L 216.415612 18.352511 
L 217.445681 17.883368 
L 218.475749 17.661269 
L 219.849174 17.607653 
L 222.596023 17.820707 
L 225.686228 17.989824 
L 228.776433 17.916053 
L 233.583419 17.598304 
L 233.583419 17.598304 
" clip-path="url(#pa9f73e8848)" style="fill: none; stroke: #e77e63; stroke-opacity: 0.5; stroke-linecap: square"/>
   </g>
   <g id="line2d_28">
    <path d="M 61.905351 17.102258 
L 78.043089 17.28236 
L 93.150759 17.053268 
L 118.559113 17.084063 
L 122.679387 17.28405 
L 126.112948 17.670972 
L 129.203154 18.240623 
L 132.293359 19.026832 
L 135.72692 20.135719 
L 139.847194 21.732032 
L 144.997536 23.74835 
L 147.057673 24.32772 
L 148.774453 24.607767 
L 150.491234 24.659369 
L 152.208015 24.466884 
L 153.924796 24.046574 
L 155.984932 23.311218 
L 162.508699 20.783492 
L 164.568836 20.335101 
L 166.285616 20.164678 
L 168.002397 20.193344 
L 169.719178 20.447291 
L 171.092602 20.851238 
L 172.466027 21.490942 
L 173.496095 22.172943 
L 174.526164 23.07702 
L 175.556232 24.256658 
L 176.586301 25.773115 
L 177.616369 27.693326 
L 178.646437 30.086699 
L 179.676506 33.020708 
L 180.706574 36.555309 
L 181.736643 40.736346 
L 183.110067 47.354839 
L 184.483492 55.13736 
L 186.200272 66.268652 
L 191.693971 103.598407 
L 192.724039 108.800675 
L 193.754107 112.782311 
L 194.44082 114.650515 
L 195.127532 115.830248 
L 195.470888 116.150175 
L 195.814244 116.285727 
L 196.1576 116.234825 
L 196.500956 115.996411 
L 196.844313 115.570469 
L 197.531025 114.161179 
L 198.217737 112.027751 
L 198.904449 109.207256 
L 199.934518 103.806429 
L 200.964586 97.212259 
L 202.681367 84.355 
L 207.144997 49.445972 
L 208.518421 40.660315 
L 209.891846 33.410994 
L 210.921914 29.0269 
L 211.951983 25.51484 
L 212.982051 22.80541 
L 214.012119 20.802872 
L 215.042188 19.396716 
L 216.072256 18.472022 
L 217.102325 17.917946 
L 218.132393 17.633955 
L 219.505818 17.52863 
L 221.565954 17.650984 
L 225.686228 17.92201 
L 228.776433 17.867319 
L 233.583419 17.578549 
L 233.583419 17.578549 
" clip-path="url(#pa9f73e8848)" style="fill: none; stroke: #e98b6a; stroke-opacity: 0.5; stroke-linecap: square"/>
   </g>
   <g id="line2d_29">
    <path d="M 61.905351 17.09833 
L 77.356377 17.226498 
L 93.494116 17.050089 
L 120.962606 17.119179 
L 125.08288 17.373905 
L 128.859798 17.839153 
L 132.636715 18.538764 
L 136.756989 19.528407 
L 143.280755 21.375454 
L 146.714317 22.209593 
L 149.11781 22.544058 
L 151.177946 22.587441 
L 153.238083 22.384526 
L 155.641576 21.878183 
L 163.882123 19.81806 
L 165.94226 19.647372 
L 168.002397 19.70429 
L 169.719178 19.963513 
L 171.092602 20.354825 
L 172.466027 20.970841 
L 173.496095 21.629923 
L 174.526164 22.50829 
L 175.556232 23.660939 
L 176.586301 25.150706 
L 177.616369 27.046179 
L 178.646437 29.41845 
L 179.676506 32.336624 
L 180.706574 35.862114 
L 181.736643 40.041881 
L 183.110067 46.67182 
L 184.483492 54.480181 
L 186.200272 65.658908 
L 191.693971 103.092119 
L 192.724039 108.27654 
L 193.754107 112.223852 
L 194.44082 114.060453 
L 195.127532 115.202418 
L 195.470888 115.501474 
L 195.814244 115.615043 
L 196.1576 115.541228 
L 196.500956 115.279169 
L 196.844313 114.829062 
L 197.531025 113.370789 
L 198.217737 111.189097 
L 198.904449 108.323016 
L 199.934518 102.863042 
L 201.307942 93.800892 
L 203.024723 80.60357 
L 206.458284 53.517148 
L 207.831709 44.168638 
L 209.205133 36.267586 
L 210.235202 31.382141 
L 211.26527 27.38764 
L 212.295339 24.234843 
L 213.325407 21.84171 
L 214.355476 20.105239 
L 215.385544 18.912604 
L 216.415612 18.150706 
L 217.445681 17.713611 
L 218.475749 17.507671 
L 219.849174 17.459375 
L 222.596023 17.664132 
L 226.029584 17.845997 
L 229.463145 17.77128 
L 233.583419 17.543914 
L 233.583419 17.543914 
" clip-path="url(#pa9f73e8848)" style="fill: none; stroke: #eb9872; stroke-opacity: 0.5; stroke-linecap: square"/>
   </g>
   <g id="line2d_30">
    <path d="M 61.905351 17.087677 
L 77.356377 17.156376 
L 93.150759 17.049387 
L 122.679387 17.13974 
L 127.143017 17.427583 
L 131.606647 17.953366 
L 136.756989 18.801065 
L 148.774453 20.920876 
L 151.177946 21.02988 
L 153.581439 20.911487 
L 156.328288 20.528835 
L 163.882123 19.285606 
L 166.285616 19.190707 
L 168.345753 19.314038 
L 170.062534 19.613082 
L 171.435958 20.036393 
L 172.809383 20.694163 
L 173.839451 21.396825 
L 174.86952 22.333967 
L 175.899588 23.564627 
L 176.929657 25.155202 
L 177.959725 27.176975 
L 178.989793 29.702397 
L 180.019862 32.800087 
L 181.04993 36.528614 
L 182.423355 42.549243 
L 183.796779 49.787071 
L 185.51356 60.402907 
L 187.573697 74.775483 
L 190.663902 96.362181 
L 192.037327 104.353508 
L 193.067395 109.117246 
L 193.754107 111.568264 
L 194.44082 113.367506 
L 195.127532 114.467063 
L 195.470888 114.743371 
L 195.814244 114.833386 
L 196.1576 114.735399 
L 196.500956 114.448754 
L 197.187669 113.312192 
L 197.874381 111.439795 
L 198.561093 108.864426 
L 199.591162 103.793806 
L 200.62123 97.477073 
L 201.994655 87.602993 
L 207.488353 45.612215 
L 208.861777 37.475549 
L 209.891846 32.399011 
L 210.921914 28.213948 
L 211.951983 24.880208 
L 212.982051 22.322338 
L 214.012119 20.441501 
L 215.042188 19.12688 
L 216.072256 18.265621 
L 217.102325 17.750703 
L 218.132393 17.486489 
L 219.505818 17.386515 
L 221.909311 17.524008 
L 225.686228 17.75221 
L 229.119789 17.714052 
L 233.583419 17.504773 
L 233.583419 17.504773 
" clip-path="url(#pa9f73e8848)" style="fill: none; stroke: #eca479; stroke-opacity: 0.5; stroke-linecap: square"/>
   </g>
   <g id="line2d_31">
    <path d="M 61.905351 17.07715 
L 79.073158 17.087046 
L 96.240965 17.053056 
L 124.739524 17.178192 
L 129.889866 17.525049 
L 136.070276 18.192718 
L 150.147878 19.824161 
L 153.238083 19.844854 
L 156.328288 19.62443 
L 164.912192 18.807002 
L 167.315685 18.851895 
L 169.375822 19.092028 
L 171.092602 19.515778 
L 172.466027 20.08153 
L 173.496095 20.694211 
L 174.526164 21.520995 
L 175.556232 22.619095 
L 176.586301 24.053766 
L 177.616369 25.896217 
L 178.646437 28.22028 
L 179.676506 31.097755 
L 180.706574 34.592456 
L 181.736643 38.753158 
L 183.110067 45.377292 
L 184.483492 53.200793 
L 186.200272 64.418304 
L 191.350614 99.90008 
L 192.380683 105.379329 
L 193.410751 109.67495 
L 194.097463 111.766515 
L 194.784176 113.176056 
L 195.127532 113.612029 
L 195.470888 113.863727 
L 195.814244 113.928594 
L 196.1576 113.805115 
L 196.500956 113.492842 
L 197.187669 112.305502 
L 197.874381 110.384507 
L 198.561093 107.764619 
L 199.591162 102.638929 
L 200.62123 96.286223 
L 201.994655 86.401473 
L 207.488353 44.804744 
L 208.861777 36.829804 
L 209.891846 31.872736 
L 210.921914 27.799079 
L 211.951983 24.564117 
L 212.982051 22.08933 
L 214.012119 20.274402 
L 215.042188 19.00853 
L 216.072256 18.180134 
L 217.102325 17.684406 
L 218.132393 17.428486 
L 219.505818 17.327775 
L 221.909311 17.449599 
L 226.029584 17.669776 
L 229.806502 17.618358 
L 233.583419 17.467686 
L 233.583419 17.467686 
" clip-path="url(#pa9f73e8848)" style="fill: none; stroke-dasharray: 9.6,2.4,1.5,2.4; stroke-dashoffset: 0; stroke: #edb081; stroke-width: 1.5"/>
   </g>
   <g id="patch_3">
    <path d="M 53.321448 125.236803 
L 53.321448 11.88 
" style="fill: none; stroke: #000000; stroke-width: 0.8; stroke-linejoin: miter; stroke-linecap: square"/>
   </g>
   <g id="patch_4">
    <path d="M 242.167323 125.236803 
L 242.167323 11.88 
" style="fill: none; stroke: #000000; stroke-width: 0.8; stroke-linejoin: miter; stroke-linecap: square"/>
   </g>
   <g id="patch_5">
    <path d="M 53.321448 125.236803 
L 242.167323 125.236803 
" style="fill: none; stroke: #000000; stroke-width: 0.8; stroke-linejoin: miter; stroke-linecap: square"/>
   </g>
   <g id="patch_6">
    <path d="M 53.321448 11.88 
L 242.167323 11.88 
" style="fill: none; stroke: #000000; stroke-width: 0.8; stroke-linejoin: miter; stroke-linecap: square"/>
   </g>
   <g id="legend_1">
    <g id="line2d_32">
     <path d="M 57.721558 52.16206 
L 64.871558 52.16206 
L 72.021558 52.16206 
" style="fill: none; stroke-dasharray: 9.6,2.4,1.5,2.4; stroke-dashoffset: 0; stroke: #4b2362; stroke-width: 1.5"/>
    </g>
    <g id="text_13">
     <!-- $\delta t=0.0$ -->
     <g transform="translate(72.032558 56.01206) scale(0.11 -0.11)">
      <defs>
       <path id="CMMI12-e" d="M 1664 2795 
C 845 2597 256 1748 256 1001 
C 256 319 717 -64 1229 -64 
C 1984 -64 2496 970 2496 1818 
C 2496 2392 2227 2744 2067 2954 
C 1830 3254 1446 3746 1446 4052 
C 1446 4161 1530 4352 1811 4352 
C 2010 4352 2131 4282 2323 4173 
C 2381 4134 2528 4052 2611 4052 
C 2746 4052 2842 4185 2842 4287 
C 2842 4409 2746 4428 2522 4479 
C 2221 4543 2131 4543 2022 4543 
C 1914 4543 1286 4543 1286 3892 
C 1286 3579 1446 3216 1664 2795 
z
M 1734 2669 
C 1978 2165 2074 1974 2074 1560 
C 2074 1063 1805 63 1235 63 
C 986 63 627 229 627 821 
C 627 1235 864 2439 1734 2669 
z
" transform="scale(0.015625)"/>
       <path id="CMMI12-74" d="M 1286 2566 
L 1875 2566 
C 1997 2566 2061 2566 2061 2681 
C 2061 2752 2022 2752 1894 2752 
L 1331 2752 
L 1568 3692 
C 1594 3781 1594 3794 1594 3840 
C 1594 3943 1510 4000 1427 4000 
C 1376 4000 1229 3981 1178 3775 
L 928 2752 
L 326 2752 
C 198 2752 141 2752 141 2630 
C 141 2566 186 2566 307 2566 
L 877 2566 
L 454 881 
C 403 658 384 594 384 511 
C 384 211 595 -64 954 -64 
C 1600 -64 1946 868 1946 912 
C 1946 951 1920 970 1882 970 
C 1869 970 1843 970 1830 944 
C 1824 938 1818 931 1773 829 
C 1638 511 1344 64 973 64 
C 781 64 768 224 768 364 
C 768 370 768 492 787 568 
L 1286 2566 
z
" transform="scale(0.015625)"/>
       <path id="CMR17-3d" d="M 4115 2017 
C 4211 2017 4307 2017 4307 2125 
C 4307 2240 4198 2240 4090 2240 
L 512 2240 
C 403 2240 294 2240 294 2125 
C 294 2017 390 2017 486 2017 
L 4115 2017 
z
M 4090 896 
C 4198 896 4307 896 4307 1011 
C 4307 1119 4211 1119 4115 1119 
L 486 1119 
C 390 1119 294 1119 294 1011 
C 294 896 403 896 512 896 
L 4090 896 
z
" transform="scale(0.015625)"/>
      </defs>
      <use xlink:href="#CMMI12-e" transform="scale(0.996264)"/>
      <use xlink:href="#CMMI12-74" transform="translate(46.941386 0) scale(0.996264)"/>
      <use xlink:href="#CMR17-3d" transform="translate(109.841725 0) scale(0.996264)"/>
      <use xlink:href="#CMR17-30" transform="translate(209.230522 0) scale(0.996264)"/>
      <use xlink:href="#CMMI12-3a" transform="translate(254.920999 0) scale(0.996264)"/>
      <use xlink:href="#CMR17-30" transform="translate(282.018176 0) scale(0.996264)"/>
     </g>
    </g>
    <g id="line2d_33">
     <path d="M 57.721558 67.492954 
L 64.871558 67.492954 
L 72.021558 67.492954 
" style="fill: none; stroke-dasharray: 9.6,2.4,1.5,2.4; stroke-dashoffset: 0; stroke: #c14168; stroke-width: 1.5"/>
    </g>
    <g id="text_14">
     <!-- $\delta t=0.25$ -->
     <g transform="translate(72.032558 71.342954) scale(0.11 -0.11)">
      <use xlink:href="#CMMI12-e" transform="scale(0.996264)"/>
      <use xlink:href="#CMMI12-74" transform="translate(46.941386 0) scale(0.996264)"/>
      <use xlink:href="#CMR17-3d" transform="translate(109.841725 0) scale(0.996264)"/>
      <use xlink:href="#CMR17-30" transform="translate(209.230522 0) scale(0.996264)"/>
      <use xlink:href="#CMMI12-3a" transform="translate(254.920999 0) scale(0.996264)"/>
      <use xlink:href="#CMR17-32" transform="translate(282.018176 0) scale(0.996264)"/>
      <use xlink:href="#CMR17-35" transform="translate(327.708654 0) scale(0.996264)"/>
     </g>
    </g>
    <g id="line2d_34">
     <path d="M 57.721558 82.823849 
L 64.871558 82.823849 
L 72.021558 82.823849 
" style="fill: none; stroke-dasharray: 9.6,2.4,1.5,2.4; stroke-dashoffset: 0; stroke: #edb081; stroke-width: 1.5"/>
    </g>
    <g id="text_15">
     <!-- $\delta t=0.5$ -->
     <g transform="translate(72.032558 86.673849) scale(0.11 -0.11)">
      <use xlink:href="#CMMI12-e" transform="scale(0.996264)"/>
      <use xlink:href="#CMMI12-74" transform="translate(46.941386 0) scale(0.996264)"/>
      <use xlink:href="#CMR17-3d" transform="translate(109.841725 0) scale(0.996264)"/>
      <use xlink:href="#CMR17-30" transform="translate(209.230522 0) scale(0.996264)"/>
      <use xlink:href="#CMMI12-3a" transform="translate(254.920999 0) scale(0.996264)"/>
      <use xlink:href="#CMR17-35" transform="translate(282.018176 0) scale(0.996264)"/>
     </g>
    </g>
   </g>
  </g>
 </g>
 <defs>
  <clipPath id="pa9f73e8848">
   <rect x="53.321448" y="11.88" width="188.845875" height="113.356803"/>
  </clipPath>
 </defs>
</svg>
