<?xml version="1.0" encoding="utf-8" standalone="no"?>
<!DOCTYPE svg PUBLIC "-//W3C//DTD SVG 1.1//EN"
  "http://www.w3.org/Graphics/SVG/1.1/DTD/svg11.dtd">
<svg xmlns:xlink="http://www.w3.org/1999/xlink" width="508.094645pt" height="158.779577pt" viewBox="0 0 508.094645 158.779577" xmlns="http://www.w3.org/2000/svg" version="1.1">
 <metadata>
  <rdf:RDF xmlns:dc="http://purl.org/dc/elements/1.1/" xmlns:cc="http://creativecommons.org/ns#" xmlns:rdf="http://www.w3.org/1999/02/22-rdf-syntax-ns#">
   <cc:Work>
    <dc:type rdf:resource="http://purl.org/dc/dcmitype/StillImage"/>
    <dc:date>2024-09-25T15:22:26.541088</dc:date>
    <dc:format>image/svg+xml</dc:format>
    <dc:creator>
     <cc:Agent>
      <dc:title>Matplotlib v3.9.2, https://matplotlib.org/</dc:title>
     </cc:Agent>
    </dc:creator>
   </cc:Work>
  </rdf:RDF>
 </metadata>
 <defs>
  <style type="text/css">*{stroke-linejoin: round; stroke-linecap: butt}</style>
 </defs>
 <g id="figure_1">
  <g id="patch_1">
   <path d="M 0 158.779577 
L 508.094645 158.779577 
L 508.094645 0 
L 0 0 
z
" style="fill: #ffffff"/>
  </g>
  <g id="axes_1">
   <g id="patch_2">
    <path d="M 53.321448 100.519789 
L 254.834894 100.519789 
L 254.834894 11.88 
L 53.321448 11.88 
z
" style="fill: #ffffff"/>
   </g>
   <g id="matplotlib.axis_1">
    <g id="xtick_1">
     <g id="line2d_1">
      <defs>
       <path id="m0e82f77c74" d="M 0 0 
L 0 3.5 
" style="stroke: #000000; stroke-width: 0.8"/>
      </defs>
      <g>
       <use xlink:href="#m0e82f77c74" x="62.48115" y="100.519789" style="stroke: #000000; stroke-width: 0.8"/>
      </g>
     </g>
     <g id="text_1">
      <!-- $\mathdefault{−2}$ -->
      <g transform="translate(55.479612 115.130136) scale(0.11 -0.11)">
       <defs>
        <path id="CMSY10-0" d="M 4218 1472 
C 4326 1472 4442 1472 4442 1600 
C 4442 1728 4326 1728 4218 1728 
L 755 1728 
C 646 1728 531 1728 531 1600 
C 531 1472 646 1472 755 1472 
L 4218 1472 
z
" transform="scale(0.015625)"/>
        <path id="CMR17-32" d="M 2669 989 
L 2554 989 
C 2490 536 2438 459 2413 420 
C 2381 369 1920 369 1830 369 
L 602 369 
C 832 619 1280 1072 1824 1597 
C 2214 1967 2669 2402 2669 3035 
C 2669 3790 2067 4224 1395 4224 
C 691 4224 262 3604 262 3030 
C 262 2780 448 2748 525 2748 
C 589 2748 781 2787 781 3010 
C 781 3207 614 3264 525 3264 
C 486 3264 448 3258 422 3245 
C 544 3790 915 4058 1306 4058 
C 1862 4058 2227 3617 2227 3035 
C 2227 2479 1901 2000 1536 1584 
L 262 146 
L 262 0 
L 2515 0 
L 2669 989 
z
" transform="scale(0.015625)"/>
       </defs>
       <use xlink:href="#CMSY10-0" transform="scale(0.996264)"/>
       <use xlink:href="#CMR17-32" transform="translate(77.487468 0) scale(0.996264)"/>
      </g>
     </g>
    </g>
    <g id="xtick_2">
     <g id="line2d_2">
      <g>
       <use xlink:href="#m0e82f77c74" x="108.27966" y="100.519789" style="stroke: #000000; stroke-width: 0.8"/>
      </g>
     </g>
     <g id="text_2">
      <!-- $\mathdefault{−1}$ -->
      <g transform="translate(101.278122 115.130136) scale(0.11 -0.11)">
       <defs>
        <path id="CMR17-31" d="M 1702 4058 
C 1702 4192 1696 4192 1606 4192 
C 1357 3916 979 3827 621 3827 
C 602 3827 570 3827 563 3808 
C 557 3795 557 3782 557 3648 
C 755 3648 1088 3686 1344 3839 
L 1344 461 
C 1344 236 1331 160 781 160 
L 589 160 
L 589 0 
C 896 0 1216 0 1523 0 
C 1830 0 2150 0 2458 0 
L 2458 160 
L 2266 160 
C 1715 160 1702 230 1702 458 
L 1702 4058 
z
" transform="scale(0.015625)"/>
       </defs>
       <use xlink:href="#CMSY10-0" transform="scale(0.996264)"/>
       <use xlink:href="#CMR17-31" transform="translate(77.487468 0) scale(0.996264)"/>
      </g>
     </g>
    </g>
    <g id="xtick_3">
     <g id="line2d_3">
      <g>
       <use xlink:href="#m0e82f77c74" x="154.078171" y="100.519789" style="stroke: #000000; stroke-width: 0.8"/>
      </g>
     </g>
     <g id="text_3">
      <!-- $\mathdefault{0}$ -->
      <g transform="translate(151.338437 115.130136) scale(0.11 -0.11)">
       <defs>
        <path id="CMR17-30" d="M 2688 2025 
C 2688 2416 2682 3080 2413 3591 
C 2176 4039 1798 4198 1466 4198 
C 1158 4198 768 4058 525 3597 
C 269 3118 243 2524 243 2025 
C 243 1661 250 1106 448 619 
C 723 -39 1216 -128 1466 -128 
C 1760 -128 2208 -7 2470 600 
C 2662 1042 2688 1559 2688 2025 
z
M 1466 -26 
C 1056 -26 813 325 723 812 
C 653 1188 653 1738 653 2096 
C 653 2588 653 2997 736 3387 
C 858 3929 1216 4096 1466 4096 
C 1728 4096 2067 3923 2189 3400 
C 2272 3036 2278 2607 2278 2096 
C 2278 1680 2278 1169 2202 792 
C 2067 95 1690 -26 1466 -26 
z
" transform="scale(0.015625)"/>
       </defs>
       <use xlink:href="#CMR17-30" transform="scale(0.996264)"/>
      </g>
     </g>
    </g>
    <g id="xtick_4">
     <g id="line2d_4">
      <g>
       <use xlink:href="#m0e82f77c74" x="199.876681" y="100.519789" style="stroke: #000000; stroke-width: 0.8"/>
      </g>
     </g>
     <g id="text_4">
      <!-- $\mathdefault{1}$ -->
      <g transform="translate(197.136948 115.130136) scale(0.11 -0.11)">
       <use xlink:href="#CMR17-31" transform="scale(0.996264)"/>
      </g>
     </g>
    </g>
    <g id="xtick_5">
     <g id="line2d_5">
      <g>
       <use xlink:href="#m0e82f77c74" x="245.675192" y="100.519789" style="stroke: #000000; stroke-width: 0.8"/>
      </g>
     </g>
     <g id="text_5">
      <!-- $\mathdefault{2}$ -->
      <g transform="translate(242.935458 115.130136) scale(0.11 -0.11)">
       <use xlink:href="#CMR17-32" transform="scale(0.996264)"/>
      </g>
     </g>
    </g>
    <g id="text_6">
     <!-- Update Size, $\norm{\bm{\theta}}_{\infty}$ -->
     <g transform="translate(108.709006 129.480209) scale(0.11 -0.11)">
      <defs>
       <path id="CMR17-55" d="M 3456 1433 
C 3456 579 2899 38 2291 38 
C 1965 38 1670 210 1491 477 
C 1286 783 1261 1178 1261 1401 
L 1261 3874 
C 1261 4160 1331 4160 1773 4160 
L 1773 4320 
C 1587 4320 1248 4320 1050 4320 
C 851 4320 512 4320 326 4320 
L 326 4160 
C 768 4160 838 4160 838 3874 
L 838 1433 
C 838 516 1536 -128 2278 -128 
C 3110 -128 3590 719 3590 1344 
L 3590 3766 
C 3590 4122 3917 4160 4102 4160 
L 4102 4326 
C 3955 4320 3686 4320 3526 4320 
C 3366 4320 3091 4320 2944 4326 
L 2944 4160 
C 3456 4160 3456 3861 3456 3702 
L 3456 1433 
z
" transform="scale(0.015625)"/>
       <path id="CMR17-70" d="M 1408 -1063 
C 998 -1063 973 -1037 973 -789 
L 973 402 
C 1158 134 1427 -38 1766 -38 
C 2406 -38 3053 523 3053 1388 
C 3053 2191 2496 2802 1837 2802 
C 1453 2802 1139 2592 960 2338 
L 960 2802 
L 198 2732 
L 198 2567 
C 576 2567 634 2528 634 2223 
L 634 -789 
C 634 -1031 608 -1063 198 -1063 
L 198 -1228 
C 352 -1216 634 -1216 800 -1216 
C 966 -1216 1254 -1216 1408 -1228 
L 1408 -1063 
z
M 973 2012 
C 973 2102 973 2235 1222 2471 
C 1254 2497 1472 2688 1792 2688 
C 2259 2688 2643 2108 2643 1382 
C 2643 656 2234 64 1728 64 
C 1498 64 1248 172 1056 472 
C 973 612 973 650 973 752 
L 973 2012 
z
" transform="scale(0.015625)"/>
       <path id="CMR17-64" d="M 1869 4326 
L 1869 4160 
C 2246 4160 2304 4122 2304 3820 
L 2304 2345 
C 2278 2377 2016 2790 1498 2790 
C 845 2790 211 2208 211 1364 
C 211 525 806 -64 1434 -64 
C 1978 -64 2259 337 2291 380 
L 2291 -63 
L 3066 -63 
L 3066 128 
C 2688 128 2630 166 2630 473 
L 2630 4396 
L 1869 4326 
z
M 2291 755 
C 2291 563 2176 390 2029 262 
C 1811 70 1594 38 1472 38 
C 1286 38 621 134 621 1356 
C 621 2612 1363 2688 1530 2688 
C 1824 2688 2061 2522 2208 2291 
C 2291 2157 2291 2138 2291 2023 
L 2291 755 
z
" transform="scale(0.015625)"/>
       <path id="CMR17-61" d="M 2304 1653 
C 2304 2072 2304 2294 2035 2543 
C 1798 2752 1523 2816 1306 2816 
C 800 2816 435 2407 435 1971 
C 435 1728 627 1728 666 1728 
C 749 1728 896 1778 896 1954 
C 896 2112 774 2181 666 2181 
C 640 2181 608 2174 589 2168 
C 723 2592 1069 2714 1293 2714 
C 1613 2714 1965 2429 1965 1885 
L 1965 1600 
C 1587 1600 1133 1549 774 1357 
C 371 1133 256 813 256 570 
C 256 77 832 -64 1171 -64 
C 1523 -64 1850 139 1990 511 
C 2003 233 2182 -18 2464 -18 
C 2598 -18 2938 70 2938 567 
L 2938 920 
L 2822 920 
L 2822 562 
C 2822 178 2650 128 2566 128 
C 2304 128 2304 458 2304 738 
L 2304 1653 
z
M 1965 870 
C 1965 317 1568 38 1216 38 
C 896 38 646 275 646 570 
C 646 761 730 1100 1101 1305 
C 1408 1478 1760 1504 1965 1504 
L 1965 870 
z
" transform="scale(0.015625)"/>
       <path id="CMR17-74" d="M 966 2560 
L 1862 2560 
L 1862 2725 
L 966 2725 
L 966 3904 
L 851 3904 
C 838 3245 614 2668 70 2668 
L 70 2560 
L 627 2560 
L 627 771 
C 627 650 627 -64 1370 -64 
C 1747 -64 1965 306 1965 777 
L 1965 1140 
L 1850 1140 
L 1850 783 
C 1850 344 1677 51 1408 51 
C 1222 51 966 178 966 758 
L 966 2560 
z
" transform="scale(0.015625)"/>
       <path id="CMR17-65" d="M 2438 1472 
C 2464 1498 2464 1511 2464 1576 
C 2464 2238 2118 2816 1389 2816 
C 710 2816 173 2169 173 1383 
C 173 551 781 -64 1459 -64 
C 2176 -64 2458 607 2458 740 
C 2458 784 2419 784 2406 784 
C 2362 784 2355 771 2330 696 
C 2189 265 1837 51 1504 51 
C 1229 51 954 203 781 480 
C 582 803 582 1176 582 1472 
L 2438 1472 
z
M 589 1568 
C 634 2505 1126 2714 1382 2714 
C 1818 2714 2112 2297 2118 1568 
L 589 1568 
z
" transform="scale(0.015625)"/>
       <path id="CMR17-53" d="M 2803 4290 
C 2803 4404 2797 4411 2758 4411 
C 2720 4411 2707 4385 2682 4328 
L 2490 3907 
C 2246 4257 1875 4416 1472 4416 
C 819 4416 294 3901 294 3253 
C 294 3056 339 2776 557 2510 
C 794 2218 1018 2167 1530 2033 
C 1722 1982 2042 1899 2106 1874 
C 2470 1722 2662 1341 2662 985 
C 2662 527 2336 38 1779 38 
C 1094 38 454 419 410 1311 
C 403 1413 397 1419 352 1419 
C 301 1419 294 1413 294 1285 
L 294 -1 
C 294 -115 301 -122 339 -122 
C 384 -122 397 -90 486 108 
C 493 127 493 140 614 381 
C 934 -39 1472 -128 1779 -128 
C 2477 -128 2970 451 2970 1124 
C 2970 1454 2848 1708 2778 1823 
C 2509 2230 2221 2306 1914 2382 
C 1869 2402 1856 2402 1498 2490 
C 1152 2579 1005 2624 845 2796 
C 666 2992 602 3196 602 3399 
C 602 3812 934 4263 1478 4263 
C 2157 4263 2579 3786 2675 2993 
C 2694 2878 2701 2872 2746 2872 
C 2803 2872 2803 2891 2803 2999 
L 2803 4290 
z
" transform="scale(0.015625)"/>
       <path id="CMR17-69" d="M 992 3909 
C 992 4049 877 4170 730 4170 
C 589 4170 467 4056 467 3909 
C 467 3769 582 3648 730 3648 
C 870 3648 992 3763 992 3909 
z
M 243 2706 
L 243 2541 
C 602 2541 653 2502 653 2197 
L 653 427 
C 653 184 627 153 218 153 
L 218 -13 
C 371 0 646 0 806 0 
C 960 0 1222 0 1370 -13 
L 1370 153 
C 992 153 979 191 979 420 
L 979 2776 
L 243 2706 
z
" transform="scale(0.015625)"/>
       <path id="CMR17-7a" d="M 2310 2605 
C 2362 2670 2362 2682 2362 2695 
C 2362 2752 2336 2752 2221 2752 
L 275 2752 
L 211 1760 
L 326 1760 
C 371 2381 442 2650 1178 2650 
L 1958 2650 
L 128 96 
C 128 0 134 0 269 0 
L 2291 0 
L 2381 1152 
L 2266 1152 
C 2214 442 2131 115 1350 115 
L 531 115 
L 2310 2605 
z
" transform="scale(0.015625)"/>
       <path id="CMR17-2c" d="M 1011 102 
C 1024 45 1024 25 1024 -77 
C 1024 -463 896 -817 627 -1139 
C 595 -1170 595 -1183 595 -1197 
C 595 -1222 621 -1248 646 -1248 
C 685 -1248 1126 -799 1126 -87 
C 1126 124 1101 522 800 522 
C 659 522 538 427 538 261 
C 538 96 659 0 800 0 
C 877 0 960 32 1011 102 
z
" transform="scale(0.015625)"/>
       <path id="CMSY10-6b" d="M 1103 4582 
C 1103 4685 1103 4800 975 4800 
C 847 4800 847 4659 847 4563 
L 847 -1363 
C 847 -1466 847 -1600 975 -1600 
C 1103 -1600 1103 -1485 1103 -1382 
L 1103 4582 
z
M 2351 4563 
C 2351 4666 2351 4800 2223 4800 
C 2095 4800 2095 4685 2095 4582 
L 2095 -1382 
C 2095 -1485 2095 -1600 2223 -1600 
C 2351 -1600 2351 -1459 2351 -1363 
L 2351 4563 
z
" transform="scale(0.015625)"/>
       <path id="CMMIB10-12" d="M 3501 3123 
C 3501 4250 2835 4480 2445 4480 
C 1939 4480 1299 4148 819 3277 
C 493 2675 294 1805 294 1287 
C 294 359 781 -64 1357 -64 
C 1786 -64 2349 186 2790 839 
C 3328 1626 3501 2644 3501 3123 
z
M 1267 2353 
C 1357 2727 1523 3312 1715 3647 
C 1862 3910 2125 4251 2432 4251 
C 2701 4251 2816 3969 2816 3589 
C 2816 3183 2675 2623 2605 2353 
L 1267 2353 
z
M 2528 2048 
C 2131 338 1594 165 1370 165 
C 1280 165 1146 190 1056 389 
C 979 560 979 809 979 816 
C 979 1180 1120 1773 1190 2048 
L 2528 2048 
z
" transform="scale(0.015625)"/>
       <path id="CMSY10-31" d="M 3251 1730 
C 2906 2166 2829 2262 2630 2422 
C 2272 2710 1914 2825 1587 2825 
C 838 2825 352 2122 352 1374 
C 352 639 826 -70 1562 -70 
C 2298 -70 2829 511 3142 1022 
C 3488 588 3565 492 3763 332 
C 4122 45 4480 -70 4806 -70 
C 5555 -70 6042 633 6042 1380 
C 6042 2115 5568 2825 4832 2825 
C 4096 2825 3565 2242 3251 1730 
z
M 3418 1514 
C 3680 1975 4154 2620 4877 2620 
C 5555 2620 5901 1955 5901 1380 
C 5901 753 5472 236 4909 236 
C 4538 236 4250 505 4115 638 
C 3955 811 3808 1009 3418 1514 
z
M 2976 1240 
C 2714 780 2240 134 1517 134 
C 838 134 493 799 493 1374 
C 493 2000 922 2518 1485 2518 
C 1856 2518 2144 2249 2278 2115 
C 2438 1943 2586 1744 2976 1240 
z
" transform="scale(0.015625)"/>
      </defs>
      <use xlink:href="#CMR17-55" transform="scale(0.996264)"/>
      <use xlink:href="#CMR17-70" transform="translate(69.07243 0) scale(0.996264)"/>
      <use xlink:href="#CMR17-64" transform="translate(122.570238 0) scale(0.996264)"/>
      <use xlink:href="#CMR17-61" transform="translate(173.465608 0) scale(0.996264)"/>
      <use xlink:href="#CMR17-74" transform="translate(219.156085 0) scale(0.996264)"/>
      <use xlink:href="#CMR17-65" transform="translate(254.436853 0) scale(0.996264)"/>
      <use xlink:href="#CMR17-53" transform="translate(324.99848 0) scale(0.996264)"/>
      <use xlink:href="#CMR17-69" transform="translate(375.89385 0) scale(0.996264)"/>
      <use xlink:href="#CMR17-7a" transform="translate(400.764908 0) scale(0.996264)"/>
      <use xlink:href="#CMR17-65" transform="translate(441.250569 0) scale(0.996264)"/>
      <use xlink:href="#CMR17-2c" transform="translate(481.736229 0) scale(0.996264)"/>
      <use xlink:href="#CMSY10-6b" transform="translate(536.683254 0) scale(0.996264)"/>
      <use xlink:href="#CMMIB10-12" transform="translate(586.496637 0) scale(0.996264)"/>
      <use xlink:href="#CMSY10-6b" transform="translate(645.649524 0) scale(0.996264)"/>
      <use xlink:href="#CMSY10-31" transform="translate(695.462906 -28.393509) scale(0.697382)"/>
     </g>
    </g>
   </g>
   <g id="matplotlib.axis_2">
    <g id="ytick_1">
     <g id="line2d_6">
      <defs>
       <path id="m5b8540dee5" d="M 0 0 
L -3.5 0 
" style="stroke: #000000; stroke-width: 0.8"/>
      </defs>
      <g>
       <use xlink:href="#m5b8540dee5" x="53.321448" y="96.490708" style="stroke: #000000; stroke-width: 0.8"/>
      </g>
     </g>
     <g id="text_7">
      <!-- $\mathdefault{0.0}$ -->
      <g transform="translate(32.318371 100.295881) scale(0.11 -0.11)">
       <defs>
        <path id="CMMI12-3a" d="M 1178 307 
C 1178 492 1024 619 870 619 
C 685 619 557 466 557 313 
C 557 128 710 0 864 0 
C 1050 0 1178 153 1178 307 
z
" transform="scale(0.015625)"/>
       </defs>
       <use xlink:href="#CMR17-30" transform="scale(0.996264)"/>
       <use xlink:href="#CMMI12-3a" transform="translate(45.690477 0) scale(0.996264)"/>
       <use xlink:href="#CMR17-30" transform="translate(72.787654 0) scale(0.996264)"/>
      </g>
     </g>
    </g>
    <g id="ytick_2">
     <g id="line2d_7">
      <g>
       <use xlink:href="#m5b8540dee5" x="53.321448" y="56.198756" style="stroke: #000000; stroke-width: 0.8"/>
      </g>
     </g>
     <g id="text_8">
      <!-- $\mathdefault{0.5}$ -->
      <g transform="translate(32.318371 60.00393) scale(0.11 -0.11)">
       <defs>
        <path id="CMR17-35" d="M 730 3692 
C 794 3666 1056 3584 1325 3584 
C 1920 3584 2246 3911 2432 4100 
C 2432 4157 2432 4192 2394 4192 
C 2387 4192 2374 4192 2323 4163 
C 2099 4058 1837 3973 1517 3973 
C 1325 3973 1037 3999 723 4139 
C 653 4171 640 4171 634 4171 
C 602 4171 595 4164 595 4037 
L 595 2203 
C 595 2089 595 2057 659 2057 
C 691 2057 704 2070 736 2114 
C 941 2401 1222 2522 1542 2522 
C 1766 2522 2246 2382 2246 1289 
C 2246 1085 2246 715 2054 421 
C 1894 159 1645 25 1370 25 
C 947 25 518 320 403 814 
C 429 807 480 795 506 795 
C 589 795 749 840 749 1038 
C 749 1210 627 1280 506 1280 
C 358 1280 262 1190 262 1011 
C 262 454 704 -128 1382 -128 
C 2042 -128 2669 440 2669 1264 
C 2669 2030 2170 2624 1549 2624 
C 1222 2624 947 2503 730 2274 
L 730 3692 
z
" transform="scale(0.015625)"/>
       </defs>
       <use xlink:href="#CMR17-30" transform="scale(0.996264)"/>
       <use xlink:href="#CMMI12-3a" transform="translate(45.690477 0) scale(0.996264)"/>
       <use xlink:href="#CMR17-35" transform="translate(72.787654 0) scale(0.996264)"/>
      </g>
     </g>
    </g>
    <g id="ytick_3">
     <g id="line2d_8">
      <g>
       <use xlink:href="#m5b8540dee5" x="53.321448" y="15.906804" style="stroke: #000000; stroke-width: 0.8"/>
      </g>
     </g>
     <g id="text_9">
      <!-- $\mathdefault{1.0}$ -->
      <g transform="translate(32.318371 19.711978) scale(0.11 -0.11)">
       <use xlink:href="#CMR17-31" transform="scale(0.996264)"/>
       <use xlink:href="#CMMI12-3a" transform="translate(45.690477 0) scale(0.996264)"/>
       <use xlink:href="#CMR17-30" transform="translate(72.787654 0) scale(0.996264)"/>
      </g>
     </g>
    </g>
    <g id="text_10">
     <!-- Infidelity, $\mathcal{L}(\bm{\theta})$ -->
     <g transform="translate(25.578645 91.847558) rotate(-90) scale(0.11 -0.11)">
      <defs>
       <path id="CMR17-49" d="M 1261 3905 
C 1261 4192 1338 4192 1798 4192 
L 1798 4352 
C 1594 4352 1267 4352 1050 4352 
C 832 4352 506 4352 301 4352 
L 301 4192 
C 762 4192 838 4192 838 3905 
L 838 447 
C 838 160 762 160 301 160 
L 301 0 
C 506 0 832 0 1050 0 
C 1267 0 1594 0 1798 0 
L 1798 160 
C 1338 160 1261 160 1261 447 
L 1261 3905 
z
" transform="scale(0.015625)"/>
       <path id="CMR17-6e" d="M 2656 1933 
C 2656 2259 2592 2790 1837 2790 
C 1331 2790 1069 2400 973 2144 
L 966 2144 
L 966 2790 
L 211 2720 
L 211 2554 
C 589 2554 646 2515 646 2208 
L 646 428 
C 646 184 621 153 211 153 
L 211 -13 
C 365 0 646 0 813 0 
C 979 0 1267 0 1421 -13 
L 1421 153 
C 1011 153 986 178 986 428 
L 986 1658 
C 986 2247 1344 2688 1792 2688 
C 2266 2688 2317 2266 2317 1958 
L 2317 428 
C 2317 184 2291 153 1882 153 
L 1882 -13 
C 2035 0 2317 0 2483 0 
C 2650 0 2938 0 3091 -13 
L 3091 153 
C 2682 153 2656 178 2656 428 
L 2656 1933 
z
" transform="scale(0.015625)"/>
       <path id="CMR17-c" d="M 2554 2764 
C 2400 2764 1926 2764 1805 2739 
C 1766 2725 1754 2725 1677 2725 
L 947 2725 
L 947 3469 
C 947 4073 1434 4352 1818 4352 
C 1939 4352 2214 4320 2355 4101 
C 2291 4101 2086 4101 2086 3878 
C 2086 3725 2189 3648 2317 3648 
C 2432 3648 2547 3712 2547 3885 
C 2547 4205 2240 4454 1843 4454 
C 1338 4454 634 4168 634 3469 
L 634 2725 
L 122 2725 
L 122 2560 
L 634 2560 
L 634 427 
C 634 184 608 153 198 153 
L 198 -13 
C 352 0 634 0 794 0 
C 960 0 1242 0 1395 -13 
L 1395 153 
C 986 153 960 178 960 427 
L 960 2560 
L 1901 2560 
C 2176 2560 2227 2502 2227 2222 
L 2227 427 
C 2227 184 2202 153 1792 153 
L 1792 -13 
C 1946 0 2227 0 2387 0 
C 2554 0 2835 0 2989 -13 
L 2989 153 
C 2579 153 2554 178 2554 427 
L 2554 2764 
z
" transform="scale(0.015625)"/>
       <path id="CMR17-6c" d="M 979 4396 
L 218 4326 
L 218 4160 
C 595 4160 653 4122 653 3817 
L 653 426 
C 653 184 627 153 218 153 
L 218 -13 
C 371 0 653 0 813 0 
C 979 0 1261 0 1414 -13 
L 1414 153 
C 1005 153 979 178 979 426 
L 979 4396 
z
" transform="scale(0.015625)"/>
       <path id="CMR17-79" d="M 2496 2197 
C 2656 2586 2944 2586 3034 2586 
L 3034 2752 
C 2912 2752 2752 2752 2630 2752 
C 2496 2752 2285 2752 2157 2758 
L 2157 2592 
C 2400 2573 2406 2394 2406 2343 
C 2406 2280 2394 2248 2362 2171 
L 1664 449 
L 902 2306 
C 870 2382 870 2426 870 2433 
C 870 2573 1018 2586 1171 2586 
L 1171 2758 
C 1018 2752 742 2752 582 2752 
C 410 2752 205 2752 64 2758 
L 64 2586 
C 410 2586 448 2554 531 2350 
L 1485 15 
C 1197 -738 1030 -1178 627 -1178 
C 557 -1178 397 -1159 282 -1044 
C 429 -1031 493 -942 493 -833 
C 493 -725 416 -629 288 -629 
C 147 -629 77 -725 77 -840 
C 77 -1095 339 -1280 627 -1280 
C 998 -1280 1229 -922 1357 -604 
L 2496 2197 
z
" transform="scale(0.015625)"/>
       <path id="CMSY10-4c" d="M 1152 610 
C 1498 1151 1606 1562 1690 1903 
C 1914 2790 2157 3562 2554 4005 
C 2630 4090 2682 4147 2886 4147 
C 3328 4147 3341 3704 3341 3613 
C 3341 3498 3309 3407 3309 3375 
C 3309 3330 3347 3330 3354 3330 
C 3456 3330 3629 3401 3789 3517 
C 3904 3607 3962 3671 3962 3934 
C 3962 4281 3782 4544 3424 4544 
C 3219 4544 2656 4493 2029 3856 
C 1517 3329 1216 2172 1094 1690 
C 979 1248 928 1048 736 662 
C 691 586 525 303 435 219 
C 262 59 198 -57 198 -89 
C 198 -102 211 -128 256 -128 
C 282 -128 416 -102 582 5 
C 691 68 704 80 851 231 
C 1171 231 1395 173 1798 58 
C 2125 -32 2451 -128 2778 -128 
C 3296 -128 3821 264 4026 546 
C 4154 719 4192 880 4192 899 
C 4192 944 4154 944 4147 944 
C 4045 944 3891 874 3782 796 
C 3610 687 3597 649 3558 539 
C 3526 436 3488 385 3462 346 
C 3411 269 3405 269 3309 269 
C 3002 269 2682 366 2259 481 
C 2080 532 1728 636 1408 636 
C 1325 636 1235 629 1152 610 
z
" transform="scale(0.015625)"/>
       <path id="CMR17-28" d="M 1958 -1561 
C 1958 -1555 1958 -1542 1939 -1523 
C 1645 -1224 858 -407 858 1581 
C 858 3569 1632 4379 1946 4697 
C 1946 4704 1958 4717 1958 4736 
C 1958 4755 1939 4768 1914 4768 
C 1843 4768 1299 4296 986 3594 
C 666 2887 576 2199 576 1588 
C 576 1128 621 351 1005 -471 
C 1312 -1135 1837 -1600 1914 -1600 
C 1946 -1600 1958 -1587 1958 -1561 
z
" transform="scale(0.015625)"/>
       <path id="CMR17-29" d="M 1683 1581 
C 1683 2040 1638 2817 1254 3639 
C 947 4303 422 4768 346 4768 
C 326 4768 301 4761 301 4729 
C 301 4717 307 4710 314 4697 
C 621 4378 1402 3568 1402 1584 
C 1402 -407 627 -1217 314 -1537 
C 307 -1549 301 -1556 301 -1568 
C 301 -1600 326 -1600 346 -1600 
C 416 -1600 960 -1128 1274 -426 
C 1594 281 1683 969 1683 1581 
z
" transform="scale(0.015625)"/>
      </defs>
      <use xlink:href="#CMR17-49" transform="scale(0.996264)"/>
      <use xlink:href="#CMR17-6e" transform="translate(32.638409 0) scale(0.996264)"/>
      <use xlink:href="#CMR17-c" transform="translate(83.533779 0) scale(0.996264)"/>
      <use xlink:href="#CMR17-64" transform="translate(133.276002 0) scale(0.996264)"/>
      <use xlink:href="#CMR17-65" transform="translate(184.171372 0) scale(0.996264)"/>
      <use xlink:href="#CMR17-6c" transform="translate(224.657033 0) scale(0.996264)"/>
      <use xlink:href="#CMR17-69" transform="translate(249.528091 0) scale(0.996264)"/>
      <use xlink:href="#CMR17-74" transform="translate(274.39915 0) scale(0.996264)"/>
      <use xlink:href="#CMR17-79" transform="translate(307.077463 0) scale(0.996264)"/>
      <use xlink:href="#CMR17-2c" transform="translate(347.563124 0) scale(0.996264)"/>
      <use xlink:href="#CMSY10-4c" transform="translate(402.510149 0) scale(0.996264)"/>
      <use xlink:href="#CMR17-28" transform="translate(471.224957 0) scale(0.996264)"/>
      <use xlink:href="#CMMIB10-12" transform="translate(506.505724 0) scale(0.996264)"/>
      <use xlink:href="#CMR17-29" transform="translate(565.658611 0) scale(0.996264)"/>
     </g>
    </g>
   </g>
   <g id="line2d_9">
    <path d="M 62.48115 16.128203 
L 70.908076 16.472937 
L 85.197211 17.161944 
L 89.960256 17.068583 
L 97.288018 16.875944 
L 99.852734 17.072237 
L 102.051063 17.481982 
L 103.883003 18.046772 
L 105.714944 18.854128 
L 107.546884 19.936739 
L 109.378825 21.322577 
L 111.210765 23.034964 
L 113.042705 25.092888 
L 114.874646 27.511177 
L 116.706586 30.300094 
L 118.538527 33.464067 
L 120.736855 37.750058 
L 122.935184 42.542439 
L 125.4999 48.693247 
L 128.797393 57.233788 
L 135.02599 73.521736 
L 137.590707 79.498525 
L 139.422647 83.286117 
L 141.254588 86.60174 
L 143.086528 89.412455 
L 144.552081 91.292518 
L 146.017633 92.852683 
L 147.483185 94.107793 
L 148.948738 95.077058 
L 150.41429 95.780945 
L 151.879842 96.238126 
L 153.345395 96.462818 
L 154.810947 96.462834 
L 156.276499 96.238536 
L 157.742052 95.782844 
L 159.207604 95.082276 
L 160.673156 94.118912 
L 162.138709 92.873066 
L 163.604261 91.326376 
L 165.069813 89.464952 
L 166.535366 87.282271 
L 168.367306 84.107995 
L 170.199247 80.468342 
L 172.397575 75.571509 
L 175.32868 68.399049 
L 182.656441 50.091469 
L 185.221158 44.454541 
L 187.419487 40.163407 
L 189.617815 36.405845 
L 191.449755 33.67457 
L 193.281696 31.28216 
L 195.480024 28.810937 
L 197.678353 26.713587 
L 199.876681 24.926035 
L 202.441398 23.158826 
L 205.006115 21.671162 
L 207.570831 20.417829 
L 210.501936 19.236346 
L 213.433041 18.296057 
L 216.364145 17.573202 
L 219.661638 16.986504 
L 223.325519 16.562982 
L 227.722176 16.282131 
L 233.950773 16.123491 
L 245.675192 16.0452 
L 245.675192 16.0452 
" clip-path="url(#p25a1702dad)" style="fill: none; stroke: #edb081; stroke-width: 1.5; stroke-linecap: square"/>
   </g>
   <g id="line2d_10">
    <path d="M 62.48115 16.101595 
L 72.00724 16.43753 
L 85.563599 16.963482 
L 90.693032 16.871256 
L 99.486346 16.61626 
L 102.051063 16.812241 
L 104.249391 17.209277 
L 106.081332 17.751525 
L 107.913272 18.524647 
L 109.745213 19.562122 
L 111.577153 20.893834 
L 113.409093 22.545447 
L 115.241034 24.537796 
L 117.072974 26.886103 
L 118.904915 29.598784 
L 120.736855 32.675789 
L 122.935184 36.833342 
L 125.133512 41.456819 
L 128.064617 48.214636 
L 132.461274 59.057421 
L 136.491543 68.832515 
L 139.056259 74.526271 
L 141.254588 78.908909 
L 143.452916 82.760791 
L 145.284857 85.549748 
L 147.116797 87.965537 
L 148.948738 90.03086 
L 150.780678 91.773181 
L 152.612619 93.215889 
L 154.444559 94.370261 
L 156.276499 95.229661 
L 157.742052 95.687341 
L 159.207604 95.91666 
L 160.673156 95.888792 
L 161.772321 95.679662 
L 162.871485 95.293662 
L 163.970649 94.717516 
L 165.069813 93.939501 
L 166.535366 92.572382 
L 168.000918 90.816725 
L 169.46647 88.671266 
L 170.932023 86.148312 
L 172.763963 82.505069 
L 174.962292 77.524552 
L 177.527008 71.11534 
L 185.587546 50.519583 
L 188.152263 44.842439 
L 190.350591 40.526572 
L 192.54892 36.734887 
L 194.747248 33.443279 
L 196.945577 30.603915 
L 199.143905 28.158737 
L 201.342234 26.050384 
L 203.540562 24.229284 
L 206.105279 22.416669 
L 208.669995 20.899135 
L 211.234712 19.646996 
L 213.799429 18.637309 
L 216.364145 17.847723 
L 219.29525 17.182251 
L 222.592743 16.683379 
L 226.256624 16.361406 
L 231.019669 16.173497 
L 239.812983 16.096271 
L 245.675192 16.07178 
L 245.675192 16.07178 
" clip-path="url(#p25a1702dad)" style="fill: none; stroke: #eb9872; stroke-width: 1.5; stroke-linecap: square"/>
   </g>
   <g id="line2d_11">
    <path d="M 62.48115 17.038831 
L 65.045866 17.330367 
L 68.343359 17.956172 
L 77.869449 19.963528 
L 85.563599 21.431749 
L 89.593868 22.152861 
L 91.792196 22.332749 
L 93.990525 22.271375 
L 96.188853 21.965773 
L 103.150227 20.729551 
L 104.615779 20.792177 
L 106.081332 21.067168 
L 107.546884 21.564769 
L 109.378825 22.475731 
L 111.577153 23.883404 
L 116.706586 27.341993 
L 118.538527 28.27944 
L 120.370467 28.980369 
L 122.568796 29.567525 
L 126.599065 30.559926 
L 128.064617 31.167312 
L 129.530169 32.051736 
L 130.629333 32.949618 
L 131.728498 34.085521 
L 132.827662 35.487716 
L 133.926826 37.178534 
L 135.392379 39.906844 
L 136.857931 43.185802 
L 138.323483 46.9948 
L 140.155424 52.410224 
L 142.72014 60.831423 
L 146.384021 72.956944 
L 148.215962 78.223294 
L 149.681514 81.731354 
L 150.780678 83.867316 
L 151.879842 85.547032 
L 152.979007 86.767971 
L 154.078171 87.553438 
L 155.177335 87.95216 
L 156.276499 88.035781 
L 157.375664 87.894308 
L 161.405933 87.107928 
L 162.505097 87.232099 
L 163.604261 87.618438 
L 164.703425 88.27867 
L 165.80259 89.187348 
L 167.63453 91.065804 
L 169.46647 92.944049 
L 170.565635 93.790332 
L 171.298411 94.138216 
L 172.031187 94.257821 
L 172.763963 94.104683 
L 173.496739 93.638704 
L 174.229516 92.825679 
L 174.962292 91.63867 
L 175.695068 90.059165 
L 176.794232 86.936599 
L 177.893396 82.923841 
L 178.992561 78.083679 
L 180.458113 70.543228 
L 182.656441 57.720286 
L 185.953934 38.411671 
L 187.419487 31.076473 
L 188.518651 26.425378 
L 189.617815 22.619226 
L 190.716979 19.710412 
L 191.449755 18.273276 
L 192.182532 17.226587 
L 192.915308 16.551005 
L 193.648084 16.219537 
L 194.38086 16.198659 
L 195.113636 16.449592 
L 195.846413 16.92968 
L 196.945577 17.980489 
L 198.411129 19.75786 
L 200.975846 22.95395 
L 202.07501 24.057205 
L 203.174174 24.886567 
L 204.273338 25.401642 
L 205.372503 25.590086 
L 206.471667 25.464596 
L 207.570831 25.05848 
L 208.669995 24.420341 
L 210.135548 23.309853 
L 215.631369 18.756842 
L 217.096921 17.905218 
L 218.562474 17.299627 
L 220.028026 16.937798 
L 221.493578 16.796933 
L 223.325519 16.877357 
L 225.523847 17.246246 
L 228.454952 17.996431 
L 235.782714 19.980311 
L 239.080206 20.609341 
L 242.377699 21.016417 
L 245.675192 21.257585 
L 245.675192 21.257585 
" clip-path="url(#p25a1702dad)" style="fill: none; stroke: #e77e63; stroke-width: 1.5; stroke-linecap: square"/>
   </g>
   <g id="line2d_12">
    <path d="M 62.48115 15.919694 
L 72.373628 16.036502 
L 77.136673 16.342442 
L 85.563599 16.96069 
L 96.188853 17.469224 
L 101.684675 18.088737 
L 105.714944 18.741897 
L 108.646048 19.447447 
L 111.577153 20.398722 
L 120.004079 23.367546 
L 123.301572 24.100657 
L 126.599065 24.871938 
L 128.431005 25.567494 
L 129.896557 26.385002 
L 131.36211 27.512775 
L 132.827662 29.014366 
L 134.293214 30.940188 
L 135.758767 33.323511 
L 137.224319 36.176975 
L 138.689871 39.489324 
L 140.521812 44.214061 
L 142.72014 50.546334 
L 148.215962 66.806553 
L 149.681514 70.45766 
L 151.147066 73.536771 
L 152.24623 75.41644 
L 153.345395 76.910848 
L 154.444559 78.029372 
L 155.543723 78.805301 
L 156.642887 79.294823 
L 158.10844 79.635438 
L 161.405933 80.181607 
L 162.505097 80.621102 
L 163.604261 81.30298 
L 164.703425 82.254988 
L 165.80259 83.469327 
L 167.268142 85.411589 
L 170.565635 89.924292 
L 171.664799 90.959271 
L 172.397575 91.380238 
L 173.130351 91.533195 
L 173.863127 91.377636 
L 174.595904 90.87901 
L 175.32868 90.0101 
L 176.061456 88.752169 
L 176.794232 87.095804 
L 177.893396 83.867916 
L 178.992561 79.790601 
L 180.458113 73.198623 
L 182.290053 63.590301 
L 187.053098 37.523272 
L 188.518651 30.881415 
L 189.617815 26.672646 
L 190.716979 23.195668 
L 191.816144 20.468556 
L 192.915308 18.470795 
L 193.648084 17.518547 
L 194.38086 16.843804 
L 195.113636 16.419105 
L 195.846413 16.213694 
L 196.579189 16.194619 
L 197.678353 16.440813 
L 199.143905 17.105297 
L 202.807786 19.018848 
L 204.273338 19.463426 
L 205.372503 19.603822 
L 206.838055 19.534099 
L 208.303607 19.211171 
L 210.135548 18.564285 
L 214.898593 16.733457 
L 216.730533 16.292934 
L 218.562474 16.056359 
L 220.760802 15.994791 
L 224.058295 16.153796 
L 231.019669 16.520674 
L 237.248266 16.582738 
L 245.308804 16.418417 
L 245.675192 16.408249 
L 245.675192 16.408249 
" clip-path="url(#p25a1702dad)" style="fill: none; stroke: #e2655c; stroke-width: 1.5; stroke-linecap: square"/>
   </g>
   <g id="line2d_13">
    <path d="M 62.48115 16.628533 
L 66.877807 16.394306 
L 74.571957 15.912828 
L 77.136673 16.009431 
L 79.335002 16.30635 
L 81.53333 16.844191 
L 83.731659 17.641737 
L 85.929987 18.689231 
L 88.494704 20.169026 
L 96.188853 24.850548 
L 98.020794 25.622955 
L 99.852734 26.124621 
L 101.318287 26.298695 
L 102.783839 26.25384 
L 104.249391 25.984472 
L 105.714944 25.495326 
L 107.180496 24.801781 
L 109.012436 23.687709 
L 111.210765 22.085704 
L 116.706586 17.903708 
L 118.538527 16.847921 
L 120.004079 16.256033 
L 121.469631 15.944989 
L 122.568796 15.923239 
L 123.66796 16.100688 
L 124.767124 16.49025 
L 125.866288 17.101619 
L 126.965453 17.941051 
L 128.064617 19.011202 
L 129.530169 20.794591 
L 130.995722 22.972848 
L 132.461274 25.521019 
L 134.293214 29.169452 
L 136.491543 34.096724 
L 139.789036 42.154196 
L 143.819304 51.924168 
L 146.017633 56.640721 
L 147.849573 59.994135 
L 149.315126 62.208165 
L 150.780678 63.952663 
L 151.879842 64.933577 
L 152.979007 65.626591 
L 154.078171 66.032317 
L 155.177335 66.15823 
L 156.276499 66.018762 
L 157.375664 65.6352 
L 158.474828 65.035373 
L 159.94038 63.958467 
L 161.772321 62.302217 
L 166.168978 58.157967 
L 167.63453 57.1227 
L 168.733694 56.568557 
L 169.832859 56.244854 
L 170.932023 56.180393 
L 172.031187 56.396393 
L 173.130351 56.90577 
L 174.229516 57.712679 
L 175.32868 58.812342 
L 176.427844 60.191161 
L 177.893396 62.424651 
L 179.725337 65.744618 
L 181.923665 70.251641 
L 186.68671 80.178655 
L 188.518651 83.390699 
L 189.984203 85.502786 
L 191.083367 86.766607 
L 192.182532 87.726123 
L 193.281696 88.361439 
L 194.38086 88.659205 
L 195.113636 88.666545 
L 195.846413 88.520234 
L 196.945577 88.014644 
L 198.044741 87.172717 
L 199.143905 86.007335 
L 200.24307 84.536374 
L 201.708622 82.13899 
L 203.174174 79.302306 
L 205.006115 75.252197 
L 207.570831 68.933947 
L 213.799429 53.207962 
L 215.997757 48.441536 
L 217.829698 45.04976 
L 219.29525 42.771247 
L 220.760802 40.898744 
L 222.226355 39.429823 
L 223.691907 38.342956 
L 225.157459 37.598784 
L 226.623012 37.142543 
L 228.088564 36.907552 
L 230.286892 36.806546 
L 233.950773 36.683317 
L 235.782714 36.377399 
L 237.248266 35.934251 
L 238.713818 35.290109 
L 240.179371 34.44019 
L 242.011311 33.106739 
L 244.20964 31.180472 
L 245.675192 29.75963 
L 245.675192 29.75963 
" clip-path="url(#p25a1702dad)" style="fill: none; stroke: #d64f5f; stroke-width: 1.5; stroke-linecap: square"/>
   </g>
   <g id="line2d_14">
    <path d="M 62.48115 17.411918 
L 72.00724 19.486112 
L 74.571957 19.727442 
L 77.136673 19.722915 
L 79.70139 19.477836 
L 82.998882 18.900156 
L 90.326644 17.507869 
L 93.624137 17.17674 
L 97.654406 17.018168 
L 104.249391 16.767797 
L 110.111601 16.233624 
L 113.775482 15.997558 
L 116.340198 16.047899 
L 118.538527 16.313582 
L 120.370467 16.732271 
L 122.202408 17.359002 
L 124.034348 18.217234 
L 125.866288 19.327055 
L 127.698229 20.704692 
L 129.530169 22.361382 
L 131.36211 24.301503 
L 133.560438 26.995973 
L 135.758767 30.05858 
L 138.323483 34.009576 
L 146.750409 47.437496 
L 148.58235 49.805111 
L 150.047902 51.399409 
L 151.513454 52.680871 
L 152.979007 53.61679 
L 154.078171 54.078748 
L 155.177335 54.329904 
L 156.276499 54.370215 
L 157.375664 54.203844 
L 158.474828 53.839022 
L 159.94038 53.065155 
L 161.405933 51.997853 
L 163.237873 50.321926 
L 165.436201 47.945948 
L 169.832859 42.712793 
L 172.763963 39.408805 
L 174.962292 37.250936 
L 176.794232 35.735944 
L 178.626173 34.517381 
L 180.091725 33.773608 
L 181.557277 33.246424 
L 183.02283 32.944578 
L 184.488382 32.876391 
L 185.953934 33.050509 
L 187.419487 33.476351 
L 188.885039 34.164214 
L 190.350591 35.125033 
L 191.816144 36.369803 
L 193.281696 37.908702 
L 194.747248 39.749941 
L 196.212801 41.898414 
L 198.044741 45.015528 
L 199.876681 48.597697 
L 202.07501 53.458432 
L 204.639727 59.757675 
L 212.333876 79.291644 
L 213.799429 82.331695 
L 215.264981 84.883753 
L 216.364145 86.411109 
L 217.46331 87.559826 
L 218.196086 88.096907 
L 218.928862 88.440089 
L 219.661638 88.581788 
L 220.394414 88.516194 
L 221.12719 88.239424 
L 221.859967 87.749656 
L 222.592743 87.047222 
L 223.691907 85.601012 
L 224.791071 83.700598 
L 225.890235 81.375077 
L 227.355788 77.682646 
L 229.187728 72.286677 
L 231.386057 65.036848 
L 237.248266 45.312611 
L 239.080206 39.967104 
L 240.912147 35.27645 
L 242.744087 31.285911 
L 244.20964 28.588963 
L 245.675192 26.30202 
L 245.675192 26.30202 
" clip-path="url(#p25a1702dad)" style="fill: none; stroke: #c14168; stroke-width: 1.5; stroke-linecap: square"/>
   </g>
   <g id="line2d_15">
    <path d="M 62.48115 16.925093 
L 66.877807 17.814832 
L 72.740016 19.009021 
L 75.671121 19.379568 
L 78.235837 19.495342 
L 80.800554 19.40243 
L 83.731659 19.073582 
L 88.128316 18.319963 
L 93.990525 17.338584 
L 98.387182 16.837901 
L 105.714944 16.283536 
L 112.676317 15.922237 
L 115.97381 15.953559 
L 118.904915 16.205498 
L 121.469631 16.662999 
L 123.66796 17.27155 
L 125.866288 18.11154 
L 128.064617 19.209877 
L 130.262945 20.587954 
L 132.461274 22.257663 
L 134.659602 24.216121 
L 137.224319 26.833314 
L 140.155424 30.158441 
L 146.750409 37.787634 
L 148.948738 39.925309 
L 150.780678 41.392519 
L 152.24623 42.317182 
L 153.711783 42.996076 
L 155.177335 43.415954 
L 156.642887 43.573104 
L 158.10844 43.473541 
L 159.573992 43.132601 
L 161.039544 42.573961 
L 162.871485 41.616591 
L 165.069813 40.181746 
L 168.733694 37.440112 
L 172.397575 34.755881 
L 174.962292 33.153993 
L 177.16062 32.055605 
L 178.992561 31.36865 
L 180.824501 30.910776 
L 182.656441 30.700304 
L 184.488382 30.756808 
L 185.953934 31.009433 
L 187.419487 31.461023 
L 188.885039 32.126755 
L 190.350591 33.022978 
L 191.816144 34.166483 
L 193.281696 35.573513 
L 194.747248 37.258577 
L 196.212801 39.233104 
L 198.044741 42.118268 
L 199.876681 45.465767 
L 201.708622 49.25574 
L 203.90695 54.323643 
L 206.838055 61.734272 
L 212.333876 75.8293 
L 214.165817 79.890978 
L 215.631369 82.66326 
L 216.730533 84.39222 
L 217.829698 85.773651 
L 218.928862 86.770249 
L 219.661638 87.205344 
L 220.394414 87.448362 
L 221.12719 87.493849 
L 221.859967 87.338233 
L 222.592743 86.979944 
L 223.325519 86.419484 
L 224.424683 85.206033 
L 225.523847 83.561815 
L 226.623012 81.51485 
L 228.088564 78.225024 
L 229.920504 73.371283 
L 232.118833 66.799268 
L 238.713818 46.543571 
L 240.912147 40.769301 
L 242.744087 36.55283 
L 244.576028 32.888047 
L 245.675192 30.94216 
L 245.675192 30.94216 
" clip-path="url(#p25a1702dad)" style="fill: none; stroke: #aa3a6e; stroke-width: 1.5; stroke-linecap: square"/>
   </g>
   <g id="line2d_16">
    <path d="M 62.48115 16.484197 
L 66.511419 17.064697 
L 78.235837 18.946284 
L 81.166942 19.06743 
L 84.098047 18.961453 
L 87.395539 18.609335 
L 92.891361 17.739605 
L 98.75357 16.877308 
L 103.883003 16.363211 
L 109.745213 16.008716 
L 114.508258 15.914313 
L 118.172139 16.038536 
L 121.469631 16.373013 
L 124.400736 16.903811 
L 126.965453 17.586662 
L 129.530169 18.502996 
L 132.094886 19.674322 
L 134.659602 21.109075 
L 137.224319 22.794133 
L 140.521812 25.254751 
L 148.215962 31.155015 
L 150.41429 32.497981 
L 152.24623 33.386151 
L 154.078171 34.02817 
L 155.910111 34.405193 
L 157.742052 34.514782 
L 159.573992 34.371122 
L 161.405933 34.003523 
L 163.604261 33.325723 
L 166.535366 32.163121 
L 173.130351 29.460229 
L 175.695068 28.67345 
L 178.259784 28.13341 
L 180.458113 27.896027 
L 182.656441 27.891523 
L 184.488382 28.087036 
L 186.320322 28.488085 
L 188.152263 29.123886 
L 189.984203 30.029389 
L 191.449755 30.974327 
L 192.915308 32.138332 
L 194.38086 33.542721 
L 195.846413 35.2077 
L 197.311965 37.151034 
L 199.143905 39.992119 
L 200.975846 43.30299 
L 202.807786 47.077135 
L 205.006115 52.168327 
L 207.570831 58.721072 
L 214.165817 75.927953 
L 215.997757 79.869344 
L 217.46331 82.469016 
L 218.562474 84.028008 
L 219.661638 85.211545 
L 220.760802 85.991504 
L 221.493578 86.277472 
L 222.226355 86.372238 
L 222.959131 86.274695 
L 223.691907 85.985841 
L 224.424683 85.508773 
L 225.523847 84.452046 
L 226.623012 83.009262 
L 227.722176 81.214514 
L 229.187728 78.346107 
L 231.019669 74.155424 
L 233.584385 67.576774 
L 239.812983 51.283639 
L 242.377699 45.28949 
L 244.942416 39.865127 
L 245.675192 38.416336 
L 245.675192 38.416336 
" clip-path="url(#p25a1702dad)" style="fill: none; stroke: #923371; stroke-width: 1.5; stroke-linecap: square"/>
   </g>
   <g id="line2d_17">
    <path d="M 62.48115 16.000612 
L 67.610583 16.282337 
L 72.740016 16.798161 
L 80.800554 17.646912 
L 84.464435 17.790999 
L 88.128316 17.704999 
L 92.524973 17.356902 
L 104.982168 16.214376 
L 111.210765 15.954682 
L 116.706586 15.943 
L 120.736855 16.13499 
L 124.400736 16.52522 
L 127.698229 17.098814 
L 130.995722 17.917321 
L 133.926826 18.866136 
L 137.224319 20.176339 
L 141.254588 22.051792 
L 148.215962 25.350549 
L 150.780678 26.308019 
L 152.979007 26.919813 
L 155.177335 27.306125 
L 157.375664 27.457925 
L 159.573992 27.388989 
L 162.138709 27.076508 
L 165.436201 26.433489 
L 172.763963 24.914482 
L 176.061456 24.495332 
L 178.992561 24.341005 
L 181.923665 24.426125 
L 184.488382 24.73705 
L 186.68671 25.223468 
L 188.518651 25.822016 
L 190.350591 26.635428 
L 192.182532 27.707212 
L 194.014472 29.086244 
L 195.480024 30.445856 
L 196.945577 32.06286 
L 198.411129 33.963187 
L 199.876681 36.169439 
L 201.708622 39.38209 
L 203.540562 43.110276 
L 205.372503 47.334342 
L 207.570831 52.969152 
L 210.868324 62.137388 
L 214.165817 71.189559 
L 215.997757 75.670935 
L 217.46331 78.768951 
L 218.928862 81.317687 
L 220.028026 82.816404 
L 221.12719 83.931305 
L 222.226355 84.645819 
L 222.959131 84.896141 
L 223.691907 84.966092 
L 224.424683 84.858266 
L 225.157459 84.577116 
L 226.256624 83.844325 
L 227.355788 82.762859 
L 228.454952 81.365872 
L 229.920504 79.077362 
L 231.752445 75.664801 
L 233.950773 70.995741 
L 237.248266 63.352415 
L 245.675192 43.311685 
L 245.675192 43.311685 
" clip-path="url(#p25a1702dad)" style="fill: none; stroke: #7a2e70; stroke-width: 1.5; stroke-linecap: square"/>
   </g>
   <g id="line2d_18">
    <path d="M 62.48115 15.915298 
L 69.808911 16.074452 
L 77.136673 16.484934 
L 84.464435 16.837583 
L 89.22748 16.837116 
L 95.089689 16.59671 
L 107.913272 16.009872 
L 115.241034 15.918581 
L 120.736855 16.055754 
L 125.133512 16.37062 
L 129.163781 16.866167 
L 133.19405 17.582738 
L 137.590707 18.606665 
L 151.147066 22.014435 
L 154.078171 22.38967 
L 157.009276 22.545602 
L 160.306768 22.487391 
L 165.069813 22.137142 
L 171.664799 21.667225 
L 175.695068 21.608404 
L 179.358949 21.760834 
L 182.656441 22.101912 
L 185.587546 22.628793 
L 188.152263 23.338671 
L 190.350591 24.203615 
L 192.182532 25.160168 
L 194.014472 26.383075 
L 195.846413 27.926238 
L 197.311965 29.429176 
L 198.777517 31.201355 
L 200.24307 33.268374 
L 202.07501 36.297197 
L 203.90695 39.839299 
L 205.738891 43.886233 
L 207.937219 49.339062 
L 210.868324 57.323743 
L 215.264981 69.384038 
L 217.096921 73.814631 
L 218.562474 76.878558 
L 220.028026 79.406709 
L 221.12719 80.902989 
L 222.226355 82.029341 
L 223.325519 82.770977 
L 224.058295 83.048594 
L 224.791071 83.15329 
L 225.523847 83.087499 
L 226.256624 82.855311 
L 227.355788 82.207659 
L 228.454952 81.222907 
L 229.554116 79.930719 
L 231.019669 77.787451 
L 232.485221 75.240664 
L 234.317161 71.615885 
L 236.881878 65.977056 
L 240.912147 56.451028 
L 245.675192 45.031346 
L 245.675192 45.031346 
" clip-path="url(#p25a1702dad)" style="fill: none; stroke: #62296a; stroke-width: 1.5; stroke-linecap: square"/>
   </g>
   <g id="line2d_19">
    <path d="M 62.48115 15.910464 
L 71.640852 16.043129 
L 89.960256 16.475559 
L 98.387182 16.241728 
L 110.477989 15.939142 
L 118.538527 15.95308 
L 124.767124 16.186077 
L 130.262945 16.615572 
L 136.125155 17.313471 
L 150.780678 19.228861 
L 154.810947 19.425156 
L 159.573992 19.41186 
L 170.932023 19.252776 
L 175.695068 19.483442 
L 180.458113 19.938089 
L 184.121994 20.483202 
L 187.053098 21.123682 
L 189.617815 21.922779 
L 191.816144 22.863892 
L 193.648084 23.887856 
L 195.480024 25.184642 
L 197.311965 26.809997 
L 198.777517 28.384986 
L 200.24307 30.234009 
L 201.708622 32.380738 
L 203.540562 35.508236 
L 205.372503 39.139423 
L 207.204443 43.254467 
L 209.402772 48.743919 
L 212.700264 57.681793 
L 216.364145 67.476968 
L 218.196086 71.807069 
L 219.661638 74.803268 
L 221.12719 77.281358 
L 222.226355 78.754497 
L 223.325519 79.871468 
L 224.424683 80.617962 
L 225.157459 80.906606 
L 225.890235 81.028245 
L 226.623012 80.984876 
L 227.355788 80.780018 
L 228.454952 80.18104 
L 229.554116 79.251766 
L 230.653281 78.018942 
L 232.118833 75.955821 
L 233.584385 73.48465 
L 235.416326 69.941145 
L 237.981042 64.385801 
L 242.011311 54.94941 
L 245.675192 46.259937 
L 245.675192 46.259937 
" clip-path="url(#p25a1702dad)" style="fill: none; stroke: #4b2362; stroke-width: 1.5; stroke-linecap: square"/>
   </g>
   <g id="patch_3">
    <path d="M 53.321448 100.519789 
L 53.321448 11.88 
" style="fill: none; stroke: #000000; stroke-width: 0.8; stroke-linejoin: miter; stroke-linecap: square"/>
   </g>
   <g id="patch_4">
    <path d="M 254.834894 100.519789 
L 254.834894 11.88 
" style="fill: none; stroke: #000000; stroke-width: 0.8; stroke-linejoin: miter; stroke-linecap: square"/>
   </g>
   <g id="patch_5">
    <path d="M 53.321448 100.519789 
L 254.834894 100.519789 
" style="fill: none; stroke: #000000; stroke-width: 0.8; stroke-linejoin: miter; stroke-linecap: square"/>
   </g>
   <g id="patch_6">
    <path d="M 53.321448 11.88 
L 254.834894 11.88 
" style="fill: none; stroke: #000000; stroke-width: 0.8; stroke-linejoin: miter; stroke-linecap: square"/>
   </g>
   <g id="legend_1">
    <g id="line2d_20">
     <path d="M 58.821558 21.23011 
L 67.071558 21.23011 
L 75.321558 21.23011 
" style="fill: none; stroke: #edb081; stroke-width: 1.5; stroke-linecap: square"/>
    </g>
    <g id="text_11">
     <!-- $\Delta_H \delta t=0.0$ -->
     <g transform="translate(79.721558 25.08011) scale(0.11 -0.11)">
      <defs>
       <path id="CMR17-1" d="M 2598 4403 
C 2547 4512 2522 4512 2470 4512 
C 2394 4512 2387 4499 2342 4409 
L 269 109 
C 262 96 237 38 237 32 
C 237 6 243 0 358 0 
L 4576 0 
C 4691 0 4698 6 4698 32 
C 4698 38 4672 96 4666 109 
L 2598 4403 
z
M 2310 4038 
L 4083 358 
L 531 358 
L 2310 4038 
z
" transform="scale(0.015625)"/>
       <path id="CMMI12-48" d="M 4787 3887 
C 4845 4103 4858 4167 5312 4167 
C 5427 4167 5491 4167 5491 4282 
C 5491 4352 5434 4352 5395 4352 
C 5280 4352 5146 4352 5024 4352 
L 4269 4352 
C 4147 4352 4013 4352 3891 4352 
C 3846 4352 3770 4352 3770 4231 
C 3770 4167 3814 4167 3936 4167 
C 4320 4167 4320 4116 4320 4046 
C 4320 4034 4320 3995 4294 3900 
L 3904 2361 
L 1971 2361 
L 2355 3887 
C 2413 4103 2426 4167 2880 4167 
C 2995 4167 3059 4167 3059 4282 
C 3059 4352 3002 4352 2963 4352 
C 2848 4352 2714 4352 2592 4352 
L 1837 4352 
C 1715 4352 1581 4352 1459 4352 
C 1414 4352 1338 4352 1338 4231 
C 1338 4167 1382 4167 1504 4167 
C 1888 4167 1888 4116 1888 4046 
C 1888 4034 1888 3995 1862 3899 
L 998 472 
C 941 249 928 185 486 185 
C 339 185 294 185 294 64 
C 294 0 365 0 384 0 
C 499 0 634 0 755 0 
L 1510 0 
C 1632 0 1766 0 1888 0 
C 1939 0 2010 0 2010 121 
C 2010 185 1952 185 1856 185 
C 1466 185 1466 236 1466 300 
C 1466 307 1466 351 1478 402 
L 1920 2176 
L 3859 2176 
C 3750 1753 3424 416 3411 376 
C 3341 185 3238 185 2861 185 
C 2784 185 2726 185 2726 64 
C 2726 0 2797 0 2816 0 
C 2931 0 3066 0 3187 0 
L 3942 0 
C 4064 0 4198 0 4320 0 
C 4371 0 4442 0 4442 121 
C 4442 185 4384 185 4288 185 
C 3898 185 3898 236 3898 300 
C 3898 307 3898 351 3910 402 
L 4787 3887 
z
" transform="scale(0.015625)"/>
       <path id="CMMI12-e" d="M 1664 2795 
C 845 2597 256 1748 256 1001 
C 256 319 717 -64 1229 -64 
C 1984 -64 2496 970 2496 1818 
C 2496 2392 2227 2744 2067 2954 
C 1830 3254 1446 3746 1446 4052 
C 1446 4161 1530 4352 1811 4352 
C 2010 4352 2131 4282 2323 4173 
C 2381 4134 2528 4052 2611 4052 
C 2746 4052 2842 4185 2842 4287 
C 2842 4409 2746 4428 2522 4479 
C 2221 4543 2131 4543 2022 4543 
C 1914 4543 1286 4543 1286 3892 
C 1286 3579 1446 3216 1664 2795 
z
M 1734 2669 
C 1978 2165 2074 1974 2074 1560 
C 2074 1063 1805 63 1235 63 
C 986 63 627 229 627 821 
C 627 1235 864 2439 1734 2669 
z
" transform="scale(0.015625)"/>
       <path id="CMMI12-74" d="M 1286 2566 
L 1875 2566 
C 1997 2566 2061 2566 2061 2681 
C 2061 2752 2022 2752 1894 2752 
L 1331 2752 
L 1568 3692 
C 1594 3781 1594 3794 1594 3840 
C 1594 3943 1510 4000 1427 4000 
C 1376 4000 1229 3981 1178 3775 
L 928 2752 
L 326 2752 
C 198 2752 141 2752 141 2630 
C 141 2566 186 2566 307 2566 
L 877 2566 
L 454 881 
C 403 658 384 594 384 511 
C 384 211 595 -64 954 -64 
C 1600 -64 1946 868 1946 912 
C 1946 951 1920 970 1882 970 
C 1869 970 1843 970 1830 944 
C 1824 938 1818 931 1773 829 
C 1638 511 1344 64 973 64 
C 781 64 768 224 768 364 
C 768 370 768 492 787 568 
L 1286 2566 
z
" transform="scale(0.015625)"/>
       <path id="CMR17-3d" d="M 4115 2017 
C 4211 2017 4307 2017 4307 2125 
C 4307 2240 4198 2240 4090 2240 
L 512 2240 
C 403 2240 294 2240 294 2125 
C 294 2017 390 2017 486 2017 
L 4115 2017 
z
M 4090 896 
C 4198 896 4307 896 4307 1011 
C 4307 1119 4211 1119 4115 1119 
L 486 1119 
C 390 1119 294 1119 294 1011 
C 294 896 403 896 512 896 
L 4090 896 
z
" transform="scale(0.015625)"/>
      </defs>
      <use xlink:href="#CMR17-1" transform="scale(0.996264)"/>
      <use xlink:href="#CMMI12-48" transform="translate(76.91959 -14.943915) scale(0.697382)"/>
      <use xlink:href="#CMMI12-e" transform="translate(139.38268 0) scale(0.996264)"/>
      <use xlink:href="#CMMI12-74" transform="translate(186.324066 0) scale(0.996264)"/>
      <use xlink:href="#CMR17-3d" transform="translate(249.224405 0) scale(0.996264)"/>
      <use xlink:href="#CMR17-30" transform="translate(348.613202 0) scale(0.996264)"/>
      <use xlink:href="#CMMI12-3a" transform="translate(394.303679 0) scale(0.996264)"/>
      <use xlink:href="#CMR17-30" transform="translate(421.400856 0) scale(0.996264)"/>
     </g>
    </g>
    <g id="line2d_21">
     <path d="M 58.821558 36.561005 
L 67.071558 36.561005 
L 75.321558 36.561005 
" style="fill: none; stroke: #eb9872; stroke-width: 1.5; stroke-linecap: square"/>
    </g>
    <g id="text_12">
     <!-- $\Delta_H \delta t=1.0$ -->
     <g transform="translate(79.721558 40.411005) scale(0.11 -0.11)">
      <use xlink:href="#CMR17-1" transform="scale(0.996264)"/>
      <use xlink:href="#CMMI12-48" transform="translate(76.91959 -14.943915) scale(0.697382)"/>
      <use xlink:href="#CMMI12-e" transform="translate(139.38268 0) scale(0.996264)"/>
      <use xlink:href="#CMMI12-74" transform="translate(186.324066 0) scale(0.996264)"/>
      <use xlink:href="#CMR17-3d" transform="translate(249.224405 0) scale(0.996264)"/>
      <use xlink:href="#CMR17-31" transform="translate(348.613202 0) scale(0.996264)"/>
      <use xlink:href="#CMMI12-3a" transform="translate(394.303679 0) scale(0.996264)"/>
      <use xlink:href="#CMR17-30" transform="translate(421.400856 0) scale(0.996264)"/>
     </g>
    </g>
    <g id="line2d_22">
     <path d="M 58.821558 51.891899 
L 67.071558 51.891899 
L 75.321558 51.891899 
" style="fill: none; stroke: #e77e63; stroke-width: 1.5; stroke-linecap: square"/>
    </g>
    <g id="text_13">
     <!-- $\Delta_H \delta t=2.0$ -->
     <g transform="translate(79.721558 55.741899) scale(0.11 -0.11)">
      <use xlink:href="#CMR17-1" transform="scale(0.996264)"/>
      <use xlink:href="#CMMI12-48" transform="translate(76.91959 -14.943915) scale(0.697382)"/>
      <use xlink:href="#CMMI12-e" transform="translate(139.38268 0) scale(0.996264)"/>
      <use xlink:href="#CMMI12-74" transform="translate(186.324066 0) scale(0.996264)"/>
      <use xlink:href="#CMR17-3d" transform="translate(249.224405 0) scale(0.996264)"/>
      <use xlink:href="#CMR17-32" transform="translate(348.613202 0) scale(0.996264)"/>
      <use xlink:href="#CMMI12-3a" transform="translate(394.303679 0) scale(0.996264)"/>
      <use xlink:href="#CMR17-30" transform="translate(421.400856 0) scale(0.996264)"/>
     </g>
    </g>
    <g id="line2d_23">
     <path d="M 58.821558 67.222794 
L 67.071558 67.222794 
L 75.321558 67.222794 
" style="fill: none; stroke: #e2655c; stroke-width: 1.5; stroke-linecap: square"/>
    </g>
    <g id="text_14">
     <!-- $\Delta_H \delta t=3.0$ -->
     <g transform="translate(79.721558 71.072794) scale(0.11 -0.11)">
      <defs>
       <path id="CMR17-33" d="M 1414 2157 
C 1984 2157 2234 1662 2234 1090 
C 2234 320 1824 25 1453 25 
C 1114 25 563 194 390 693 
C 422 680 454 680 486 680 
C 640 680 755 782 755 948 
C 755 1133 614 1216 486 1216 
C 378 1216 211 1165 211 926 
C 211 335 787 -128 1466 -128 
C 2176 -128 2720 430 2720 1085 
C 2720 1707 2208 2157 1600 2227 
C 2086 2328 2554 2756 2554 3329 
C 2554 3820 2048 4179 1472 4179 
C 890 4179 378 3829 378 3329 
C 378 3110 544 3072 627 3072 
C 762 3072 877 3155 877 3321 
C 877 3486 762 3569 627 3569 
C 602 3569 570 3569 544 3557 
C 730 3959 1235 4032 1459 4032 
C 1683 4032 2106 3925 2106 3320 
C 2106 3143 2080 2828 1862 2550 
C 1670 2304 1453 2304 1242 2284 
C 1210 2284 1062 2269 1037 2269 
C 992 2263 966 2257 966 2208 
C 966 2163 973 2157 1101 2157 
L 1414 2157 
z
" transform="scale(0.015625)"/>
      </defs>
      <use xlink:href="#CMR17-1" transform="scale(0.996264)"/>
      <use xlink:href="#CMMI12-48" transform="translate(76.91959 -14.943915) scale(0.697382)"/>
      <use xlink:href="#CMMI12-e" transform="translate(139.38268 0) scale(0.996264)"/>
      <use xlink:href="#CMMI12-74" transform="translate(186.324066 0) scale(0.996264)"/>
      <use xlink:href="#CMR17-3d" transform="translate(249.224405 0) scale(0.996264)"/>
      <use xlink:href="#CMR17-33" transform="translate(348.613202 0) scale(0.996264)"/>
      <use xlink:href="#CMMI12-3a" transform="translate(394.303679 0) scale(0.996264)"/>
      <use xlink:href="#CMR17-30" transform="translate(421.400856 0) scale(0.996264)"/>
     </g>
    </g>
    <g id="line2d_24">
     <path d="M 58.821558 82.553689 
L 67.071558 82.553689 
L 75.321558 82.553689 
" style="fill: none; stroke: #d64f5f; stroke-width: 1.5; stroke-linecap: square"/>
    </g>
    <g id="text_15">
     <!-- $\Delta_H \delta t=4.0$ -->
     <g transform="translate(79.721558 86.403689) scale(0.11 -0.11)">
      <defs>
       <path id="CMR17-34" d="M 2150 4122 
C 2150 4256 2144 4256 2029 4256 
L 128 1254 
L 128 1088 
L 1779 1088 
L 1779 457 
C 1779 224 1766 160 1318 160 
L 1197 160 
L 1197 0 
C 1402 0 1747 0 1965 0 
C 2182 0 2528 0 2733 0 
L 2733 160 
L 2611 160 
C 2163 160 2150 224 2150 457 
L 2150 1088 
L 2803 1088 
L 2803 1254 
L 2150 1254 
L 2150 4122 
z
M 1798 3703 
L 1798 1254 
L 256 1254 
L 1798 3703 
z
" transform="scale(0.015625)"/>
      </defs>
      <use xlink:href="#CMR17-1" transform="scale(0.996264)"/>
      <use xlink:href="#CMMI12-48" transform="translate(76.91959 -14.943915) scale(0.697382)"/>
      <use xlink:href="#CMMI12-e" transform="translate(139.38268 0) scale(0.996264)"/>
      <use xlink:href="#CMMI12-74" transform="translate(186.324066 0) scale(0.996264)"/>
      <use xlink:href="#CMR17-3d" transform="translate(249.224405 0) scale(0.996264)"/>
      <use xlink:href="#CMR17-34" transform="translate(348.613202 0) scale(0.996264)"/>
      <use xlink:href="#CMMI12-3a" transform="translate(394.303679 0) scale(0.996264)"/>
      <use xlink:href="#CMR17-30" transform="translate(421.400856 0) scale(0.996264)"/>
     </g>
    </g>
    <g id="line2d_25">
     <path d="M 58.821558 97.884583 
L 67.071558 97.884583 
L 75.321558 97.884583 
" style="fill: none; stroke: #c14168; stroke-width: 1.5; stroke-linecap: square"/>
    </g>
    <g id="text_16">
     <!-- $\Delta_H \delta t=5.0$ -->
     <g transform="translate(79.721558 101.734583) scale(0.11 -0.11)">
      <use xlink:href="#CMR17-1" transform="scale(0.996264)"/>
      <use xlink:href="#CMMI12-48" transform="translate(76.91959 -14.943915) scale(0.697382)"/>
      <use xlink:href="#CMMI12-e" transform="translate(139.38268 0) scale(0.996264)"/>
      <use xlink:href="#CMMI12-74" transform="translate(186.324066 0) scale(0.996264)"/>
      <use xlink:href="#CMR17-3d" transform="translate(249.224405 0) scale(0.996264)"/>
      <use xlink:href="#CMR17-35" transform="translate(348.613202 0) scale(0.996264)"/>
      <use xlink:href="#CMMI12-3a" transform="translate(394.303679 0) scale(0.996264)"/>
      <use xlink:href="#CMR17-30" transform="translate(421.400856 0) scale(0.996264)"/>
     </g>
    </g>
    <g id="line2d_26">
     <path d="M 58.821558 113.215478 
L 67.071558 113.215478 
L 75.321558 113.215478 
" style="fill: none; stroke: #aa3a6e; stroke-width: 1.5; stroke-linecap: square"/>
    </g>
    <g id="text_17">
     <!-- $\Delta_H \delta t=6.0$ -->
     <g transform="translate(79.721558 117.065478) scale(0.11 -0.11)">
      <defs>
       <path id="CMR17-36" d="M 678 2176 
C 678 3690 1395 4032 1811 4032 
C 1946 4032 2272 4009 2400 3776 
C 2298 3776 2106 3776 2106 3553 
C 2106 3381 2246 3323 2336 3323 
C 2394 3323 2566 3348 2566 3560 
C 2566 3954 2246 4179 1805 4179 
C 1043 4179 243 3390 243 1984 
C 243 253 966 -128 1478 -128 
C 2099 -128 2688 427 2688 1283 
C 2688 2081 2170 2662 1517 2662 
C 1126 2662 838 2407 678 1960 
L 678 2176 
z
M 1478 25 
C 691 25 691 1200 691 1436 
C 691 1896 909 2560 1504 2560 
C 1613 2560 1926 2560 2138 2120 
C 2253 1870 2253 1609 2253 1289 
C 2253 944 2253 690 2118 434 
C 1978 171 1773 25 1478 25 
z
" transform="scale(0.015625)"/>
      </defs>
      <use xlink:href="#CMR17-1" transform="scale(0.996264)"/>
      <use xlink:href="#CMMI12-48" transform="translate(76.91959 -14.943915) scale(0.697382)"/>
      <use xlink:href="#CMMI12-e" transform="translate(139.38268 0) scale(0.996264)"/>
      <use xlink:href="#CMMI12-74" transform="translate(186.324066 0) scale(0.996264)"/>
      <use xlink:href="#CMR17-3d" transform="translate(249.224405 0) scale(0.996264)"/>
      <use xlink:href="#CMR17-36" transform="translate(348.613202 0) scale(0.996264)"/>
      <use xlink:href="#CMMI12-3a" transform="translate(394.303679 0) scale(0.996264)"/>
      <use xlink:href="#CMR17-30" transform="translate(421.400856 0) scale(0.996264)"/>
     </g>
    </g>
    <g id="line2d_27">
     <path d="M 58.821558 128.546373 
L 67.071558 128.546373 
L 75.321558 128.546373 
" style="fill: none; stroke: #923371; stroke-width: 1.5; stroke-linecap: square"/>
    </g>
    <g id="text_18">
     <!-- $\Delta_H \delta t=7.0$ -->
     <g transform="translate(79.721558 132.396373) scale(0.11 -0.11)">
      <defs>
       <path id="CMR17-37" d="M 2886 3941 
L 2886 4081 
L 1382 4081 
C 634 4081 621 4165 595 4288 
L 480 4288 
L 294 3094 
L 410 3094 
C 429 3215 474 3540 550 3661 
C 589 3712 1062 3712 1171 3712 
L 2579 3712 
L 1869 2661 
C 1395 1954 1069 999 1069 165 
C 1069 89 1069 -128 1299 -128 
C 1530 -128 1530 89 1530 171 
L 1530 465 
C 1530 1508 1709 2196 2003 2636 
L 2886 3941 
z
" transform="scale(0.015625)"/>
      </defs>
      <use xlink:href="#CMR17-1" transform="scale(0.996264)"/>
      <use xlink:href="#CMMI12-48" transform="translate(76.91959 -14.943915) scale(0.697382)"/>
      <use xlink:href="#CMMI12-e" transform="translate(139.38268 0) scale(0.996264)"/>
      <use xlink:href="#CMMI12-74" transform="translate(186.324066 0) scale(0.996264)"/>
      <use xlink:href="#CMR17-3d" transform="translate(249.224405 0) scale(0.996264)"/>
      <use xlink:href="#CMR17-37" transform="translate(348.613202 0) scale(0.996264)"/>
      <use xlink:href="#CMMI12-3a" transform="translate(394.303679 0) scale(0.996264)"/>
      <use xlink:href="#CMR17-30" transform="translate(421.400856 0) scale(0.996264)"/>
     </g>
    </g>
    <g id="line2d_28">
     <path d="M 58.821558 143.877267 
L 67.071558 143.877267 
L 75.321558 143.877267 
" style="fill: none; stroke: #7a2e70; stroke-width: 1.5; stroke-linecap: square"/>
    </g>
    <g id="text_19">
     <!-- $\Delta_H \delta t=8.0$ -->
     <g transform="translate(79.721558 147.727267) scale(0.11 -0.11)">
      <defs>
       <path id="CMR17-38" d="M 1741 2264 
C 2144 2467 2554 2773 2554 3263 
C 2554 3841 1990 4179 1472 4179 
C 890 4179 378 3759 378 3180 
C 378 3021 416 2747 666 2505 
C 730 2442 998 2251 1171 2130 
C 883 1983 211 1634 211 934 
C 211 279 838 -128 1459 -128 
C 2144 -128 2720 362 2720 1010 
C 2720 1590 2330 1857 2074 2029 
L 1741 2264 
z
M 902 2822 
C 851 2854 595 3051 595 3351 
C 595 3739 998 4032 1459 4032 
C 1965 4032 2336 3676 2336 3262 
C 2336 2669 1670 2331 1638 2331 
C 1632 2331 1626 2331 1574 2370 
L 902 2822 
z
M 2080 1519 
C 2176 1449 2483 1240 2483 851 
C 2483 381 2010 25 1472 25 
C 890 25 448 438 448 940 
C 448 1443 838 1862 1280 2060 
L 2080 1519 
z
" transform="scale(0.015625)"/>
      </defs>
      <use xlink:href="#CMR17-1" transform="scale(0.996264)"/>
      <use xlink:href="#CMMI12-48" transform="translate(76.91959 -14.943915) scale(0.697382)"/>
      <use xlink:href="#CMMI12-e" transform="translate(139.38268 0) scale(0.996264)"/>
      <use xlink:href="#CMMI12-74" transform="translate(186.324066 0) scale(0.996264)"/>
      <use xlink:href="#CMR17-3d" transform="translate(249.224405 0) scale(0.996264)"/>
      <use xlink:href="#CMR17-38" transform="translate(348.613202 0) scale(0.996264)"/>
      <use xlink:href="#CMMI12-3a" transform="translate(394.303679 0) scale(0.996264)"/>
      <use xlink:href="#CMR17-30" transform="translate(421.400856 0) scale(0.996264)"/>
     </g>
    </g>
    <g id="line2d_29">
     <path d="M 58.821558 159.208162 
L 67.071558 159.208162 
L 75.321558 159.208162 
" style="fill: none; stroke: #62296a; stroke-width: 1.5; stroke-linecap: square"/>
    </g>
    <g id="text_20">
     <!-- $\Delta_H \delta t=9.0$ -->
     <g transform="translate(79.721558 163.058162) scale(0.11 -0.11)">
      <defs>
       <path id="CMR17-39" d="M 2253 1864 
C 2253 464 1670 31 1190 31 
C 1043 31 685 31 538 294 
C 704 268 826 357 826 518 
C 826 692 685 749 595 749 
C 538 749 365 723 365 506 
C 365 71 742 -128 1203 -128 
C 1939 -128 2688 674 2688 2073 
C 2688 3817 1971 4179 1485 4179 
C 851 4179 243 3628 243 2778 
C 243 1991 762 1408 1414 1408 
C 1952 1408 2189 1903 2253 2112 
L 2253 1864 
z
M 1427 1510 
C 1254 1510 1011 1542 813 1922 
C 678 2169 678 2461 678 2771 
C 678 3146 678 3405 858 3684 
C 947 3817 1114 4032 1485 4032 
C 2240 4032 2240 2885 2240 2632 
C 2240 2182 2035 1510 1427 1510 
z
" transform="scale(0.015625)"/>
      </defs>
      <use xlink:href="#CMR17-1" transform="scale(0.996264)"/>
      <use xlink:href="#CMMI12-48" transform="translate(76.91959 -14.943915) scale(0.697382)"/>
      <use xlink:href="#CMMI12-e" transform="translate(139.38268 0) scale(0.996264)"/>
      <use xlink:href="#CMMI12-74" transform="translate(186.324066 0) scale(0.996264)"/>
      <use xlink:href="#CMR17-3d" transform="translate(249.224405 0) scale(0.996264)"/>
      <use xlink:href="#CMR17-39" transform="translate(348.613202 0) scale(0.996264)"/>
      <use xlink:href="#CMMI12-3a" transform="translate(394.303679 0) scale(0.996264)"/>
      <use xlink:href="#CMR17-30" transform="translate(421.400856 0) scale(0.996264)"/>
     </g>
    </g>
    <g id="line2d_30">
     <path style="fill: none; stroke: #4b2362; stroke-width: 1.5; stroke-linecap: square"/>
    </g>
    <g id="text_21">
     <!-- $\Delta_H \delta t=10.0$ -->
     <g transform="translate(79.721558 178.389056) scale(0.11 -0.11)">
      <use xlink:href="#CMR17-1" transform="scale(0.996264)"/>
      <use xlink:href="#CMMI12-48" transform="translate(76.91959 -14.943915) scale(0.697382)"/>
      <use xlink:href="#CMMI12-e" transform="translate(139.38268 0) scale(0.996264)"/>
      <use xlink:href="#CMMI12-74" transform="translate(186.324066 0) scale(0.996264)"/>
      <use xlink:href="#CMR17-3d" transform="translate(249.224405 0) scale(0.996264)"/>
      <use xlink:href="#CMR17-31" transform="translate(348.613202 0) scale(0.996264)"/>
      <use xlink:href="#CMR17-30" transform="translate(394.303679 0) scale(0.996264)"/>
      <use xlink:href="#CMMI12-3a" transform="translate(439.994156 0) scale(0.996264)"/>
      <use xlink:href="#CMR17-30" transform="translate(467.091334 0) scale(0.996264)"/>
     </g>
    </g>
   </g>
  </g>
  <g id="axes_2">
   <g id="patch_7">
    <path d="M 294.701199 100.519789 
L 496.214645 100.519789 
L 496.214645 11.88 
L 294.701199 11.88 
z
" style="fill: #ffffff"/>
   </g>
   <g id="matplotlib.axis_3">
    <g id="xtick_6">
     <g id="line2d_31">
      <g>
       <use xlink:href="#m0e82f77c74" x="303.860901" y="100.519789" style="stroke: #000000; stroke-width: 0.8"/>
      </g>
     </g>
     <g id="text_22">
      <!-- $\mathdefault{0}$ -->
      <g transform="translate(301.121167 115.130136) scale(0.11 -0.11)">
       <use xlink:href="#CMR17-30" transform="scale(0.996264)"/>
      </g>
     </g>
    </g>
    <g id="xtick_7">
     <g id="line2d_32">
      <g>
       <use xlink:href="#m0e82f77c74" x="344.570688" y="100.519789" style="stroke: #000000; stroke-width: 0.8"/>
      </g>
     </g>
     <g id="text_23">
      <!-- $\mathdefault{2}$ -->
      <g transform="translate(341.830954 115.130136) scale(0.11 -0.11)">
       <use xlink:href="#CMR17-32" transform="scale(0.996264)"/>
      </g>
     </g>
    </g>
    <g id="xtick_8">
     <g id="line2d_33">
      <g>
       <use xlink:href="#m0e82f77c74" x="385.280475" y="100.519789" style="stroke: #000000; stroke-width: 0.8"/>
      </g>
     </g>
     <g id="text_24">
      <!-- $\mathdefault{4}$ -->
      <g transform="translate(382.540741 115.130136) scale(0.11 -0.11)">
       <use xlink:href="#CMR17-34" transform="scale(0.996264)"/>
      </g>
     </g>
    </g>
    <g id="xtick_9">
     <g id="line2d_34">
      <g>
       <use xlink:href="#m0e82f77c74" x="425.990262" y="100.519789" style="stroke: #000000; stroke-width: 0.8"/>
      </g>
     </g>
     <g id="text_25">
      <!-- $\mathdefault{6}$ -->
      <g transform="translate(423.250529 115.130136) scale(0.11 -0.11)">
       <use xlink:href="#CMR17-36" transform="scale(0.996264)"/>
      </g>
     </g>
    </g>
    <g id="xtick_10">
     <g id="line2d_35">
      <g>
       <use xlink:href="#m0e82f77c74" x="466.700049" y="100.519789" style="stroke: #000000; stroke-width: 0.8"/>
      </g>
     </g>
     <g id="text_26">
      <!-- $\mathdefault{8}$ -->
      <g transform="translate(463.960316 115.130136) scale(0.11 -0.11)">
       <use xlink:href="#CMR17-38" transform="scale(0.996264)"/>
      </g>
     </g>
    </g>
    <g id="text_27">
     <!-- Normalized Time, $\Delta_H \delta t$ -->
     <g transform="translate(337.22285 128.871378) scale(0.11 -0.11)">
      <defs>
       <path id="CMR17-4e" d="M 1312 4250 
C 1267 4320 1261 4320 1139 4320 
L 326 4320 
L 326 4160 
L 448 4160 
C 704 4160 819 4129 838 4122 
L 838 610 
C 838 451 838 153 326 153 
L 326 -13 
C 474 0 742 0 902 0 
C 1062 0 1331 0 1478 -13 
L 1478 153 
C 966 153 966 451 966 610 
L 966 4033 
C 1011 3995 1011 3982 1056 3919 
L 3430 76 
C 3475 0 3494 0 3526 0 
C 3590 0 3590 19 3590 139 
L 3590 3705 
C 3590 3863 3590 4160 4102 4160 
L 4102 4326 
C 3955 4320 3686 4320 3526 4320 
C 3366 4320 3098 4320 2950 4326 
L 2950 4160 
C 3462 4160 3462 3862 3462 3703 
L 3462 763 
L 1312 4250 
z
" transform="scale(0.015625)"/>
       <path id="CMR17-6f" d="M 2758 1356 
C 2758 2176 2163 2816 1466 2816 
C 768 2816 173 2176 173 1356 
C 173 551 768 -64 1466 -64 
C 2163 -64 2758 551 2758 1356 
z
M 1466 51 
C 1165 51 909 230 762 480 
C 602 767 582 1126 582 1408 
C 582 1677 595 2010 762 2298 
C 890 2509 1139 2714 1466 2714 
C 1754 2714 1997 2554 2150 2330 
C 2349 2029 2349 1607 2349 1408 
C 2349 1158 2336 775 2163 467 
C 1984 173 1709 51 1466 51 
z
" transform="scale(0.015625)"/>
       <path id="CMR17-72" d="M 960 1497 
C 960 2112 1222 2688 1702 2688 
C 1747 2688 1792 2682 1837 2662 
C 1837 2662 1696 2617 1696 2452 
C 1696 2298 1818 2234 1914 2234 
C 1990 2234 2131 2279 2131 2458 
C 2131 2663 1926 2790 1709 2790 
C 1222 2790 1011 2317 947 2093 
L 941 2093 
L 941 2790 
L 198 2720 
L 198 2554 
C 576 2554 634 2515 634 2208 
L 634 428 
C 634 184 608 153 198 153 
L 198 -13 
C 352 0 646 0 813 0 
C 998 0 1325 0 1498 -13 
L 1498 153 
C 1037 153 960 153 960 440 
L 960 1497 
z
" transform="scale(0.015625)"/>
       <path id="CMR17-6d" d="M 4326 1933 
C 4326 2252 4269 2790 3507 2790 
C 3072 2790 2771 2496 2656 2151 
L 2650 2151 
C 2573 2676 2195 2790 1837 2790 
C 1331 2790 1069 2400 973 2144 
L 966 2144 
L 966 2790 
L 211 2720 
L 211 2554 
C 589 2554 646 2515 646 2208 
L 646 428 
C 646 184 621 153 211 153 
L 211 -13 
C 365 0 646 0 813 0 
C 979 0 1267 0 1421 -13 
L 1421 153 
C 1011 153 986 178 986 428 
L 986 1658 
C 986 2247 1344 2688 1792 2688 
C 2266 2688 2317 2266 2317 1958 
L 2317 428 
C 2317 184 2291 153 1882 153 
L 1882 -13 
C 2035 0 2317 0 2483 0 
C 2650 0 2938 0 3091 -13 
L 3091 153 
C 2682 153 2656 178 2656 428 
L 2656 1658 
C 2656 2247 3014 2688 3462 2688 
C 3936 2688 3987 2266 3987 1958 
L 3987 428 
C 3987 184 3962 153 3552 153 
L 3552 -13 
C 3706 0 3987 0 4154 0 
C 4320 0 4608 0 4762 -13 
L 4762 153 
C 4352 153 4326 178 4326 428 
L 4326 1933 
z
" transform="scale(0.015625)"/>
       <path id="CMR17-54" d="M 3981 4326 
L 288 4326 
L 179 2918 
L 294 2918 
C 378 3976 467 4160 1453 4160 
C 1568 4160 1754 4160 1805 4154 
C 1926 4135 1926 4058 1926 3912 
L 1926 459 
C 1926 230 1907 160 1376 160 
L 1197 160 
L 1197 0 
C 1504 0 1824 0 2138 0 
C 2451 0 2771 0 3078 0 
L 3078 160 
L 2899 160 
C 2368 160 2349 230 2349 459 
L 2349 3912 
C 2349 4052 2349 4129 2464 4154 
C 2515 4160 2701 4160 2816 4160 
C 3795 4160 3891 3976 3974 2918 
L 4090 2918 
L 3981 4326 
z
" transform="scale(0.015625)"/>
      </defs>
      <use xlink:href="#CMR17-4e" transform="scale(0.996264)"/>
      <use xlink:href="#CMR17-6f" transform="translate(69.07243 0) scale(0.996264)"/>
      <use xlink:href="#CMR17-72" transform="translate(114.762907 0) scale(0.996264)"/>
      <use xlink:href="#CMR17-6d" transform="translate(150.043675 0) scale(0.996264)"/>
      <use xlink:href="#CMR17-61" transform="translate(226.963265 0) scale(0.996264)"/>
      <use xlink:href="#CMR17-6c" transform="translate(272.653742 0) scale(0.996264)"/>
      <use xlink:href="#CMR17-69" transform="translate(297.5248 0) scale(0.996264)"/>
      <use xlink:href="#CMR17-7a" transform="translate(322.395859 0) scale(0.996264)"/>
      <use xlink:href="#CMR17-65" transform="translate(362.881519 0) scale(0.996264)"/>
      <use xlink:href="#CMR17-64" transform="translate(403.36718 0) scale(0.996264)"/>
      <use xlink:href="#CMR17-54" transform="translate(484.338516 0) scale(0.996264)"/>
      <use xlink:href="#CMR17-69" transform="translate(550.848396 0) scale(0.996264)"/>
      <use xlink:href="#CMR17-6d" transform="translate(575.719455 0) scale(0.996264)"/>
      <use xlink:href="#CMR17-65" transform="translate(652.639045 0) scale(0.996264)"/>
      <use xlink:href="#CMR17-2c" transform="translate(693.124705 0) scale(0.996264)"/>
      <use xlink:href="#CMR17-1" transform="translate(748.07173 0) scale(0.996264)"/>
      <use xlink:href="#CMMI12-48" transform="translate(824.99132 -14.943915) scale(0.697382)"/>
      <use xlink:href="#CMMI12-e" transform="translate(887.45441 0) scale(0.996264)"/>
      <use xlink:href="#CMMI12-74" transform="translate(934.395796 0) scale(0.996264)"/>
     </g>
    </g>
   </g>
   <g id="matplotlib.axis_4">
    <g id="ytick_4">
     <g id="line2d_36">
      <g>
       <use xlink:href="#m5b8540dee5" x="294.701199" y="96.490708" style="stroke: #000000; stroke-width: 0.8"/>
      </g>
     </g>
     <g id="text_28">
      <!-- $\mathdefault{0}$ -->
      <g transform="translate(282.221731 100.295881) scale(0.11 -0.11)">
       <use xlink:href="#CMR17-30" transform="scale(0.996264)"/>
      </g>
     </g>
    </g>
    <g id="ytick_5">
     <g id="line2d_37">
      <g>
       <use xlink:href="#m5b8540dee5" x="294.701199" y="63.303585" style="stroke: #000000; stroke-width: 0.8"/>
      </g>
     </g>
     <g id="text_29">
      <!-- $\mathdefault{2}$ -->
      <g transform="translate(282.221731 67.108759) scale(0.11 -0.11)">
       <use xlink:href="#CMR17-32" transform="scale(0.996264)"/>
      </g>
     </g>
    </g>
    <g id="ytick_6">
     <g id="line2d_38">
      <g>
       <use xlink:href="#m5b8540dee5" x="294.701199" y="30.116463" style="stroke: #000000; stroke-width: 0.8"/>
      </g>
     </g>
     <g id="text_30">
      <!-- $\mathdefault{4}$ -->
      <g transform="translate(282.221731 33.921636) scale(0.11 -0.11)">
       <use xlink:href="#CMR17-34" transform="scale(0.996264)"/>
      </g>
     </g>
    </g>
    <g id="text_31">
     <!-- Update Size, $\norm{\bm{\theta}}_{\infty}$ -->
     <g transform="translate(274.934072 101.569059) rotate(-90) scale(0.11 -0.11)">
      <use xlink:href="#CMR17-55" transform="scale(0.996264)"/>
      <use xlink:href="#CMR17-70" transform="translate(69.07243 0) scale(0.996264)"/>
      <use xlink:href="#CMR17-64" transform="translate(122.570238 0) scale(0.996264)"/>
      <use xlink:href="#CMR17-61" transform="translate(173.465608 0) scale(0.996264)"/>
      <use xlink:href="#CMR17-74" transform="translate(219.156085 0) scale(0.996264)"/>
      <use xlink:href="#CMR17-65" transform="translate(254.436853 0) scale(0.996264)"/>
      <use xlink:href="#CMR17-53" transform="translate(324.99848 0) scale(0.996264)"/>
      <use xlink:href="#CMR17-69" transform="translate(375.89385 0) scale(0.996264)"/>
      <use xlink:href="#CMR17-7a" transform="translate(400.764908 0) scale(0.996264)"/>
      <use xlink:href="#CMR17-65" transform="translate(441.250569 0) scale(0.996264)"/>
      <use xlink:href="#CMR17-2c" transform="translate(481.736229 0) scale(0.996264)"/>
      <use xlink:href="#CMSY10-6b" transform="translate(536.683254 0) scale(0.996264)"/>
      <use xlink:href="#CMMIB10-12" transform="translate(586.496637 0) scale(0.996264)"/>
      <use xlink:href="#CMSY10-6b" transform="translate(645.649524 0) scale(0.996264)"/>
      <use xlink:href="#CMSY10-31" transform="translate(695.462906 -28.393509) scale(0.697382)"/>
     </g>
    </g>
   </g>
   <g id="line2d_39">
    <path d="M 303.860901 96.490708 
L 324.215794 90.184836 
L 344.570688 80.821994 
L 364.925581 75.153744 
L 385.280475 71.699473 
L 405.635369 68.464983 
L 425.990262 65.933424 
L 446.345156 63.349651 
L 466.700049 60.965215 
L 487.054943 59.334796 
" clip-path="url(#paaffbffe86)" style="fill: none; stroke: #4056a1; stroke-width: 1.5; stroke-linecap: square"/>
    <defs>
     <path id="m688e9601e3" d="M 0 1.15 
C 0.304984 1.15 0.597517 1.028829 0.813173 0.813173 
C 1.028829 0.597517 1.15 0.304984 1.15 0 
C 1.15 -0.304984 1.028829 -0.597517 0.813173 -0.813173 
C 0.597517 -1.028829 0.304984 -1.15 0 -1.15 
C -0.304984 -1.15 -0.597517 -1.028829 -0.813173 -0.813173 
C -1.028829 -0.597517 -1.15 -0.304984 -1.15 0 
C -1.15 0.304984 -1.028829 0.597517 -0.813173 0.813173 
C -0.597517 1.028829 -0.304984 1.15 0 1.15 
z
" style="stroke: #4056a1"/>
    </defs>
    <g clip-path="url(#paaffbffe86)">
     <use xlink:href="#m688e9601e3" x="303.860901" y="96.490708" style="fill: #4056a1; stroke: #4056a1"/>
     <use xlink:href="#m688e9601e3" x="324.215794" y="90.184836" style="fill: #4056a1; stroke: #4056a1"/>
     <use xlink:href="#m688e9601e3" x="344.570688" y="80.821994" style="fill: #4056a1; stroke: #4056a1"/>
     <use xlink:href="#m688e9601e3" x="364.925581" y="75.153744" style="fill: #4056a1; stroke: #4056a1"/>
     <use xlink:href="#m688e9601e3" x="385.280475" y="71.699473" style="fill: #4056a1; stroke: #4056a1"/>
     <use xlink:href="#m688e9601e3" x="405.635369" y="68.464983" style="fill: #4056a1; stroke: #4056a1"/>
     <use xlink:href="#m688e9601e3" x="425.990262" y="65.933424" style="fill: #4056a1; stroke: #4056a1"/>
     <use xlink:href="#m688e9601e3" x="446.345156" y="63.349651" style="fill: #4056a1; stroke: #4056a1"/>
     <use xlink:href="#m688e9601e3" x="466.700049" y="60.965215" style="fill: #4056a1; stroke: #4056a1"/>
     <use xlink:href="#m688e9601e3" x="487.054943" y="59.334796" style="fill: #4056a1; stroke: #4056a1"/>
    </g>
   </g>
   <g id="line2d_40">
    <path d="M 303.860901 96.490708 
L 324.215794 90.217268 
L 344.570688 83.18952 
L 364.925581 78.113869 
L 385.280475 74.287274 
L 405.635369 45.32158 
L 425.990262 40.74161 
L 446.345156 38.989142 
L 466.700049 37.580914 
L 487.054943 36.440071 
" clip-path="url(#paaffbffe86)" style="fill: none; stroke-dasharray: 5.55,2.4; stroke-dashoffset: 0; stroke: #075c2f; stroke-width: 1.5"/>
    <defs>
     <path id="mf1211bbbcb" d="M 0 1.15 
C 0.304984 1.15 0.597517 1.028829 0.813173 0.813173 
C 1.028829 0.597517 1.15 0.304984 1.15 0 
C 1.15 -0.304984 1.028829 -0.597517 0.813173 -0.813173 
C 0.597517 -1.028829 0.304984 -1.15 0 -1.15 
C -0.304984 -1.15 -0.597517 -1.028829 -0.813173 -0.813173 
C -1.028829 -0.597517 -1.15 -0.304984 -1.15 0 
C -1.15 0.304984 -1.028829 0.597517 -0.813173 0.813173 
C -0.597517 1.028829 -0.304984 1.15 0 1.15 
z
" style="stroke: #075c2f"/>
    </defs>
    <g clip-path="url(#paaffbffe86)">
     <use xlink:href="#mf1211bbbcb" x="303.860901" y="96.490708" style="fill: #075c2f; stroke: #075c2f"/>
     <use xlink:href="#mf1211bbbcb" x="324.215794" y="90.217268" style="fill: #075c2f; stroke: #075c2f"/>
     <use xlink:href="#mf1211bbbcb" x="344.570688" y="83.18952" style="fill: #075c2f; stroke: #075c2f"/>
     <use xlink:href="#mf1211bbbcb" x="364.925581" y="78.113869" style="fill: #075c2f; stroke: #075c2f"/>
     <use xlink:href="#mf1211bbbcb" x="385.280475" y="74.287274" style="fill: #075c2f; stroke: #075c2f"/>
     <use xlink:href="#mf1211bbbcb" x="405.635369" y="45.32158" style="fill: #075c2f; stroke: #075c2f"/>
     <use xlink:href="#mf1211bbbcb" x="425.990262" y="40.74161" style="fill: #075c2f; stroke: #075c2f"/>
     <use xlink:href="#mf1211bbbcb" x="446.345156" y="38.989142" style="fill: #075c2f; stroke: #075c2f"/>
     <use xlink:href="#mf1211bbbcb" x="466.700049" y="37.580914" style="fill: #075c2f; stroke: #075c2f"/>
     <use xlink:href="#mf1211bbbcb" x="487.054943" y="36.440071" style="fill: #075c2f; stroke: #075c2f"/>
    </g>
   </g>
   <g id="line2d_41">
    <path d="M 303.860901 96.490708 
L 324.215794 90.269397 
L 344.570688 84.93461 
L 364.925581 81.884619 
L 385.280475 77.792918 
L 405.635369 55.960253 
L 425.990262 55.950092 
L 446.345156 56.181488 
L 466.700049 55.845393 
L 487.054943 55.135698 
" clip-path="url(#paaffbffe86)" style="fill: none; stroke-dasharray: 9.6,2.4,1.5,2.4; stroke-dashoffset: 0; stroke: #7d8238; stroke-width: 1.5"/>
    <defs>
     <path id="m02c5d1a879" d="M 0 1.15 
C 0.304984 1.15 0.597517 1.028829 0.813173 0.813173 
C 1.028829 0.597517 1.15 0.304984 1.15 0 
C 1.15 -0.304984 1.028829 -0.597517 0.813173 -0.813173 
C 0.597517 -1.028829 0.304984 -1.15 0 -1.15 
C -0.304984 -1.15 -0.597517 -1.028829 -0.813173 -0.813173 
C -1.028829 -0.597517 -1.15 -0.304984 -1.15 0 
C -1.15 0.304984 -1.028829 0.597517 -0.813173 0.813173 
C -0.597517 1.028829 -0.304984 1.15 0 1.15 
z
" style="stroke: #7d8238"/>
    </defs>
    <g clip-path="url(#paaffbffe86)">
     <use xlink:href="#m02c5d1a879" x="303.860901" y="96.490708" style="fill: #7d8238; stroke: #7d8238"/>
     <use xlink:href="#m02c5d1a879" x="324.215794" y="90.269397" style="fill: #7d8238; stroke: #7d8238"/>
     <use xlink:href="#m02c5d1a879" x="344.570688" y="84.93461" style="fill: #7d8238; stroke: #7d8238"/>
     <use xlink:href="#m02c5d1a879" x="364.925581" y="81.884619" style="fill: #7d8238; stroke: #7d8238"/>
     <use xlink:href="#m02c5d1a879" x="385.280475" y="77.792918" style="fill: #7d8238; stroke: #7d8238"/>
     <use xlink:href="#m02c5d1a879" x="405.635369" y="55.960253" style="fill: #7d8238; stroke: #7d8238"/>
     <use xlink:href="#m02c5d1a879" x="425.990262" y="55.950092" style="fill: #7d8238; stroke: #7d8238"/>
     <use xlink:href="#m02c5d1a879" x="446.345156" y="56.181488" style="fill: #7d8238; stroke: #7d8238"/>
     <use xlink:href="#m02c5d1a879" x="466.700049" y="55.845393" style="fill: #7d8238; stroke: #7d8238"/>
     <use xlink:href="#m02c5d1a879" x="487.054943" y="55.135698" style="fill: #7d8238; stroke: #7d8238"/>
    </g>
   </g>
   <g id="line2d_42">
    <path d="M 303.860901 96.490708 
L 324.215794 89.981011 
L 344.570688 76.085337 
L 364.925581 74.79101 
L 385.280475 50.159118 
L 405.635369 21.684293 
L 425.990262 20.398844 
L 446.345156 18.927131 
L 466.700049 17.344024 
L 487.054943 15.909081 
" clip-path="url(#paaffbffe86)" style="fill: none; stroke-dasharray: 1.5,2.475; stroke-dashoffset: 0; stroke: #d79922; stroke-width: 1.5"/>
    <defs>
     <path id="m9b63b24265" d="M 0 1.15 
C 0.304984 1.15 0.597517 1.028829 0.813173 0.813173 
C 1.028829 0.597517 1.15 0.304984 1.15 0 
C 1.15 -0.304984 1.028829 -0.597517 0.813173 -0.813173 
C 0.597517 -1.028829 0.304984 -1.15 0 -1.15 
C -0.304984 -1.15 -0.597517 -1.028829 -0.813173 -0.813173 
C -1.028829 -0.597517 -1.15 -0.304984 -1.15 0 
C -1.15 0.304984 -1.028829 0.597517 -0.813173 0.813173 
C -0.597517 1.028829 -0.304984 1.15 0 1.15 
z
" style="stroke: #d79922"/>
    </defs>
    <g clip-path="url(#paaffbffe86)">
     <use xlink:href="#m9b63b24265" x="303.860901" y="96.490708" style="fill: #d79922; stroke: #d79922"/>
     <use xlink:href="#m9b63b24265" x="324.215794" y="89.981011" style="fill: #d79922; stroke: #d79922"/>
     <use xlink:href="#m9b63b24265" x="344.570688" y="76.085337" style="fill: #d79922; stroke: #d79922"/>
     <use xlink:href="#m9b63b24265" x="364.925581" y="74.79101" style="fill: #d79922; stroke: #d79922"/>
     <use xlink:href="#m9b63b24265" x="385.280475" y="50.159118" style="fill: #d79922; stroke: #d79922"/>
     <use xlink:href="#m9b63b24265" x="405.635369" y="21.684293" style="fill: #d79922; stroke: #d79922"/>
     <use xlink:href="#m9b63b24265" x="425.990262" y="20.398844" style="fill: #d79922; stroke: #d79922"/>
     <use xlink:href="#m9b63b24265" x="446.345156" y="18.927131" style="fill: #d79922; stroke: #d79922"/>
     <use xlink:href="#m9b63b24265" x="466.700049" y="17.344024" style="fill: #d79922; stroke: #d79922"/>
     <use xlink:href="#m9b63b24265" x="487.054943" y="15.909081" style="fill: #d79922; stroke: #d79922"/>
    </g>
   </g>
   <g id="patch_8">
    <path d="M 294.701199 100.519789 
L 294.701199 11.88 
" style="fill: none; stroke: #000000; stroke-width: 0.8; stroke-linejoin: miter; stroke-linecap: square"/>
   </g>
   <g id="patch_9">
    <path d="M 496.214645 100.519789 
L 496.214645 11.88 
" style="fill: none; stroke: #000000; stroke-width: 0.8; stroke-linejoin: miter; stroke-linecap: square"/>
   </g>
   <g id="patch_10">
    <path d="M 294.701199 100.519789 
L 496.214645 100.519789 
" style="fill: none; stroke: #000000; stroke-width: 0.8; stroke-linejoin: miter; stroke-linecap: square"/>
   </g>
   <g id="patch_11">
    <path d="M 294.701199 11.88 
L 496.214645 11.88 
" style="fill: none; stroke: #000000; stroke-width: 0.8; stroke-linejoin: miter; stroke-linecap: square"/>
   </g>
   <g id="legend_2">
    <g id="line2d_43">
     <path d="M 300.201309 21.23011 
L 308.451309 21.23011 
L 316.701309 21.23011 
" style="fill: none; stroke: #4056a1; stroke-width: 1.5; stroke-linecap: square"/>
     <g>
      <use xlink:href="#m688e9601e3" x="308.451309" y="21.23011" style="fill: #4056a1; stroke: #4056a1"/>
     </g>
    </g>
    <g id="text_32">
     <!-- n=4 -->
     <g transform="translate(321.101309 25.08011) scale(0.11 -0.11)">
      <use xlink:href="#CMR17-6e" transform="scale(0.996264)"/>
      <use xlink:href="#CMR17-3d" transform="translate(50.89537 0) scale(0.996264)"/>
      <use xlink:href="#CMR17-34" transform="translate(122.610158 0) scale(0.996264)"/>
     </g>
    </g>
    <g id="line2d_44">
     <path d="M 300.201309 36.561005 
L 308.451309 36.561005 
L 316.701309 36.561005 
" style="fill: none; stroke-dasharray: 5.55,2.4; stroke-dashoffset: 0; stroke: #075c2f; stroke-width: 1.5"/>
     <g>
      <use xlink:href="#mf1211bbbcb" x="308.451309" y="36.561005" style="fill: #075c2f; stroke: #075c2f"/>
     </g>
    </g>
    <g id="text_33">
     <!-- n=6 -->
     <g transform="translate(321.101309 40.411005) scale(0.11 -0.11)">
      <use xlink:href="#CMR17-6e" transform="scale(0.996264)"/>
      <use xlink:href="#CMR17-3d" transform="translate(50.89537 0) scale(0.996264)"/>
      <use xlink:href="#CMR17-36" transform="translate(122.610158 0) scale(0.996264)"/>
     </g>
    </g>
    <g id="line2d_45">
     <path d="M 300.201309 51.891899 
L 308.451309 51.891899 
L 316.701309 51.891899 
" style="fill: none; stroke-dasharray: 9.6,2.4,1.5,2.4; stroke-dashoffset: 0; stroke: #7d8238; stroke-width: 1.5"/>
     <g>
      <use xlink:href="#m02c5d1a879" x="308.451309" y="51.891899" style="fill: #7d8238; stroke: #7d8238"/>
     </g>
    </g>
    <g id="text_34">
     <!-- n=8 -->
     <g transform="translate(321.101309 55.741899) scale(0.11 -0.11)">
      <use xlink:href="#CMR17-6e" transform="scale(0.996264)"/>
      <use xlink:href="#CMR17-3d" transform="translate(50.89537 0) scale(0.996264)"/>
      <use xlink:href="#CMR17-38" transform="translate(122.610158 0) scale(0.996264)"/>
     </g>
    </g>
    <g id="line2d_46">
     <path d="M 300.201309 67.222794 
L 308.451309 67.222794 
L 316.701309 67.222794 
" style="fill: none; stroke-dasharray: 1.5,2.475; stroke-dashoffset: 0; stroke: #d79922; stroke-width: 1.5"/>
     <g>
      <use xlink:href="#m9b63b24265" x="308.451309" y="67.222794" style="fill: #d79922; stroke: #d79922"/>
     </g>
    </g>
    <g id="text_35">
     <!-- n=10 -->
     <g transform="translate(321.101309 71.072794) scale(0.11 -0.11)">
      <use xlink:href="#CMR17-6e" transform="scale(0.996264)"/>
      <use xlink:href="#CMR17-3d" transform="translate(50.89537 0) scale(0.996264)"/>
      <use xlink:href="#CMR17-31" transform="translate(122.610158 0) scale(0.996264)"/>
      <use xlink:href="#CMR17-30" transform="translate(168.300635 0) scale(0.996264)"/>
     </g>
    </g>
   </g>
  </g>
 </g>
 <defs>
  <clipPath id="p25a1702dad">
   <rect x="53.321448" y="11.88" width="201.513447" height="88.639789"/>
  </clipPath>
  <clipPath id="paaffbffe86">
   <rect x="294.701199" y="11.88" width="201.513447" height="88.639789"/>
  </clipPath>
 </defs>
</svg>
